<svg xmlns="http://www.w3.org/2000/svg">
<defs>
<font id="Neon80s" horiz-adv-x="1202" >
  <font-face 
    font-family="Neon 80s"
    font-weight="400"
    font-stretch="normal"
    units-per-em="2048"
    panose-1="2 1 5 0 0 2 0 6 0 0"
    ascent="1638"
    descent="-410"
    x-height="998"
    cap-height="1434"
    bbox="-513 -420 2324 1832"
    underline-thickness="150"
    underline-position="-142"
    unicode-range="U+0020-U+F002"
  />
<missing-glyph horiz-adv-x="1089" 
d="M1033 0h-965v1434h965v-1250c-20.667 0 -40.334 7 -59.001 21v1179h-847v-1334h847v105c18.667 -6.66699 38.334 -11 59.001 -13v-142zM335 1054l239.998 -0.000976562v-20h-4c-50.667 0 -76 -21.333 -76 -64v-172l12 -4c133.333 120 200 193.333 200 220
c0 11.333 -16 18 -48 20v20h204v-20c-49.333 0 -132 -65.333 -248 -196l-32 -32l40 4h84c118.667 0 189.334 -42.667 212.001 -128l4 -36c0 -67.333 -41.333 -127.333 -124 -180c19.333 -92.667 54 -167.334 104 -224.001c48 -48 101.333 -72 160 -72
c27.333 0 47.333 9.33301 60 28c2 4.66699 3 9.33398 3 14.001c0 10.667 -6 20.334 -18 29.001l-33 -7c15.333 15.333 30.333 23 45 23h8c16.667 -3.33301 25.667 -15 27 -35c0 -32 -26.667 -53.333 -80 -64h-40c-120.667 0 -220.667 81.333 -300 244c0 14 -4 22 -12 24
c-70 -21.333 -136.667 -32 -200 -32c-197.333 0 -318.666 68 -363.999 204l-8 44c0 81.333 54.667 136 164 164l76 8h24v124c0 61.333 -12 92 -36 92l-40 4h-4v20zM234.998 629.999c0 -102 56.001 -169.998 168.001 -203.998c31.333 -10.667 74 -17.334 128 -20.001
c65.333 0 129.333 13.333 192 40c-16.667 61.333 -43.334 124 -80.001 188c-46.667 63.333 -92 108.666 -136 135.999h-4l-8 -8v-140c0 -66.667 8 -100 24 -100c8 -8 25.333 -12 52 -12h4v-20h-240v20h12c45.333 0 68 21.333 68 64v224h-20
c-83.333 0 -135.333 -44 -156 -132zM542.999 782.001v-4.00098c106 -45.333 179.333 -112 220 -200l32 -68c21.333 40.667 32 75.334 32 104.001v12c0 74 -40 126 -120 156c-10.667 5.33301 -34.667 9.33301 -72 12z" />
    <glyph glyph-name=".notdef" horiz-adv-x="1089" 
d="M1033 0h-965v1434h965v-1250c-20.667 0 -40.334 7 -59.001 21v1179h-847v-1334h847v105c18.667 -6.66699 38.334 -11 59.001 -13v-142zM335 1054l239.998 -0.000976562v-20h-4c-50.667 0 -76 -21.333 -76 -64v-172l12 -4c133.333 120 200 193.333 200 220
c0 11.333 -16 18 -48 20v20h204v-20c-49.333 0 -132 -65.333 -248 -196l-32 -32l40 4h84c118.667 0 189.334 -42.667 212.001 -128l4 -36c0 -67.333 -41.333 -127.333 -124 -180c19.333 -92.667 54 -167.334 104 -224.001c48 -48 101.333 -72 160 -72
c27.333 0 47.333 9.33301 60 28c2 4.66699 3 9.33398 3 14.001c0 10.667 -6 20.334 -18 29.001l-33 -7c15.333 15.333 30.333 23 45 23h8c16.667 -3.33301 25.667 -15 27 -35c0 -32 -26.667 -53.333 -80 -64h-40c-120.667 0 -220.667 81.333 -300 244c0 14 -4 22 -12 24
c-70 -21.333 -136.667 -32 -200 -32c-197.333 0 -318.666 68 -363.999 204l-8 44c0 81.333 54.667 136 164 164l76 8h24v124c0 61.333 -12 92 -36 92l-40 4h-4v20zM234.998 629.999c0 -102 56.001 -169.998 168.001 -203.998c31.333 -10.667 74 -17.334 128 -20.001
c65.333 0 129.333 13.333 192 40c-16.667 61.333 -43.334 124 -80.001 188c-46.667 63.333 -92 108.666 -136 135.999h-4l-8 -8v-140c0 -66.667 8 -100 24 -100c8 -8 25.333 -12 52 -12h4v-20h-240v20h12c45.333 0 68 21.333 68 64v224h-20
c-83.333 0 -135.333 -44 -156 -132zM542.999 782.001v-4.00098c106 -45.333 179.333 -112 220 -200l32 -68c21.333 40.667 32 75.334 32 104.001v12c0 74 -40 126 -120 156c-10.667 5.33301 -34.667 9.33301 -72 12z" />
    <glyph glyph-name="space" unicode=" " horiz-adv-x="597" 
 />
    <glyph glyph-name="space" unicode="&#xa0;" horiz-adv-x="597" 
 />
    <glyph glyph-name="exclam" unicode="!" horiz-adv-x="401" 
d="M274 174c20 -20 30 -44 30 -72s-10 -52 -30 -72s-44 -30 -72 -30s-52 10 -72 30s-30 44 -30 72s10 52 30 72s44 30 72 30s52 -10 72 -30zM274 1414c20 -20 30 -44 30 -72v-840c0 -28 -10 -52 -30 -72s-44 -30 -72 -30s-52 10 -72 30s-30 44 -30 72v840c0 28 10 52 30 72
s44 30 72 30s52 -10 72 -30z" />
    <glyph glyph-name="quotedbl" unicode="&#x22;" horiz-adv-x="731" 
d="M304 1220c0 -28 -10 -52 -30 -72s-44 -30 -72 -30c-28.667 0 -52.834 10 -72.501 30s-29.5 44 -29.5 72v110c0 28 9.83301 52 29.5 72s43.834 30 72.501 30c28 0 52 -10 72 -30s30 -44 30 -72v-110zM629 1220c0 -28 -10 -52 -30 -72s-44 -30 -72 -30
c-28.667 0 -52.834 10 -72.501 30s-29.5 44 -29.5 72v110c0 28 9.83301 52 29.5 72s43.834 30 72.501 30c28 0 52 -10 72 -30s30 -44 30 -72v-110z" />
    <glyph glyph-name="numbersign" unicode="#" horiz-adv-x="1603" 
d="M1205 900l-83.998 -300h179c28 0 51.667 -9.83301 71 -29.5s29 -43.167 29 -70.5c0 -28 -9.66699 -51.667 -29 -71s-43 -29 -71 -29h-235l-117 -418c-3.33301 -20 -12.333 -37.333 -27 -52c-20 -20 -43.667 -30 -71 -30c-28 0 -51.667 9.83301 -71 29.5
s-29 43.167 -29 70.5c0 14 2.33301 27 7 39l101 361h-293l-117 -418c-3.33301 -20 -12.333 -37.333 -27 -52c-20 -20 -43.667 -30 -71 -30c-28 0 -51.667 9.83301 -71 29.5s-29 43.167 -29 70.5c0 14 2.33301 27 7 39l101 361h-158c-27.333 0 -50.833 9.66699 -70.5 29
s-29.5 43 -29.5 71c0 27.333 9.83301 50.833 29.5 70.5s43.167 29.5 70.5 29.5h214l83 300h-197c-27.333 0 -50.833 9.66699 -70.5 29s-29.5 43 -29.5 71c0 27.333 9.83301 50.833 29.5 70.5s43.167 29.5 70.5 29.5h253l98 351c3.33301 20.667 12.666 38.667 27.999 54
c19.333 19.333 43 29 71 29c27.333 0 50.833 -9.66699 70.5 -29s29.5 -43 29.5 -71c0 -9.33301 -1 -18.333 -3 -27l-86 -307h292l98 351c3.33301 20.667 12.666 38.667 27.999 54c19.333 19.333 43 29 71 29c27.333 0 50.833 -9.66699 70.5 -29s29.5 -43 29.5 -71
c0 -9.33301 -1 -18.333 -3 -27l-86 -307h139c28 0 51.667 -9.83301 71 -29.5s29 -43.167 29 -70.5c0 -28 -9.66699 -51.667 -29 -71s-43 -29 -71 -29h-195zM914.002 600l83 300h-292l-84 -300h293z" />
    <glyph glyph-name="dollar" unicode="$" 
d="M492 11c-92.667 19.333 -174.668 64.6689 -246.001 136.002c-97.333 97.333 -146 215 -146 353c0 27.333 9.66699 50.833 29 70.5s43 29.5 71 29.5c27.333 0 50.833 -9.83301 70.5 -29.5s29.5 -43.167 29.5 -70.5c0 -82.667 29.333 -153.334 88 -212.001
c30.667 -31.333 65.334 -54.333 104.001 -69v599c-42.667 15.333 -81 40.333 -115 75c-61.333 61.333 -92 135.333 -92 222c0 87.333 30.667 161.666 92 222.999c34 34 72.333 58.667 115 74v90c0 28 10 52 30 72s44 30 72 30s52 -10 72 -30s30 -44 30 -72v-86
c41.333 -13.333 79.333 -35.333 114 -66l11 -9c19.333 -20 29 -43.667 29 -71c0 -28 -9.83301 -51.667 -29.5 -71s-43.167 -29 -70.5 -29c-20 0 -38 5 -54 15v-193c97.333 -18 183.333 -64 258 -138c97.333 -98 146 -216 146 -354s-48.667 -255.667 -146 -353
c-74.667 -74.667 -160.667 -121 -258 -139v-96c0 -28 -10 -52 -30 -72s-44 -30 -72 -30s-52 10 -72 30s-30 44 -30 72v99zM491.999 1156c-4.66699 -12.667 -7 -26.332 -7 -40.999s2.33301 -28.334 7 -41.001v82zM695.999 215.005c42.667 14 81.334 38.3311 116.001 72.998
c58.667 58.667 88 129.334 88 212.001s-29.333 153.334 -88 212.001c-34.667 34.667 -73.334 59 -116.001 73v-570z" />
    <glyph glyph-name="percent" unicode="%" horiz-adv-x="1610" 
d="M1428 1270c0 -28.667 -10 -53 -30 -73l-1124 -1124c-20 -20 -44 -30 -72 -30c-28.667 0 -52.667 10 -72 30c-20 19.333 -30 43.333 -30 72c0 28 10 52 30 72l1124 1124c20 20 44.333 30 73 30c28 0 51.667 -10 71 -30c20 -19.333 30 -43 30 -71zM350 1200
c-14 0 -25.833 -14.667 -35.5 -44s-14.5 -64.666 -14.5 -105.999s4.83301 -76.666 14.5 -105.999s21.5 -44 35.5 -44s25.833 14.667 35.5 44s14.5 64.666 14.5 105.999s-4.83301 76.666 -14.5 105.999s-21.5 44 -35.5 44zM600 1050c0 -96.667 -24.333 -179.167 -73 -247.5
s-107.667 -102.5 -177 -102.5c-68.667 0 -127.5 34.167 -176.5 102.5s-73.5 150.833 -73.5 247.5s24.5 179.167 73.5 247.5s107.833 102.5 176.5 102.5c69.333 0 128.333 -34.167 177 -102.5s73 -150.833 73 -247.5zM1250 525c-14 0 -25.833 -14.667 -35.5 -44
s-14.5 -64.666 -14.5 -105.999s4.83301 -76.666 14.5 -105.999s21.5 -44 35.5 -44s25.833 14.667 35.5 44s14.5 64.666 14.5 105.999s-4.83301 76.666 -14.5 105.999s-21.5 44 -35.5 44zM1500 375c0 -96.667 -24.333 -179.167 -73 -247.5s-107.667 -102.5 -177 -102.5
c-68.667 0 -127.5 34.167 -176.5 102.5s-73.5 150.833 -73.5 247.5s24.5 179.167 73.5 247.5s107.833 102.5 176.5 102.5c69.333 0 128.333 -34.167 177 -102.5s73 -150.833 73 -247.5z" />
    <glyph glyph-name="ampersand" unicode="&#x26;" horiz-adv-x="1399" 
d="M421 1020l69.999 -69.998c26.667 21.333 53.334 47.666 80.001 78.999c19.333 20 29 43.667 29 71s-9.66699 50.833 -29 70.5s-43 29.5 -71 29.5c-27.333 0 -50.833 -9.83301 -70.5 -29.5s-29.5 -43.167 -29.5 -70.5c0 -26.667 7 -53.334 21 -80.001zM807.999 350.002
l-347.001 348c-27.333 -20.667 -56.666 -44.667 -87.999 -72c-48.667 -50 -73 -108.667 -73 -176c0 -69.333 24.5 -128.333 73.5 -177s107.833 -73 176.5 -73c66 0 125.667 23.667 179 71zM866.998 131.002c-90.667 -87.333 -196.333 -131.002 -317 -131.002
c-124 0 -230 44 -318 132s-132 194 -132 318c0 122.667 43.667 228.334 131 317.001c32 27.333 61.667 51.333 89 72l-40 40c-53.333 64.667 -80 138.334 -80 221.001s29.333 153.334 88 212.001s129.334 88 212.001 88c83.333 0 154.166 -29.333 212.499 -88
s87.5 -129.334 87.5 -212.001s-29 -153.334 -87 -212.001c-28 -30 -55.333 -56 -82 -78l319 -318l179 179h1c19.333 19.333 42.666 29 69.999 29c28 0 51.667 -9.66699 71 -29s29 -43 29 -71c0 -27.333 -9.66699 -50.666 -29 -69.999c-4 -4 -8 -7.66699 -12 -11l-168 -168
l180 -180c19.333 -19.333 29 -43 29 -71c0 -27.333 -9.66699 -50.833 -29 -70.5s-43 -29.5 -71 -29.5c-27.333 0 -50.666 10 -69.999 30l-1 -1l-180 180z" />
    <glyph glyph-name="quotesingle" unicode="'" horiz-adv-x="401" 
d="M304 1220c0 -28 -10 -52 -30 -72s-44 -30 -72 -30c-28.667 0 -52.834 10 -72.501 30s-29.5 44 -29.5 72v110c0 28 9.83301 52 29.5 72s43.834 30 72.501 30c28 0 52 -10 72 -30s30 -44 30 -72v-110z" />
    <glyph glyph-name="parenleft" unicode="(" horiz-adv-x="619" 
d="M276 -14c-117.333 190 -175.999 419.668 -175.999 689.001s58.667 499.333 176 690c12.667 21.333 34 53.666 64 96.999c19.333 19.333 42.666 29 69.999 29c28 0 51.667 -9.66699 71 -29s29 -43 29 -71c0 -27.333 -9.66699 -50.666 -29 -69.999
c-26 -32.667 -47.333 -65.334 -64 -98.001c-78 -151.333 -117 -334 -117 -548s39 -396.667 117 -548c24 -46.667 55.333 -90.667 94 -132c19.333 -20 29 -43.667 29 -71c0 -28 -9.83301 -51.667 -29.5 -71s-43.167 -29 -70.5 -29c-28 0 -51.667 9.66699 -71 29
c-38.667 50.667 -69.667 95 -93 133z" />
    <glyph glyph-name="parenright" unicode=")" horiz-adv-x="633" 
d="M349 -14c117.333 190 175.999 419.668 175.999 689.001s-58.667 499.333 -176 690c-12.667 21.333 -34 53.666 -64 96.999c-19.333 19.333 -42.666 29 -69.999 29c-28 0 -51.667 -9.66699 -71 -29s-29 -43 -29 -71c0 -27.333 9.66699 -50.666 29 -69.999
c26 -32.667 47.333 -65.334 64 -98.001c78 -151.333 117 -334 117 -548s-39 -396.667 -117 -548c-24 -46.667 -55.333 -90.667 -94 -132c-19.333 -20 -29 -43.667 -29 -71c0 -28 9.83301 -51.667 29.5 -71s43.167 -29 70.5 -29c28 0 51.667 9.66699 71 29
c38.667 50.667 69.667 95 93 133z" />
    <glyph glyph-name="asterisk" unicode="*" horiz-adv-x="801" 
d="M506 1215l68.001 21.998c10.667 3.33301 21 5 31 5c16 0 31.667 -3.66699 47 -11c24.667 -12.667 41.667 -32.667 51 -60c3.33301 -10.667 5 -21.334 5 -32.001c0 -15.333 -3.66699 -30.666 -11 -45.999c-13.333 -25.333 -33.333 -42 -60 -50l-69 -22l43 -59
c13.333 -18 20 -37.667 20 -59c0 -5.33301 -0.333008 -10.666 -1 -15.999c-4.66699 -28 -18.334 -50.333 -41.001 -67c-18 -13.333 -37.333 -20 -58 -20c-6 0 -12 0.666992 -18 2c-28 4.66699 -50.333 18.334 -67 41.001l-42 58l-42 -58
c-16.667 -22.667 -38.667 -36.334 -66 -41.001c-6.66699 -1.33301 -12.667 -2 -18 -2c-21.333 0 -41 6.66699 -59 20c-22.667 16.667 -36 39 -40 67c-1.33301 5.33301 -2 10.666 -2 15.999c0 21.333 6.66699 41 20 59l43 59l-69 22c-26.667 8 -46.334 24.667 -59.001 50
c-8 14.667 -12 30 -12 46c0 10.667 1.66699 21.334 5 32.001c8.66699 26.667 25.667 46.334 51 59.001c15.333 8 31 12 47 12c10.667 0 21 -1.66699 31 -5l68 -22v71c0 28 9.83301 52 29.5 72s43.834 30 72.501 30c28 0 52 -10 72 -30s30 -44 30 -72v-71z" />
    <glyph glyph-name="plus" unicode="+" horiz-adv-x="998" 
d="M397 594h-98c-28.667 0 -52.834 10 -72.501 30s-29.5 44 -29.5 72s9.83301 52 29.5 72s43.834 30 72.501 30h98v98c0 28 9.83301 52 29.5 72s43.834 30 72.501 30c28 0 52 -10 72 -30s30 -44 30 -72v-98h98c28 0 52 -10 72 -30s30 -44 30 -72s-10 -52 -30 -72
s-44 -30 -72 -30h-98v-98c0 -28 -10 -52 -30 -72s-44 -30 -72 -30c-28.667 0 -52.834 10 -72.501 30s-29.5 44 -29.5 72v98z" />
    <glyph glyph-name="comma" unicode="," horiz-adv-x="401" 
d="M230 -57c-20 -20 -44 -30.001 -72 -30.001c-28.667 0 -53 10 -73 30s-30 43.667 -30 71c0 0.666992 0.333008 1.33398 1 2.00098c0 28 9.66699 51.667 29 71l78 78c20 20 44 30 72 30s52 -10 72 -30s30 -44 30 -72c0 -28.667 -10 -52.667 -30 -72z" />
    <glyph glyph-name="hyphen" unicode="-" horiz-adv-x="801" 
d="M130 768c20 20 44 30 72 30h400c28 0 52 -10 72 -30s30 -44 30 -72s-10 -52 -30 -72s-44 -30 -72 -30h-400c-28 0 -52 10 -72 30s-30 44 -30 72s10 52 30 72z" />
    <glyph glyph-name="hyphen" unicode="&#xad;" horiz-adv-x="801" 
d="M130 768c20 20 44 30 72 30h400c28 0 52 -10 72 -30s30 -44 30 -72s-10 -52 -30 -72s-44 -30 -72 -30h-400c-28 0 -52 10 -72 30s-30 44 -30 72s10 52 30 72z" />
    <glyph glyph-name="period" unicode="." horiz-adv-x="401" 
d="M274 174c20 -20 30 -44 30 -72s-10 -52 -30 -72s-44 -30 -72 -30s-52 10 -72 30s-30 44 -30 72s10 52 30 72s44 30 72 30s52 -10 72 -30z" />
    <glyph glyph-name="slash" unicode="/" horiz-adv-x="998" 
d="M996 1422c2.66699 -9.33301 4 -18.665 4 -27.998c0 -17.333 -4.66699 -34 -14 -50l-795 -1377c-14 -24 -34.667 -39.667 -62 -47c-9.33301 -2.66699 -18.666 -4 -27.999 -4c-17.333 0 -34 4.66699 -50 14c-24 14 -39.667 34.667 -47 62
c-2.66699 9.33301 -4 18.666 -4 27.999c0 16.667 4.66699 33 14 49l795 1377c14 24.667 34.667 40.667 62 48c9.33301 2.66699 18.666 4 27.999 4c16.667 0 33 -4.66699 49 -14c24.667 -14.667 40.667 -35.334 48 -62.001z" />
    <glyph glyph-name="zero" unicode="0" 
d="M953.5 1195c97.667 -136.667 146.5 -301.667 146.5 -495s-48.833 -358.333 -146.5 -495s-215.5 -205 -353.5 -205s-255.833 68.333 -353.5 205s-146.5 301.667 -146.5 495s48.833 358.333 146.5 495s215.5 205 353.5 205s255.833 -68.333 353.5 -205zM600 1200
c-82.667 0 -153.334 -48.833 -212.001 -146.5s-88 -215.5 -88 -353.5s29.333 -255.833 88 -353.5s129.334 -146.5 212.001 -146.5s153.334 48.833 212.001 146.5s88 215.5 88 353.5s-29.333 255.833 -88 353.5s-129.334 146.5 -212.001 146.5z" />
    <glyph glyph-name="one" unicode="1" horiz-adv-x="612" 
d="M330 1370c20 16 44 24 72 24s52 -10 72 -30s30 -44 30 -72v-1190c0 -28 -10 -52 -30 -72s-44 -30 -72 -30s-52 10 -72 30s-30 44 -30 72v953l-26 -25c-20 -20 -44 -30 -72 -30s-52 10 -72 30s-30 44 -30 72s10 52 30 72z" />
    <glyph glyph-name="two" unicode="2" horiz-adv-x="1097" 
d="M320 200h579.999c27.333 0 50.833 -9.83301 70.5 -29.5s29.5 -43.167 29.5 -70.5s-9.83301 -50.833 -29.5 -70.5s-43.167 -29.5 -70.5 -29.5h-700c-28 -0 -51.667 9.83301 -71 29.5s-29 43.167 -29 70.5c0 124 43.833 230 131.5 318s180 157 277 207
s169.833 99.5 218.5 148.5s73 107.833 73 176.5c0 69.333 -24.333 128.333 -73 177s-107.667 73 -177 73c-68.667 0 -127.5 -24.333 -176.5 -73s-73.5 -107.667 -73.5 -177c0 -28 -9.66699 -51.667 -29 -71s-43 -29 -71 -29c-27.333 0 -50.833 9.66699 -70.5 29
s-29.5 43 -29.5 71c0 124.667 44 230.834 132 318.501s194 131.5 318 131.5c124.667 0 230.834 -43.833 318.501 -131.5s131.5 -193.834 131.5 -318.501c0 -124 -43.833 -230 -131.5 -318s-180 -157 -277 -207s-169.833 -99.333 -218.5 -148
c-23.333 -23.333 -41 -49 -53 -77z" />
    <glyph glyph-name="three" unicode="3" horiz-adv-x="1089" 
d="M129 157c-19.333 19.333 -29.0039 42.668 -29.0039 70.001c0 28 9.66699 51.667 29 71s43 29 71 29c27.333 0 51 -9.66699 71 -29c2.66699 -2.66699 5 -5.33398 7 -8.00098l2 -2c58 -58.667 128.667 -88 212 -88c82.667 0 153.334 29.333 212.001 88
s88 129.334 88 212.001c0 83.333 -29.333 154.166 -88 212.499s-129.334 87.5 -212.001 87.5c-28 0 -51.667 9.83301 -71 29.5s-29 43.167 -29 70.5c0 28 9.66699 51.667 29 71s43 29 71 29s51.667 9.83301 71 29.5s29 43.167 29 70.5c0 28 -9.66699 51.667 -29 71
s-43 29 -71 29c-27.333 0 -50.666 -9.66699 -69.999 -29c-1.33301 -0.666992 -2.33301 -1.33398 -3 -2.00098l-6 -6c-20 -20 -43.667 -30 -71 -30c-28 0 -51.667 9.83301 -71 29.5s-29 43.167 -29 70.5c0 28 9.66699 51.667 29 71l7 7l2 2c58 58 128.667 87 212 87
c82.667 0 153.334 -29.167 212.001 -87.5s88 -129.166 88 -212.499c0 -62 -16.667 -117.333 -50 -166c36.667 -21.333 71.334 -48 104.001 -80c97.333 -98 146 -216 146 -354s-48.833 -255.833 -146.5 -353.5s-215.5 -146.5 -353.5 -146.5s-255.667 49 -353 147
c-1.33301 0.666992 -2.66602 1.66699 -3.99902 3c-2 2 -4 4.33301 -6 7z" />
    <glyph glyph-name="four" unicode="4" 
d="M730 1371c19.333 19.333 42.667 29 70 29c28 0 51.667 -9.83301 71 -29.5s29 -43.167 29 -70.5v-700h100c28 0 51.667 -9.83301 71 -29.5s29 -43.167 29 -70.5c0 -28 -9.66699 -51.667 -29 -71s-43 -29 -71 -29h-100v-300c0 -28 -9.66699 -51.667 -29 -71
s-43 -29 -71 -29c-27.333 0 -50.833 9.66699 -70.5 29s-29.5 43 -29.5 71v300h-500c-27.333 0 -50.833 9.66699 -70.5 29s-29.5 43 -29.5 71c0 22.667 6.66699 42.667 20 60l600 800c2.66699 3.33301 6 7 10 11zM700.001 600v400l-300 -400h300z" />
    <glyph glyph-name="five" unicode="5" 
d="M300 500l2.00098 0.000976562c0 -82 29 -152 87 -210s128 -87 210 -87s151.833 29 209.5 87s86.5 128 86.5 210s-28.833 151.833 -86.5 209.5s-127.5 86.5 -209.5 86.5s-152 -28.667 -210 -86c-0.666992 -0.666992 -1 -1.33398 -1 -2.00098l-2 2
c-8.66699 -8.66699 -18.667 -15.667 -30 -21c-14.667 -6.66699 -29.334 -10 -44.001 -10c-11.333 0 -22.666 2 -33.999 6c-26.667 10 -46 28 -58 54c-6.66699 14 -10 28 -10 42c0 11.333 2.33301 23 7 35l188 517c9.33301 26.667 24.666 45 45.999 55c18 8 34.667 12 50 12
h397c28 0 52 -10 72 -30s30 -44 30 -72s-10 -52 -30 -72s-44 -30 -72 -30h-325l-76 -208c32.667 6.66699 66.667 10 102 10c138 0 255.667 -48.667 353 -146s146 -215 146 -353s-48.667 -255.667 -146 -353s-215 -146 -353 -146s-255.667 48.667 -353 146s-146 215 -146 353
v1c0 27.333 9.66699 50.833 29 70.5s43 29.5 71 29.5c27.333 0 50.833 -9.83301 70.5 -29.5s29.5 -43.167 29.5 -70.5z" />
    <glyph glyph-name="six" unicode="6" 
d="M600 800c-83.333 0 -154.166 -29.167 -212.499 -87.5s-87.5 -129.166 -87.5 -212.499c0 -82.667 29.167 -153.334 87.5 -212.001s129.166 -88 212.499 -88c82.667 0 153.334 29.333 212.001 88s88 129.334 88 212.001c0 83.333 -29.333 154.166 -88 212.499
s-129.334 87.5 -212.001 87.5zM546 997c17.333 2 35.335 3.00195 54.002 3.00195c138 0 255.833 -48.667 353.5 -146s146.5 -215.333 146.5 -354c0 -138 -48.833 -255.833 -146.5 -353.5s-215.5 -146.5 -353.5 -146.5c-138.667 0 -256.667 48.833 -354 146.5
s-146 215.5 -146 353.5c0 88.667 19.667 168.667 59 240l349 600c5.33301 11.333 12.666 21.666 21.999 30.999c19.333 19.333 42.666 29 69.999 29c28 0 51.667 -9.83301 71 -29.5s29 -43.167 29 -70.5c0 -18.667 -4.33301 -35.334 -13 -50.001z" />
    <glyph glyph-name="seven" unicode="7" 
d="M794 1234h-591.999c-28 0 -52 9.33301 -72 28s-30 42 -30 70s10 52 30 72s44 30 72 30h796c28 0 52 -10 72 -30s30 -44 30 -72c0 -11.333 -3 -24 -9 -38c-4.66699 -10.667 -11.667 -20.667 -21 -30c-282.667 -330.667 -439.334 -718.667 -470.001 -1164
c0 -28 -9.66699 -51.667 -29 -71s-43 -29 -71 -29c-27.333 0 -50.833 9.66699 -70.5 29s-29.5 43 -29.5 71c30.667 449.333 162 827.333 394 1134z" />
    <glyph glyph-name="eight" unicode="8" 
d="M600 800c-83.333 0 -154.166 -29.167 -212.499 -87.5s-87.5 -129.166 -87.5 -212.499c0 -82.667 29.167 -153.334 87.5 -212.001s129.166 -88 212.499 -88c82.667 0 153.334 29.333 212.001 88s88 129.334 88 212.001c0 83.333 -29.333 154.166 -88 212.499
s-129.334 87.5 -212.001 87.5zM600 1200c-27.333 0 -50.833 -9.66699 -70.5 -29s-29.5 -43 -29.5 -71c0 -27.333 9.83301 -50.833 29.5 -70.5s43.167 -29.5 70.5 -29.5c28 0 51.667 9.83301 71 29.5s29 43.167 29 70.5c0 28 -9.66699 51.667 -29 71s-43 29 -71 29zM850 934
c36.667 -21.333 71.333 -48 104 -80c97.333 -98 146 -216 146 -354s-48.833 -255.833 -146.5 -353.5s-215.5 -146.5 -353.5 -146.5s-255.833 48.833 -353.5 146.5s-146.5 215.5 -146.5 353.5s49 256 147 354c32 32 66 58.667 102 80c-32.667 48.667 -49 104 -49 166
c0 83.333 29.167 154.166 87.5 212.499s129.166 87.5 212.499 87.5c82.667 0 153.334 -29.167 212.001 -87.5s88 -129.166 88 -212.499c0 -62 -16.667 -117.333 -50 -166z" />
    <glyph glyph-name="nine" unicode="9" 
d="M600 600c83.333 0 154.166 29.167 212.499 87.5s87.5 129.166 87.5 212.499c0 82.667 -29.167 153.334 -87.5 212.001s-129.166 88 -212.499 88c-82.667 0 -153.334 -29.333 -212.001 -88s-88 -129.334 -88 -212.001c0 -83.333 29.333 -154.166 88 -212.499
s129.334 -87.5 212.001 -87.5zM654 403c-17.333 -2 -35.335 -3.00195 -54.002 -3.00195c-138 0 -255.833 48.667 -353.5 146s-146.5 215.333 -146.5 354c0 138 48.833 255.833 146.5 353.5s215.5 146.5 353.5 146.5c138.667 0 256.667 -48.833 354 -146.5
s146 -215.5 146 -353.5c0 -88.667 -19.667 -168.667 -59 -240l-349 -600c-5.33301 -11.333 -12.666 -21.666 -21.999 -30.999c-19.333 -19.333 -42.666 -29 -69.999 -29c-28 0 -51.667 9.83301 -71 29.5s-29 43.167 -29 70.5c0 18.667 4.33301 35.334 13 50.001z" />
    <glyph glyph-name="colon" unicode=":" horiz-adv-x="401" 
d="M274 174c20 -20 30 -44 30 -72s-10 -52 -30 -72s-44 -30 -72 -30s-52 10 -72 30s-30 44 -30 72s10 52 30 72s44 30 72 30s52 -10 72 -30zM274 974c20 -20 30 -44 30 -72s-10 -52 -30 -72s-44 -30 -72 -30s-52 10 -72 30s-30 44 -30 72s10 52 30 72s44 30 72 30
s52 -10 72 -30z" />
    <glyph glyph-name="semicolon" unicode=";" horiz-adv-x="401" 
d="M230 -57c-20 -20 -44 -30.001 -72 -30.001c-28.667 0 -53 10 -73 30s-30 43.667 -30 71c0 0.666992 0.333008 1.33398 1 2.00098c0 28 9.66699 51.667 29 71l78 78c20 20 44 30 72 30s52 -10 72 -30s30 -44 30 -72c0 -28.667 -10 -52.667 -30 -72zM274 973.999
c20 -20 30 -44 30 -72s-10 -52 -30 -72s-44 -30 -72 -30s-52 10 -72 30s-30 44 -30 72s10 52 30 72s44 30 72 30s52 -10 72 -30z" />
    <glyph glyph-name="semicolon" unicode="&#x37e;" horiz-adv-x="401" 
d="M230 -57c-20 -20 -44 -30.001 -72 -30.001c-28.667 0 -53 10 -73 30s-30 43.667 -30 71c0 0.666992 0.333008 1.33398 1 2.00098c0 28 9.66699 51.667 29 71l78 78c20 20 44 30 72 30s52 -10 72 -30s30 -44 30 -72c0 -28.667 -10 -52.667 -30 -72zM274 973.999
c20 -20 30 -44 30 -72s-10 -52 -30 -72s-44 -30 -72 -30s-52 10 -72 30s-30 44 -30 72s10 52 30 72s44 30 72 30s52 -10 72 -30z" />
    <glyph glyph-name="less" unicode="&#x3c;" horiz-adv-x="801" 
d="M166 605c-13.333 4.66699 -25.667 12.667 -37 24c-19.333 19.333 -29 43 -29 71c0 27.333 9.66699 51 29 71c8 8 16.667 14.333 26 19l400 200c13.333 6.66699 28.333 10 45 10c27.333 0 50.833 -9.83301 70.5 -29.5s29.5 -43.167 29.5 -70.5
c0 -28 -9.66699 -51.667 -29 -71c-12 -11.333 -25 -19.333 -39 -24l-209 -104l221 -111c9.33301 -4.66699 18.333 -11 27 -19c19.333 -20 29 -43.667 29 -71c0 -28 -9.83301 -51.667 -29.5 -71s-43.167 -29 -70.5 -29c-21.333 0 -40 5.33301 -56 16z" />
    <glyph glyph-name="equal" unicode="=" horiz-adv-x="801" 
d="M130 968c20 20 44 30 72 30h400c28 0 52 -10 72 -30s30 -44 30 -72s-10 -52 -30 -72s-44 -30 -72 -30h-400c-28 0 -52 10 -72 30s-30 44 -30 72s10 52 30 72zM130 568c20 20 44 30 72 30h400c28 0 52 -10 72 -30s30 -44 30 -72s-10 -52 -30 -72s-44 -30 -72 -30h-400
c-28 0 -52 10 -72 30s-30 44 -30 72s10 52 30 72z" />
    <glyph glyph-name="greater" unicode="&#x3e;" horiz-adv-x="801" 
d="M634 605c13.333 4.66699 25.667 12.667 37 24c19.333 19.333 29 43 29 71c0 27.333 -9.66699 51 -29 71c-8 8 -16.667 14.333 -26 19l-400 200c-13.333 6.66699 -28.333 10 -45 10c-27.333 0 -50.833 -9.83301 -70.5 -29.5s-29.5 -43.167 -29.5 -70.5
c0 -28 9.66699 -51.667 29 -71c12 -11.333 25 -19.333 39 -24l209 -104l-221 -111c-9.33301 -4.66699 -18.333 -11 -27 -19c-19.333 -20 -29 -43.667 -29 -71c0 -28 9.83301 -51.667 29.5 -71s43.167 -29 70.5 -29c21.333 0 40 5.33301 56 16z" />
    <glyph glyph-name="question" unicode="?" horiz-adv-x="1026" 
d="M619 102c0 -28 -10 -52 -30 -72s-44 -30 -72 -30s-52 10 -72 30s-30 44 -30 72s10 52 30 72s44 30 72 30s52 -10 72 -30s30 -44 30 -72zM100 1017c0 115.333 40.6689 213.832 122.002 295.499s179.666 122.5 294.999 122.5s213.833 -40.833 295.5 -122.5
s122.5 -180.167 122.5 -295.5s-40.667 -213.666 -122 -294.999c-56.667 -56 -121.334 -92.667 -194.001 -110v-110c0 -28 -10 -52 -30 -72s-44 -30 -72 -30c-28.667 0 -52.834 10 -72.501 30s-29.5 44 -29.5 72v200c0 28 9.83301 52 29.5 72s43.834 30 72.501 30
c8.66699 0 16.667 -1 24 -3c50 5.33301 93.333 26.333 130 63c42.667 42 64 93 64 153s-21.333 111.333 -64 154s-94 64 -154 64s-111.167 -21.333 -153.5 -64s-63.5 -94 -63.5 -154v-1c0 -27.333 -9.83301 -50.833 -29.5 -70.5s-43.167 -29.5 -70.5 -29.5
s-50.833 9.83301 -70.5 29.5s-29.5 43.167 -29.5 70.5v1z" />
    <glyph glyph-name="at" unicode="@" horiz-adv-x="1842" 
d="M1113 905c-52 52 -115.001 78.001 -189.001 78.001c-73.333 0 -136 -26 -188 -78s-78 -114.667 -78 -188c0 -74 26 -137.167 78 -189.5s114.667 -78.5 188 -78.5c74 0 137 26.333 189 79c44.667 44 70.334 96 77.001 156v35c0 5.33301 0.333008 10.666 1 15.999
c-4 66 -30 122.667 -78 170zM916.999 -99.999c-225.333 0 -417.834 79.834 -577.501 239.501s-239.5 352.167 -239.5 577.5s79.833 417.833 239.5 577.5s352.167 239.5 577.5 239.5s417.833 -79.833 577.5 -239.5s239.5 -352.167 239.5 -577.5l2 -360
c0 -78.667 -24.667 -141.167 -74 -187.5s-120 -69.5 -212 -69.5c-78.667 0 -141 23 -187 69s-69.333 107.333 -70 184v3c-78.667 -59.333 -168.334 -89 -269.001 -89c-124 0 -229.833 43.833 -317.5 131.5s-131.5 193.5 -131.5 317.5s43.833 229.833 131.5 317.5
s193.5 131.5 317.5 131.5c124.667 0 230.667 -43.667 318 -131c86.667 -86.667 130.334 -191.334 131.001 -314.001v-363c0 -16 5.66699 -31.167 17 -45.5s31.333 -21.5 60 -21.5s49.334 7.16699 62.001 21.5s19 29.5 19 45.5l-1 360c0 168.667 -60 313 -180 433
s-264.333 180 -433 180c-170 0 -314.667 -60 -434 -180s-179 -264.333 -179 -433s59.667 -313 179 -433s264 -180 434 -180c28 0 52 -10 72 -30s30 -44 30 -72s-10 -52 -30 -72s-44 -30 -72 -30z" />
    <glyph glyph-name="A" unicode="A" horiz-adv-x="1603" 
d="M457 400l-165.998 -341.999c-4.66699 -10 -11.334 -19.667 -20.001 -29c-20 -19.333 -43.667 -29 -71 -29c-28 0 -51.667 9.83301 -71 29.5s-29 43.167 -29 70.5c0 19.333 5 36.666 15 51.999l593 1222c4.66699 10.667 11.667 20.667 21 30c19.333 20 43 30 71 30
c27.333 0 51 -10 71 -30c8 -8 14.333 -16.667 19 -26l593 -1222c11.333 -16 17 -34.667 17 -56c0 -27.333 -9.83301 -50.833 -29.5 -70.5s-43.167 -29.5 -70.5 -29.5c-28 0 -51.667 9.66699 -71 29c-8.66699 9.33301 -15.334 19 -20.001 29h-1l-166 342h-685zM1045 600.001
l-245 505l-246 -505h491z" />
    <glyph glyph-name="B" unicode="B" horiz-adv-x="1097" 
d="M202 0c-28 0 -52.002 9.99902 -72.002 29.999s-30 44 -30 72v1230c0 28 10 52 30 72s44 30 72 30l298 1c86.667 0 160.834 -30.667 222.501 -92s92.5 -135.333 92.5 -222c0 -66.667 -18 -126 -54 -178c38 -22 73.667 -50 107 -84c98.667 -98 148 -216.333 148 -355
c0 -139.333 -49.167 -258.166 -147.5 -356.499s-217.166 -147.5 -356.499 -147.5h-310zM499.998 1007c31.333 0 58 11 80 33s33 49 33 81c0 30.667 -11 57.167 -33 79.5s-48.667 33.5 -80 33.5h-196v-227h196zM511.998 200.999c84 0 155.5 29.668 214.5 89.001
s88.5 130.666 88.5 213.999c0 82.667 -29.5 153.667 -88.5 213s-130.5 89 -214.5 89h-208v-605h208z" />
    <glyph glyph-name="C" unicode="C" horiz-adv-x="1399" 
d="M1127 1127l-1 -1.00195c-88.667 69.333 -191.667 104 -309 104c-142 0 -263 -50.167 -363 -150.5s-150 -221.166 -150 -362.499s50 -262.166 150 -362.499s221 -150.5 363 -150.5c117.333 0 220.333 34.667 309 104l1 -1l2 2c20 20 44 30 72 30s52 -10 72 -30
s30 -44 30 -72s-10 -52 -30 -72l-2 -2l1 -1c-129.333 -108 -281 -162 -455 -162c-198 0 -367 70 -507 210s-210 309 -210 507s70 367 210 507s309 210 507 210c174 0 325.667 -54 455 -162l-1 -1l2 -2c20 -20 30 -44 30 -72s-10 -52 -30 -72s-44 -30 -72 -30s-52 10 -72 30z
" />
    <glyph glyph-name="D" unicode="D" horiz-adv-x="1399" 
d="M597 1230l-293 0.00195312v-1026h293c141.333 0 262.166 50.167 362.499 150.5s150.5 221.166 150.5 362.499s-50.167 262.166 -150.5 362.499s-221.166 150.5 -362.499 150.5zM202 0.00195312c-28 0 -52 10 -72 30s-30 44 -30 72v1230c0 28 10 52 30 72s44 30 72 30h395
c198 0 367 -70 507 -210s210 -309 210 -507s-70 -367 -210 -507s-309 -210 -507 -210h-395z" />
    <glyph glyph-name="E" unicode="E" horiz-adv-x="1174" 
d="M100 1332c0 28 10 52 30 72s44 30 72 30h790c28 0 52 -10 72 -30s30 -44 30 -72s-10 -52 -30 -72s-44 -30 -72 -30h-688v-226h298c28 0 52 -10 72 -30s30 -44 30 -72s-10 -52 -30 -72s-44 -30 -72 -30h-298v-596h688c28 0 52 -10 72 -30s30 -44 30 -72s-10 -52 -30 -72
s-44 -30 -72 -30h-790c-28 0 -52 10 -72 30s-30 44 -30 72v1230z" />
    <glyph glyph-name="F" unicode="F" horiz-adv-x="1195" 
d="M100 1332c0 28 10 52 30 72s44 30 72 30h790c28 0 52 -10 72 -30s30 -44 30 -72s-10 -52 -30 -72s-44 -30 -72 -30h-688v-226h298c28 0 52 -10 72 -30s30 -44 30 -72s-10 -52 -30 -72s-44 -30 -72 -30h-298v-698c0 -28 -10 -52 -30 -72s-44 -30 -72 -30s-52 10 -72 30
s-30 44 -30 72v1230z" />
    <glyph glyph-name="G" unicode="G" horiz-adv-x="1624" 
d="M1127 1127l-1 -1.00293c-88.667 69.333 -191.667 104 -309 104c-142 0 -263 -50.167 -363 -150.5s-150 -221.166 -150 -362.499s50 -262.166 150 -362.499s221 -150.5 363 -150.5c141.333 0 262.333 50.333 363 151c92.667 92.667 139 169.667 139 231
c0 4.66699 -0.333008 9.33398 -1 14.001h-285c-28 0 -52 10 -72 30s-30 44 -30 72s10 52 30 72s44 30 72 30h400c28 0 52 -10 72 -30s30 -44 30 -72c-0.666992 -188 -71 -352 -211 -492s-309 -210 -507 -210s-367 70 -507 210s-210 309 -210 507s70 367 210 507
s309 210 507 210c174 0 325.667 -54 455 -162l-1 -1l2 -2c20 -20 30 -44 30 -72s-10 -52 -30 -72s-44 -30 -72 -30s-52 10 -72 30z" />
    <glyph glyph-name="H" unicode="H" horiz-adv-x="1399" 
d="M100 1332c0 28 10 52 30 72s44 30 72 30s52 -10 72 -30s30 -44 30 -72v-328h796v328c0 28 10 52 30 72s44 30 72 30s52 -10 72 -30s30 -44 30 -72v-1230c0 -28 -10 -52 -30 -72s-44 -30 -72 -30s-52 10 -72 30s-30 44 -30 72v698h-796v-698c0 -28 -10 -52 -30 -72
s-44 -30 -72 -30s-52 10 -72 30s-30 44 -30 72v1230z" />
    <glyph glyph-name="I" unicode="I" horiz-adv-x="401" 
d="M274 1404c20 -20 30 -44 30 -72v-1230c0 -28 -10 -52 -30 -72s-44 -30 -72 -30s-52 10 -72 30s-30 44 -30 72v1230c0 28 10 52 30 72s44 30 72 30s52 -10 72 -30z" />
    <glyph glyph-name="J" unicode="J" horiz-adv-x="401" 
d="M-411 -196c140.667 0.666992 261 51 361 151s150 220.667 150 362v1015c0 28 10 52 30 72s44 30 72 30s52 -10 72 -30s30 -44 30 -72v-1015c0 -198 -70 -367 -210 -507c-139.333 -139.333 -307.333 -209.333 -504 -210h-1c-28 0 -52 10 -72 30s-30 44 -30 72s10 52 30 72
s44 30 72 30z" />
    <glyph glyph-name="K" unicode="K" horiz-adv-x="1300" 
d="M304 572v-470.001c0 -28 -10 -52 -30 -72s-44 -30 -72 -30s-52 10 -72 30s-30 44 -30 72v1230c0 28 10 52 30 72s44 30 72 30s52 -10 72 -30s30 -44 30 -72v-502l727 576c18.667 18.667 41.667 28 69 28s50.833 -9.83301 70.5 -29.5s29.5 -43.167 29.5 -70.5
c0 -28 -9.66699 -51.667 -29 -71c-5.33301 -5.33301 -11 -9.66602 -17 -12.999l-690 -548l696 -522l11 -9c19.333 -20 29 -43.667 29 -71c0 -28 -9.83301 -51.667 -29.5 -71s-43.167 -29 -70.5 -29c-26 0 -48.333 8.66699 -67 26z" />
    <glyph glyph-name="L" unicode="L" 
d="M100 102v1230c0 28 10 52 30 72s44 30 72 30s52 -10 72 -30s30 -44 30 -72v-1128h688c28 0 52 -10 72 -30s30 -44 30 -72s-10 -52 -30 -72s-44 -30 -72 -30h-790c-28 0 -52 10 -72 30s-30 44 -30 72z" />
    <glyph glyph-name="M" unicode="M" horiz-adv-x="1603" 
d="M304 1108l-0.00292969 -1006c0 -28 -10 -52 -30 -72s-44 -30 -72 -30s-52 10 -72 30s-30 44 -30 72v1230c0 28 10 52 30 72s44 30 72 30s52 -10 72 -30c3.33301 -3.33301 6.33301 -7 9 -11l517 -460l533 475l1 -1c18.667 18 41.334 27 68.001 27c28 0 52 -10 72 -30
s30 -44 30 -72v-1230c0 -28 -10 -52 -30 -72s-44 -30 -72 -30s-52 10 -72 30s-30 44 -30 72v1009l-433 -386c-19.333 -16.667 -41.666 -25 -66.999 -25c-27.333 0 -192.666 136 -495.999 408z" />
    <glyph glyph-name="N" unicode="N" horiz-adv-x="1399" 
d="M304 1046l0.000976562 -944c0 -28 -10 -52 -30 -72s-44 -30 -72 -30s-52 10 -72 30s-30 44 -30 72v1230c0 28 10 52 30 72s44 30 72 30s52 -10 72 -30c8 -8 14.333 -16.667 19 -26l807 -996v950c0 28 10 52 30 72s44 30 72 30s52 -10 72 -30s30 -44 30 -72v-1230
c0 -28 -10 -52 -30 -72s-44 -30 -72 -30s-52 10 -72 30c-2.66699 2.66699 -5.33398 5 -8.00098 7z" />
    <glyph glyph-name="O" unicode="O" horiz-adv-x="1624" 
d="M1324 1224c140 -140 210 -309 210 -507s-70 -367 -210 -507s-309 -210 -507 -210s-367 70 -507 210s-210 309 -210 507s70 367 210 507s309 210 507 210s367 -70 507 -210zM817 1230c-142 0 -263 -50.167 -363 -150.5s-150 -221.166 -150 -362.499
s50 -262.166 150 -362.499s221 -150.5 363 -150.5c141.333 0 262.166 50.167 362.499 150.5s150.5 221.166 150.5 362.499s-50.167 262.166 -150.5 362.499s-221.166 150.5 -362.499 150.5z" />
    <glyph glyph-name="P" unicode="P" horiz-adv-x="1111" 
d="M612 1234l-308 0.000976562v-433h308c60 0 111.167 21.167 153.5 63.5s63.5 93.5 63.5 153.5c0 59.333 -21.167 110.166 -63.5 152.499s-93.5 63.5 -153.5 63.5zM304 600.001v-498.001c0 -28 -10 -52 -30 -72s-44 -30 -72 -30s-52 10 -72 30s-30 44 -30 72v1230
c0 28 10 52 30 72s44 30 72 30l410 1c115.333 0 213.833 -40.667 295.5 -122s122.5 -179.666 122.5 -294.999s-40.833 -213.833 -122.5 -295.5s-180.167 -122.5 -295.5 -122.5h-308z" />
    <glyph glyph-name="Q" unicode="Q" horiz-adv-x="1614" 
d="M1225 406c70 89.333 104.999 192.999 104.999 310.999c0 141.333 -50.167 262.166 -150.5 362.499s-221.166 150.5 -362.499 150.5c-142 0 -263 -50.167 -363 -150.5s-150 -221.166 -150 -362.499s50 -262.166 150 -362.499s221 -150.5 363 -150.5
c93.333 0 178 22 254 66l-42 42c-19.333 20 -29 44.333 -29 73c0 28 9.66699 52 29 72c20 19.333 44.333 29 73 29c28 0 52 -9.66699 72 -29zM1219 121.999c-117.333 -81.333 -251.333 -122 -402 -122c-198 0 -367 70 -507 210s-210 309 -210 507s70 367 210 507
s309 210 507 210s367 -70 507 -210s210 -309 210 -507c0 -174.667 -54.667 -326.667 -164 -456l87 -87c19.333 -20 29 -44 29 -72c0 -28.667 -9.66699 -53 -29 -73c-20 -19.333 -44 -29 -72 -29c-28.667 0 -53 9.66699 -73 29z" />
    <glyph glyph-name="R" unicode="R" horiz-adv-x="1283" 
d="M612 1234l-308 0.000976562v-433h308c60 0 111.167 21.167 153.5 63.5s63.5 93.5 63.5 153.5c0 59.333 -21.167 110.166 -63.5 152.499s-93.5 63.5 -153.5 63.5zM688 606.001c-24.667 -4 -50.001 -6.00293 -76.001 -6.00293h-308v-498c0 -28 -10 -52 -30 -72
s-44 -30 -72 -30s-52 10 -72 30s-30 44 -30 72v1230c0 28 10 52 30 72s44 30 72 30l410 1c115.333 0 213.833 -40.667 295.5 -122s122.5 -179.666 122.5 -294.999s-40.667 -213.666 -122 -294.999c-11.333 -11.333 -22.333 -21.333 -33 -30l311 -540
c9.33301 -16 14 -32.333 14 -49c0 -9.33301 -1.33301 -18.666 -4 -27.999c-7.33301 -27.333 -23.333 -48 -48 -62c-16 -9.33301 -32.333 -14 -49 -14c-9.33301 0 -18.666 1.33301 -27.999 4c-27.333 7.33301 -48 23 -62 47z" />
    <glyph glyph-name="S" unicode="S" 
d="M100 500c0 27.333 9.66895 50.832 29.002 70.499s43 29.5 71 29.5c27.333 0 50.833 -9.83301 70.5 -29.5s29.5 -43.167 29.5 -70.5c0 -82.667 29.167 -153.334 87.5 -212.001s129.166 -88 212.499 -88c82.667 0 153.334 29.333 212.001 88s88 129.334 88 212.001
s-29.333 153.334 -88 212.001s-129.334 88 -212.001 88c-87.333 0 -161.666 30.833 -222.999 92.5s-92 135.834 -92 222.501c0 87.333 30.667 161.666 92 222.999s135.666 92 222.999 92c80.667 0 150.667 -26.667 210 -80l11 -9c19.333 -20 29 -43.667 29 -71
c0 -28 -9.83301 -51.667 -29.5 -71s-43.167 -29 -70.5 -29c-28 0 -51.667 9.66699 -71 29l-7 7l-1 -1c-20.667 16.667 -44.334 25 -71.001 25c-32 0 -59.167 -11.167 -81.5 -33.5s-33.5 -49.5 -33.5 -81.5s11.167 -59.167 33.5 -81.5s49.5 -33.5 81.5 -33.5
c138 0 255.833 -48.833 353.5 -146.5s146.5 -215.5 146.5 -353.5s-48.833 -255.833 -146.5 -353.5s-215.5 -146.5 -353.5 -146.5c-138.667 -0 -256.667 48.833 -354 146.5s-146 215.5 -146 353.5z" />
    <glyph glyph-name="T" unicode="T" 
d="M704 1234v-1132c0 -28 -10 -52 -30 -72s-44 -30 -72 -30s-52 10 -72 30s-30 44 -30 72v1132h-298c-28 0 -52 10 -72 30s-30 44 -30 72s10 52 30 72s44 30 72 30h796c28 0 52 -10 72 -30s30 -44 30 -72s-10 -52 -30 -72s-44 -30 -72 -30h-294z" />
    <glyph glyph-name="U" unicode="U" 
d="M593 0c-140.667 8 -256.332 57.333 -346.999 148c-96 96 -144.667 212 -146 348v836c0 32 10 57 30 75s44 27 72 27s52 -9 72 -27s30 -42.333 30 -73v-836c0 -6 -0.333008 -12 -1 -18c4 -73.333 32.667 -136.333 86 -189c58 -58 128 -87 210 -87h4c82 0 152 29 210 87
c53.333 52.667 82 115.667 86 189c-0.666992 6 -1 12 -1 18v836c0 30.667 10 55 30 73s44 27 72 27s52 -9 72 -27s30 -43 30 -75v-836c-1.33301 -136 -50 -252 -146 -348c-90.667 -90.667 -206.334 -140 -347.001 -148h-16z" />
    <glyph glyph-name="V" unicode="V" horiz-adv-x="1603" 
d="M115 1282c-10 15.333 -15.002 32.667 -15.002 52c0 27.333 9.66699 50.833 29 70.5s43 29.5 71 29.5c27.333 0 51 -9.66699 71 -29c8.66699 -9.33301 15.334 -19 20.001 -29l509 -1047l508 1047h1c4.66699 10 11.334 19.667 20.001 29c19.333 19.333 43 29 71 29
c27.333 0 50.833 -9.83301 70.5 -29.5s29.5 -43.167 29.5 -70.5c0 -21.333 -5.66699 -40 -17 -56l-593 -1222c-4.66699 -9.33301 -11 -18 -19 -26c-20 -20 -43.667 -30 -71 -30c-28 0 -51.667 10 -71 30c-9.33301 9.33301 -16.333 19.333 -21 30z" />
    <glyph glyph-name="W" unicode="W" horiz-adv-x="2200" 
d="M108 1293c-5.33301 12.667 -7.99805 26.333 -7.99805 41c0 27.333 9.83301 50.833 29.5 70.5s43.167 29.5 70.5 29.5s51 -9.66699 71 -29c9.33301 -10 16.666 -21 21.999 -33l417 -1030l295 590c4.66699 14 13 27 25 39c19.333 19.333 42.666 29 69.999 29
s51 -9.66699 71 -29c8 -8.66699 14.333 -17.667 19 -27l300 -600l417 1028c5.33301 12 13 23 23 33c19.333 19.333 42.666 29 69.999 29s50.833 -9.83301 70.5 -29.5s29.5 -43.167 29.5 -70.5c0 -14.667 -2.66699 -28.334 -8 -41.001l-498 -1227
c-4.66699 -13.333 -12.334 -25.333 -23.001 -36c-20 -20 -43.667 -30 -71 -30s-50.666 10 -69.999 30c-10.667 10 -18.334 21.333 -23.001 34l-306 612l-311 -621c-5.33301 -9.33301 -11.666 -17.666 -18.999 -24.999c-20 -20 -43.667 -30 -71 -30s-50.666 10 -69.999 30
c-11.333 10.667 -19.333 22.667 -24 36z" />
    <glyph glyph-name="X" unicode="X" horiz-adv-x="1399" 
d="M100 1334c0 27.333 9.83301 50.834 29.5 70.501s43.167 29.5 70.5 29.5s51 -9.66699 71 -29c2 -2.66699 4.33301 -5.33398 7 -8.00098l422 -521l418 516c3.33301 4.66699 7 9 11 13c19.333 19.333 43 29 71 29c27.333 0 50.833 -9.66699 70.5 -29s29.5 -43 29.5 -71
c0 -24 -7.33301 -45 -22 -63l-449 -554l449 -554c14.667 -18 22 -39 22 -63c0 -27.333 -9.83301 -50.833 -29.5 -70.5s-43.167 -29.5 -70.5 -29.5c-28 0 -51.667 10 -71 30c-2.66699 2 -5 4.33301 -7 7l-422 521l-422 -521l-7 -7c-20 -20 -43.667 -30 -71 -30
c-28 -0 -51.667 9.83301 -71 29.5s-29 43.167 -29 70.5c0 28 9.66699 51.667 29 71l2 2l440 544l-449 554c-14.667 18 -22 39 -22 63z" />
    <glyph glyph-name="Y" unicode="Y" 
d="M100 1334c0 27.333 9.83398 50.833 29.501 70.5s43.167 29.5 70.5 29.5c28 0 51.667 -9.66699 71 -29c8 -8 14.333 -16.667 19 -26l310 -453l317 464c4 5.33301 8.33301 10.333 13 15c19.333 19.333 42.666 29 69.999 29c28 0 51.667 -9.83301 71 -29.5
s29 -43.167 29 -70.5c0 -25.333 -8 -47 -24 -65l-376 -550v-619c0 -28 -9.66699 -51.667 -29 -71s-43 -29 -71 -29c-27.333 0 -50.833 9.66699 -70.5 29s-29.5 43 -29.5 71v618l-383 559c-11.333 16.667 -17 35.667 -17 57z" />
    <glyph glyph-name="Z" unicode="Z" 
d="M816 1234h-566c-27.333 0 -50.833 9.83301 -70.5 29.5s-29.5 43.167 -29.5 70.5c0 28 9.83301 51.667 29.5 71s43.167 29 70.5 29h750c28 0 51.667 -9.66699 71 -29s29 -43 29 -71c0 -25.333 -6.66699 -48.333 -20 -69l-697 -1065h617c28 0 51.667 -9.66699 71 -29
s29 -43 29 -71c0 -27.333 -9.66699 -50.833 -29 -70.5s-43 -29.5 -71 -29.5h-800c-27.333 -0 -50.833 9.83301 -70.5 29.5s-29.5 43.167 -29.5 70.5c0 20 5 38 15 54z" />
    <glyph glyph-name="bracketleft" unicode="[" horiz-adv-x="597" 
d="M304 -46h88c28 0 52 -10 72 -30s30 -44 30 -72s-10 -52 -30 -72s-44 -30 -72 -30h-190c-28 0 -52 10 -72 30s-30 44 -30 72v1730c0 28 10 52 30 72s44 30 72 30h190c28 0 52 -10 72 -30s30 -44 30 -72s-10 -52 -30 -72s-44 -30 -72 -30h-88v-1526z" />
    <glyph glyph-name="backslash" unicode="\" horiz-adv-x="998" 
d="M51 1484c16 9.33301 32.667 13.999 50 13.999c9.33301 0 18.666 -1.33301 27.999 -4c27.333 -7.33301 48 -23.333 62 -48l795 -1377c9.33301 -16 14 -32.333 14 -49c0 -9.33301 -1.33301 -18.666 -4 -27.999c-7.33301 -27.333 -23.333 -48 -48 -62
c-16 -9.33301 -32.333 -14 -49 -14c-9.33301 0 -18.666 1.33301 -27.999 4c-27.333 7.33301 -48 23 -62 47l-795 1377c-9.33301 16 -14 32.667 -14 50c-0 9.33301 1.33301 18.666 4 27.999c7.33301 26.667 23 47.334 47 62.001z" />
    <glyph glyph-name="bracketright" unicode="]" horiz-adv-x="597" 
d="M296 -46h-88c-28 0 -52 -10 -72 -30s-30 -44 -30 -72s10 -52 30 -72s44 -30 72 -30h190c28 0 52 10 72 30s30 44 30 72v1730c0 28 -10 52 -30 72s-44 30 -72 30h-190c-28 0 -52 -10 -72 -30s-30 -44 -30 -72s10 -52 30 -72s44 -30 72 -30h88v-1526z" />
    <glyph glyph-name="asciicircum" unicode="^" horiz-adv-x="1097" 
d="M545 1113l-258.998 -370c-16 -22.667 -38 -36.334 -66 -41.001c-6.66699 -1.33301 -13.334 -2 -20.001 -2c-20 0 -38.667 6 -56 18c-23.333 16 -37.333 38 -42 66c-1.33301 6 -2 12.333 -2 19c0 20.667 6.33301 39.667 19 57l326 473c10.667 18 24 32.667 40 44
c17.333 12 36.333 18 57 18h6c20.667 0 39.667 -6 57 -18c16 -11.333 29.333 -26 40 -44l326 -473c12.667 -17.333 19 -36.333 19 -57c0 -6.66699 -0.666992 -13 -2 -19c-4.66699 -28 -18.667 -50 -42 -66c-17.333 -12 -36 -18 -56 -18
c-6.66699 0 -13.334 0.666992 -20.001 2c-28 4.66699 -50 18.334 -66 41.001z" />
    <glyph glyph-name="underscore" unicode="_" horiz-adv-x="998" 
d="M-70 -126c20 20 44 30 72 30h990c28 0 52 -10 72 -30s30 -44 30 -72s-10 -52 -30 -72s-44 -30 -72 -30h-990c-28 0 -52 10 -72 30s-30 44 -30 72s10 52 30 72z" />
    <glyph glyph-name="grave" unicode="`" horiz-adv-x="682" 
d="M152 1199c-24.667 14 -40.6689 34.667 -48.002 62c-2.66699 9.33301 -4 18.666 -4 27.999c0 16.667 4.66699 33 14 49c14.667 24.667 35.334 40.667 62.001 48c9.33301 2 18.333 3 27 3c17.333 0 34.333 -4.66699 51 -14l268 -155c24.667 -14 40.667 -34.333 48 -61
c2.66699 -9.33301 4 -18.666 4 -27.999c0 -17.333 -4.66699 -34 -14 -50c-14 -24 -34.667 -39.667 -62 -47c-9.33301 -2.66699 -18.666 -4 -27.999 -4c-17.333 0 -34 4.66699 -50 14z" />
    <glyph glyph-name="a" unicode="a" 
d="M809 709c-58 58 -127.999 87 -209.999 87s-151.833 -28.833 -209.5 -86.5s-86.5 -127.5 -86.5 -209.5s28.833 -152 86.5 -210s127.5 -87 209.5 -87s152 29 210 87c49.333 49.333 77.666 107.333 84.999 174v38c0 6 0.333008 12 1 18c-4 73.333 -32.667 136.333 -86 189z
M1098 98c0 -38.667 -10.001 -64.666 -30.001 -77.999s-44 -20 -72 -20s-52 6.66699 -72 20s-30 38.666 -30 75.999c-85.333 -64 -183.666 -96 -294.999 -96c-138 0 -255.667 48.667 -353 146s-146 215 -146 353s48.667 255.667 146 353s215 146 353 146
s255.667 -48.667 353 -146c96 -96 144.667 -212 146 -348v-406z" />
    <glyph glyph-name="b" unicode="b" 
d="M389 289c58 -58 127.999 -87 209.999 -87s151.833 28.833 209.5 86.5s86.5 127.5 86.5 209.5s-28.833 152 -86.5 210s-127.5 87 -209.5 87s-152 -29 -210 -87c-49.333 -49.333 -77.666 -107.333 -84.999 -174v-38c0 -6 -0.333008 -12 -1 -18
c4 -73.333 32.667 -136.333 86 -189zM99.999 1196c0 28 10.001 52 30.001 72s44 30 72 30s52 -10 72 -30s30 -44 30 -72v-294c85.333 64 183.666 96 294.999 96c138 0 255.667 -48.667 353 -146s146 -215 146 -353s-48.667 -255.667 -146 -353s-215 -146 -353 -146
s-255.667 48.667 -353 146c-96 96 -144.667 212 -146 348v702z" />
    <glyph glyph-name="c" unicode="c" horiz-adv-x="1097" 
d="M950 852c0 -0.666992 0.333008 -1 1 -1c19.333 -19.333 29 -43 29 -71c0 -27.333 -9.83301 -50.833 -29.5 -70.5s-43.167 -29.5 -70.5 -29.5c-28 0 -51.667 10 -71 30h-1c-57.333 57.333 -127 86 -209 86s-152 -28.833 -210 -86.5s-87 -127.5 -87 -209.5s29 -152 87 -210
s128 -87 210 -87c81.333 0 151 28.667 209 86l2 2c19.333 19.333 43 29 71 29s52 -9.83301 72 -29.5s30 -43.5 30 -71.5s-10 -52 -30 -72l-2 -2c-96.667 -96.667 -214 -145 -352 -145s-255.667 48.667 -353 146s-146 215 -146 353s48.667 255.667 146 353s215 146 353 146
s255.333 -48.333 352 -145z" />
    <glyph glyph-name="d" unicode="d" 
d="M895 478c-0.666992 6 -1.00098 12 -1.00098 18v38c-7.33301 66.667 -35.666 124.667 -84.999 174c-58 58 -128 87 -210 87s-151.833 -29 -209.5 -87s-86.5 -128 -86.5 -210s28.833 -151.833 86.5 -209.5s127.5 -86.5 209.5 -86.5s152 29 210 87
c53.333 52.667 82 115.667 86 189zM1098 494c-1.33301 -136 -49.999 -252 -145.999 -348c-97.333 -97.333 -215 -146 -353 -146s-255.667 48.667 -353 146s-146 215 -146 353s48.667 255.667 146 353s215 146 353 146c111.333 0 209.666 -32 294.999 -96v294
c0 28 10 52 30 72s44 30 72 30s52 -10 72 -30s30 -44 30 -72v-702z" />
    <glyph glyph-name="e" unicode="e" horiz-adv-x="1097" 
d="M720 771c-36.667 16.667 -77 24.999 -121 24.999c-82 0 -152 -28.833 -210 -86.5s-87 -127.5 -87 -209.5s29 -152 87 -210s128 -87 210 -87c81.333 0 151 28.667 209 86l2 2c19.333 19.333 43 29 71 29s52 -9.83301 72 -29.5s30 -43.5 30 -71.5s-10 -52 -30 -72l-2 -2
c-96.667 -96.667 -214 -145 -352 -145s-255.667 48.667 -353 146s-146 215 -146 353s48.667 255.667 146 353s215 146 353 146s255.333 -48.333 352 -145l-1 -1c0 -0.666992 0.333008 -1 1 -1c19.333 -19.333 29 -43 29 -71c0 -27.333 -9.66699 -50.666 -29 -69.999
l-286 -284c-20 -19.333 -44 -29 -72 -29c-28.667 0 -53 9.66699 -73 29c-19.333 20 -29 44.333 -29 73c0 28 9.66699 52 29 72z" />
    <glyph glyph-name="f" unicode="f" horiz-adv-x="801" 
d="M300 1002v148c0 68.667 24.333 127.5 73 176.5s107.667 73.5 177 73.5c27.333 0 50.833 -9.66699 70.5 -29s29.5 -43 29.5 -71c0 -27.333 -9.83301 -50.833 -29.5 -70.5s-43.167 -29.5 -70.5 -29.5c-14 0 -25.833 -5 -35.5 -15s-14.5 -21.667 -14.5 -35v-148h115
c28 0 52 -10 72 -30s30 -44 30 -72s-10 -52 -30 -72s-44 -30 -72 -30h-111v-696c0 -28 -10 -52 -30 -72s-44 -30 -72 -30s-52 10 -72 30s-30 44 -30 72v696h-115c-28 0 -52 10 -72 30s-30 44 -30 72s10 52 30 72s44 30 72 30h115z" />
    <glyph glyph-name="g" unicode="g" 
d="M599 796c-82 0 -152 -28.833 -210 -86.5s-87 -127.5 -87 -209.5s29 -152 87 -210s128 -87 210 -87s151.833 29 209.5 87s86.5 128 86.5 210s-28.833 151.833 -86.5 209.5s-127.5 86.5 -209.5 86.5zM895 96c-85.333 -64 -184.002 -96.002 -296.002 -96.002
c-138 0 -255.667 48.667 -353 146s-146 215 -146 353s48.667 255.667 146 353s215 146 353 146s255.667 -48.667 353 -146s146 -214.666 146 -351.999h1v-398c0 -5.33301 -0.333008 -10.666 -1 -15.999c-3.33301 -132.667 -52 -246 -146 -340
c-97.333 -97.333 -215 -146 -353 -146h-4c-28 0 -52 10 -72 30s-30 44 -30 72s10 52 30 72s44 30 72 30c4.66699 0 9.33398 -0.333008 14.001 -1c77.333 2.66699 144 31.667 200 87c56.667 57.333 85.334 126 86.001 206z" />
    <glyph glyph-name="h" unicode="h" 
d="M100 1192c0 28 9.99902 51.999 29.999 71.999s44 30 72 30s52 -10 72 -30s30 -44 30 -72v-290c80.667 58.667 177 91.334 289 98.001h16c140.667 -8 256.334 -57.333 347.001 -148c96 -96 144.667 -212 146 -348v-406c0 -32 -10 -56.333 -30 -73s-44 -25 -72 -25
s-52 8.33301 -72 25s-30 40.334 -30 71.001v406c0 6 0.333008 12 1 18c-4 73.333 -32.667 136.333 -86 189c-58 58 -128 87 -210 87h-4c-82 0 -152 -29 -210 -87c-50 -49.333 -78.333 -108 -85 -176v-437c0 -30.667 -10 -54.334 -30 -71.001s-44 -25 -72 -25
s-52 8.33301 -72 25s-30 41 -30 73v1094z" />
    <glyph glyph-name="i" unicode="i" horiz-adv-x="401" 
d="M202 1098c-28 0 -52 10 -72 30s-30 44 -30 72s10 52 30 72s44 30 72 30s52 -10 72 -30s30 -44 30 -72s-10 -52 -30 -72s-44 -30 -72 -30zM202 0c-28 0 -52 10 -72 30s-30 44 -30 72v800c0 28 10 52 30 72s44 30 72 30s52 -10 72 -30s30 -44 30 -72v-800
c0 -28 -10 -52 -30 -72s-44 -30 -72 -30z" />
    <glyph glyph-name="j" unicode="j" horiz-adv-x="401" 
d="M202 1098c-28 0 -52 10 -72 30s-30 44 -30 72s10 52 30 72s44 30 72 30s52 -10 72 -30s30 -44 30 -72s-10 -52 -30 -72s-44 -30 -72 -30zM-186 -197c77.333 2.66699 143.999 31.666 199.999 86.999c57.333 58 86 128 86 210v802c0 28 10 52 30 72s44 30 72 30
s52 -10 72 -30s30 -44 30 -72v-800c0 -5.33301 -0.333008 -10.666 -1 -15.999c-3.33301 -132.667 -52 -246 -146 -340c-97.333 -97.333 -215 -146 -353 -146h-4c-28 0 -52 10 -72 30s-30 44 -30 72s10 52 30 72s44 30 72 30c4.66699 0 9.33398 -0.333008 14.001 -1z" />
    <glyph glyph-name="k" unicode="k" horiz-adv-x="998" 
d="M304 367l-0.000976562 -265c0 -28 -10 -52 -30 -72s-44 -30 -72 -30s-52 10 -72 30s-30 44 -30 72v1090c0 28 10 52 30 72s44 30 72 30s52 -10 72 -30s30 -44 30 -72v-560l433 346c18 14.667 39 22 63 22c28 0 51.667 -9.83301 71 -29.5s29 -43.167 29 -70.5
c0 -28 -9.66699 -51.667 -29 -71c-6 -6 -12.333 -11 -19 -15l-390 -312l404 -323l-2 -2c2.66699 -2 5 -4 7 -6c19.333 -20 29 -43.667 29 -71c0 -28 -9.66699 -51.667 -29 -71s-43 -29 -71 -29c-23.333 0 -43.666 7 -60.999 21l-1 -1z" />
    <glyph glyph-name="l" unicode="l" horiz-adv-x="401" 
d="M274 1264c20 -20 30 -44 30 -72v-1090c0 -28 -10 -52 -30 -72s-44 -30 -72 -30s-52 10 -72 30s-30 44 -30 72v1090c0 28 10 52 30 72s44 30 72 30s52 -10 72 -30z" />
    <glyph glyph-name="m" unicode="m" horiz-adv-x="2003" 
d="M1000 0c-28 0 -52.0039 10 -72.0039 30s-30 48.667 -30 86v386c0 6 0.333008 12 1 18c-4 73.333 -32.667 136.333 -86 189c-58 58 -128 87 -210 87h-4c-82 0 -152 -29 -210 -87c-53.333 -52.667 -82 -115.667 -86 -189c0.666992 -6 1 -12 1 -18v-386
c0 -37.333 -10 -66 -30 -86s-44 -30 -72 -30s-52 10 -72 30s-30 49.333 -30 88v386c1.33301 136 50 252 146 348c90.667 90.667 206.334 140 347.001 148h16c140.667 -8 256.334 -57.333 347.001 -148c16.667 -16.667 31.667 -33.667 45 -51
c13.333 17.333 28.333 34.333 45 51c90.667 90.667 206.334 140 347.001 148h16c140.667 -8 256.334 -57.333 347.001 -148c96 -96 144.667 -212 146 -348v-386c0 -38.667 -10 -68 -30 -88s-44 -30 -72 -30s-52 10 -72 30s-30 48.667 -30 86v386c0 6 0.333008 12 1 18
c-4 73.333 -32.667 136.333 -86 189c-58 58 -128 87 -210 87h-4c-82 0 -152 -29 -210 -87c-53.333 -52.667 -82 -115.667 -86 -189c0.666992 -6 1 -12 1 -18v-386c0 -37.333 -10 -66 -30 -86s-44 -30 -72 -30h-2z" />
    <glyph glyph-name="n" unicode="n" 
d="M609 1000c140.667 -8 256.332 -57.333 346.999 -148c96 -96 144.667 -212 146 -348v-386c0 -38.667 -10 -68 -30 -88s-44 -30 -72 -30s-52 10 -72 30s-30 48.667 -30 86v386c0 6 0.333008 12 1 18c-4 73.333 -32.667 136.333 -86 189c-58 58 -128 87 -210 87h-4
c-82 0 -152 -29 -210 -87c-53.333 -52.667 -82 -115.667 -86 -189c0.666992 -6 1 -12 1 -18v-386c0 -37.333 -10 -66 -30 -86s-44 -30 -72 -30s-52 10 -72 30s-30 49.333 -30 88v386c1.33301 136 50 252 146 348c90.667 90.667 206.334 140 347.001 148h16z" />
    <glyph glyph-name="o" unicode="o" 
d="M952 852c97.333 -97.333 146 -215 146 -353s-48.667 -255.667 -146 -353s-215 -146 -353 -146s-255.667 48.667 -353 146s-146 215 -146 353s48.667 255.667 146 353s215 146 353 146s255.667 -48.667 353 -146zM599 796c-82 0 -152 -28.833 -210 -86.5
s-87 -127.5 -87 -209.5s29 -152 87 -210s128 -87 210 -87s151.833 29 209.5 87s86.5 128 86.5 210s-28.833 151.833 -86.5 209.5s-127.5 86.5 -209.5 86.5z" />
    <glyph glyph-name="p" unicode="p" 
d="M303 520c0.666992 -6 1.00098 -12.001 1.00098 -18.001v-38c7.33301 -66.667 35.666 -124.667 84.999 -174c58 -58 128 -87 210 -87s151.833 29 209.5 87s86.5 128 86.5 210s-28.833 151.833 -86.5 209.5s-127.5 86.5 -209.5 86.5s-152 -28.667 -210 -86
c-53.333 -53.333 -82 -116.666 -86 -189.999zM100.001 503.999c1.33301 136 49.999 252 145.999 348c97.333 97.333 215 146 353 146s255.667 -48.667 353 -146s146 -215 146 -353s-48.667 -255.667 -146 -353s-215 -146 -353 -146c-111.333 0 -209.666 32 -294.999 96v-394
c0 -28 -10 -52 -30 -72s-44 -30 -72 -30s-52 10 -72 30s-30 44 -30 72v802z" />
    <glyph glyph-name="q" unicode="q" 
d="M894 96c-84.667 -64 -183.001 -96 -295.001 -96c-138 0 -255.667 48.667 -353 146s-146 215 -146 353s48.667 255.667 146 353s215 146 353 146s255.667 -48.667 353 -146s146 -214.666 146 -351.999v-400c0 -82 28.667 -152 86 -210c56 -55.333 122.667 -84.333 200 -87
c4.66699 0.666992 9.33398 1 14.001 1c28 0 52 -10 72 -30s30 -44 30 -72s-10 -52 -30 -72s-44 -30 -72 -30h-4c-138 0 -255.667 48.667 -353 146c-94 94 -142.667 207.333 -146 340c-0.666992 3.33301 -1 6.66602 -1 9.99902zM893.999 474l0.000976562 26h1
c0 82 -28.833 151.833 -86.5 209.5s-127.5 86.5 -209.5 86.5s-152 -28.833 -210 -86.5s-87 -127.5 -87 -209.5s29 -152 87 -210s128 -87 210 -87s152 29 210 87c51.333 52 79.666 113.333 84.999 184z" />
    <glyph glyph-name="r" unicode="r" horiz-adv-x="801" 
d="M600 1000c28 0 52 -10 72 -30s30 -44 30 -72s-10 -52 -30 -72s-44 -30 -72 -30h-1c-82 0 -152 -29 -210 -87c-53.333 -52.667 -82 -115.667 -86 -189c0.666992 -6 1 -12 1 -18v-386c0 -37.333 -10 -66 -30 -86s-44 -30 -72 -30s-52 10 -72 30s-30 49.333 -30 88v386
c1.33301 136 50 252 146 348c92 92 210 141.333 354 148z" />
    <glyph glyph-name="s" unicode="s" horiz-adv-x="900" 
d="M450 1000c28 0 51.668 -9.66602 71.001 -28.999s29 -43 29 -71c0 -27.333 -9.66699 -50.833 -29 -70.5s-43 -29.5 -71 -29.5c-14 0 -25.833 -4.83301 -35.5 -14.5s-14.5 -21.5 -14.5 -35.5s4.83301 -25.833 14.5 -35.5s21.5 -14.5 35.5 -14.5
c96.667 0 179.167 -34.167 247.5 -102.5s102.5 -150.833 102.5 -247.5s-34.167 -179.167 -102.5 -247.5s-150.833 -102.5 -247.5 -102.5s-179.167 34.167 -247.5 102.5s-102.5 150.833 -102.5 247.5c0 28 9.83301 51.667 29.5 71s43.167 29 70.5 29
c28 0 51.667 -9.66699 71 -29s29 -43 29 -71c0 -41.333 14.667 -76.666 44 -105.999s64.666 -44 105.999 -44s76.666 14.667 105.999 44s44 64.666 44 105.999s-14.667 76.666 -44 105.999s-64.666 44 -105.999 44c-69.333 0 -128.333 24.5 -177 73.5s-73 107.833 -73 176.5
c0 69.333 24.333 128.333 73 177s107.667 73 177 73z" />
    <glyph glyph-name="t" unicode="t" horiz-adv-x="801" 
d="M300 1002v190c0 28 10 52 30 72s44 30 72 30s52 -10 72 -30s30 -44 30 -72v-190h111c28 0 52 -10 72 -30s30 -44 30 -72s-10 -52 -30 -72s-44 -30 -72 -30h-111v-696c0 -28 -10 -52 -30 -72s-44 -30 -72 -30s-52 10 -72 30s-30 44 -30 72v696h-115c-28 0 -52 10 -72 30
s-30 44 -30 72s10 52 30 72s44 30 72 30h115z" />
    <glyph glyph-name="u" unicode="u" 
d="M593 0c-140.667 8 -256.332 57.333 -346.999 148c-96 96 -144.667 212 -146 348v386c0 38.667 10 68 30 88s44 30 72 30s52 -10 72 -30s30 -48.667 30 -86v-386c0 -6 -0.333008 -12 -1 -18c4 -73.333 32.667 -136.333 86 -189c58 -58 128 -87 210 -87h4
c82 0 152 29 210 87c53.333 52.667 82 115.667 86 189c-0.666992 6 -1 12 -1 18v386c0 37.333 10 66 30 86s44 30 72 30s52 -10 72 -30s30 -49.333 30 -88v-386c-1.33301 -136 -50 -252 -146 -348c-90.667 -90.667 -206.334 -140 -347.001 -148h-16z" />
    <glyph glyph-name="v" unicode="v" 
d="M694 65c-4.66699 -13.333 -12.333 -25 -23 -35c-19.333 -20 -43 -30 -71 -30c-27.333 0 -50.666 10 -69.999 30c-10.667 10 -18.334 21.333 -23.001 34l-389 779c-12 16.667 -18 35.667 -18 57c0 27.333 9.83301 50.833 29.5 70.5s43.167 29.5 70.5 29.5
c28 0 51.667 -9.66699 71 -29c6.66699 -6.66699 12 -13.667 16 -21h1l312 -625l312 625l1 -1c4.66699 8 10.334 15.333 17.001 22c19.333 19.333 42.666 29 69.999 29c28 0 51.667 -9.83301 71 -29.5s29 -43.167 29 -70.5c0 -22 -6.33301 -41.333 -19 -58z" />
    <glyph glyph-name="w" unicode="w" horiz-adv-x="2003" 
d="M1000 1000c28 0 51.6689 -9.66699 71.002 -29c6.66699 -6.66699 12 -13.667 16 -21h1l312 -625l312 625l1 -1c4.66699 8 10.334 15.333 17.001 22c19.333 19.333 42.666 29 69.999 29c28 0 51.667 -9.83301 71 -29.5s29 -43.167 29 -70.5c0 -22 -6.33301 -41.333 -19 -58
l-387 -777c-4.66699 -13.333 -12.334 -25 -23.001 -35c-19.333 -20 -43 -30 -71 -30c-27.333 0 -50.666 10 -69.999 30c-10.667 10 -18.334 21.333 -23.001 34l-307 615l-306 -614c-4.66699 -13.333 -12.334 -25 -23.001 -35c-19.333 -20 -43 -30 -71 -30
c-27.333 0 -50.666 10 -69.999 30c-10.667 10 -18.334 21.333 -23.001 34l-389 779c-12 16.667 -18 35.667 -18 57c0 27.333 9.83301 50.833 29.5 70.5s43.167 29.5 70.5 29.5c28 0 51.667 -9.66699 71 -29c6.66699 -6.66699 12 -13.667 16 -21h1l312 -625l312 625l1 -1
c4.66699 8 10.334 15.333 17.001 22c19.333 19.333 42.666 29 69.999 29z" />
    <glyph glyph-name="x" unicode="x" 
d="M459 500l-329.999 329.001c-19.333 19.333 -29 43 -29 71c0 27.333 9.83301 50.833 29.5 70.5s43.167 29.5 70.5 29.5c28 0 51.667 -9.66699 71 -29l330 -329l328 328l1 1c19.333 19.333 42.666 29 69.999 29c28 0 51.667 -9.83301 71 -29.5s29 -43.167 29 -70.5
c0 -28 -9.66699 -51.667 -29 -71c-2.66699 -2.66699 -5.66699 -5.33398 -9 -8.00098l-320 -321l329 -329c19.333 -20 29 -43.667 29 -71c0 -28 -9.66699 -51.667 -29 -71s-43 -29 -71 -29c-27.333 0 -51 9.66699 -71 29l-329 329l-327 -328c-18.667 -20 -43 -30 -73 -30
c-27.333 0 -50.833 9.66699 -70.5 29s-29.5 43 -29.5 71c0 27.333 10 51 30 71z" />
    <glyph glyph-name="y" unicode="y" 
d="M112 852c-8 14.667 -12.001 30.668 -12.001 48.001c0 28 9.66699 51.667 29 71s43 29 71 29c27.333 0 51 -9.66699 71 -29c10.667 -10.667 18.334 -23 23.001 -37l306 -611l305 611c4.66699 13.333 12.667 25.666 24 36.999c19.333 19.333 43 29 71 29
c27.333 0 50.833 -9.66699 70.5 -29s29.5 -43 29.5 -71c0 -16 -3.33301 -30.667 -10 -44l-592 -1189c-6.66699 -13.333 -15.667 -25.666 -27 -36.999c-20 -20 -43.667 -30 -71 -30c-28 0 -51.667 9.83301 -71 29.5s-29 43.167 -29 70.5c0 21.333 4.33301 40.666 13 57.999
l175 342z" />
    <glyph glyph-name="z" unicode="z" 
d="M441 200l559 -0.000976562c27.333 0 50.833 -9.66699 70.5 -29s29.5 -43 29.5 -71c0 -27.333 -9.83301 -50.833 -29.5 -70.5s-43.167 -29.5 -70.5 -29.5h-800c-28 0 -51.667 9.83301 -71 29.5s-29 43.167 -29 70.5c0 28 9.66699 51.667 29 71l630 629h-509
c-28 0 -51.667 9.83301 -71 29.5s-29 43.167 -29 70.5c0 28 9.66699 51.667 29 71s43 29 71 29h750c27.333 0 50.833 -9.66699 70.5 -29s29.5 -43 29.5 -71c0 -27.333 -9.66699 -50.666 -29 -69.999l-1 -1z" />
    <glyph glyph-name="braceleft" unicode="{" horiz-adv-x="801" 
d="M600 -200c-83.333 0 -154.166 29.334 -212.499 88.001s-87.5 129.334 -87.5 212.001v400c0 28 -9.83301 51.667 -29.5 71s-43.167 29 -70.5 29c-28 0 -51.667 9.83301 -71 29.5s-29 43.167 -29 70.5c0 28 9.66699 51.667 29 71s43 29 71 29
c27.333 0 50.833 9.83301 70.5 29.5s29.5 43.167 29.5 70.5v400c0 83.333 29.167 154.166 87.5 212.499s129.166 87.5 212.499 87.5c27.333 0 50.833 -9.66699 70.5 -29s29.5 -43 29.5 -71c0 -27.333 -9.83301 -50.833 -29.5 -70.5s-43.167 -29.5 -70.5 -29.5
c-28 0 -51.667 -9.66699 -71 -29s-29 -43 -29 -71v-400c0 -76.667 -25.333 -143.334 -76 -200.001c50.667 -56 76 -122.667 76 -200v-400c0 -27.333 9.66699 -50.833 29 -70.5s43 -29.5 71 -29.5s51.667 -9.66699 71 -29s29 -43 29 -71
c0 -27.333 -9.66699 -50.833 -29 -70.5s-43 -29.5 -71 -29.5z" />
    <glyph glyph-name="bar" unicode="|" horiz-adv-x="401" 
d="M266 1574c20 -20 30 -44 30 -72v-1590c0 -28 -10 -52 -30 -72s-44 -30 -72 -30s-52 10 -72 30s-30 44 -30 72v1590c0 28 10 52 30 72s44 30 72 30s52 -10 72 -30z" />
    <glyph glyph-name="braceright" unicode="}" horiz-adv-x="801" 
d="M200 -200c83.333 0 154.166 29.334 212.499 88.001s87.5 129.334 87.5 212.001v400c0 28 9.83301 51.667 29.5 71s43.167 29 70.5 29c28 0 51.667 9.83301 71 29.5s29 43.167 29 70.5c0 28 -9.66699 51.667 -29 71s-43 29 -71 29c-27.333 0 -50.833 9.83301 -70.5 29.5
s-29.5 43.167 -29.5 70.5v400c0 83.333 -29.167 154.166 -87.5 212.499s-129.166 87.5 -212.499 87.5c-27.333 0 -50.833 -9.66699 -70.5 -29s-29.5 -43 -29.5 -71c0 -27.333 9.83301 -50.833 29.5 -70.5s43.167 -29.5 70.5 -29.5c28 0 51.667 -9.66699 71 -29
s29 -43 29 -71v-400c0 -76.667 25.333 -143.334 76 -200.001c-50.667 -56 -76 -122.667 -76 -200v-400c0 -27.333 -9.66699 -50.833 -29 -70.5s-43 -29.5 -71 -29.5s-51.667 -9.66699 -71 -29s-29 -43 -29 -71c0 -27.333 9.66699 -50.833 29 -70.5s43 -29.5 71 -29.5z" />
    <glyph glyph-name="asciitilde" unicode="~" horiz-adv-x="977" 
d="M700 750c0 25.833 9.16699 47.916 27.5 66.249s40.416 27.5 66.249 27.5s47.916 -9.16699 66.249 -27.5s27.5 -40.416 27.5 -66.249c0 -69.167 -24.375 -128.125 -73.125 -176.875s-107.708 -73.125 -176.875 -73.125s-128.125 24.375 -176.875 73.125
s-73.125 107.708 -73.125 176.875c0 16.667 -6.04199 31.25 -18.125 43.75s-26.875 18.75 -44.375 18.75s-32.292 -6.25 -44.375 -18.75s-18.125 -27.083 -18.125 -43.75c0 -25.833 -9.16699 -47.916 -27.5 -66.249s-40.416 -27.5 -66.249 -27.5
s-47.916 9.16699 -66.249 27.5s-27.5 40.416 -27.5 66.249c0 69.167 24.375 128.125 73.125 176.875s107.708 73.125 176.875 73.125s128.125 -24.375 176.875 -73.125s73.125 -107.708 73.125 -176.875c0 -16.667 6.04199 -31.25 18.125 -43.75
s26.875 -18.75 44.375 -18.75s32.292 6.25 44.375 18.75s18.125 27.083 18.125 43.75z" />
    <glyph glyph-name="exclamdown" unicode="&#xa1;" horiz-adv-x="401" 
d="M126 850c-20 20 -30 44 -30 72s10 52 30 72s44 30 72 30s52 -10 72 -30s30 -44 30 -72s-10 -52 -30 -72s-44 -30 -72 -30s-52 10 -72 30zM126 -390c-20 20 -30 44 -30 72v840c0 28 10 52 30 72s44 30 72 30s52 -10 72 -30s30 -44 30 -72v-840c0 -28 -10 -52 -30 -72
s-44 -30 -72 -30s-52 10 -72 30z" />
    <glyph glyph-name="cent" unicode="&#xa2;" 
d="M948 889c14 -11.333 27.334 -23.332 40.001 -35.999l-1 -1c0 -0.666992 0.333008 -1 1 -1c19.333 -19.333 29 -43 29 -71c0 -27.333 -9.83301 -50.833 -29.5 -70.5s-43.167 -29.5 -70.5 -29.5c-28 0 -51.667 10 -71 30h-1l-287 -497c24.667 -6.66699 50.667 -10 78 -10
c81.333 0 151 28.667 209 86l2 2c19.333 19.333 43 29 71 29s52 -9.83301 72 -29.5s30 -43.5 30 -71.5s-10 -52 -30 -72l-2 -2c-96.667 -96.667 -214 -145 -352 -145c-65.333 0 -126 11 -182 33l-163 -282c-14 -24 -34.667 -39.667 -62 -47
c-9.33301 -2.66699 -18.666 -4 -27.999 -4c-17.333 0 -34 4.66699 -50 14c-24 14 -39.667 34.667 -47 62c-2.66699 9.33301 -4 18.666 -4 27.999c0 16.667 4.66699 33 14 49l169 293c-97.333 97.333 -146 215 -146 353s48.667 255.667 146 353s215 146 353 146
c45.333 0 88.666 -5.33301 129.999 -16l143 248c14 24.667 34.667 40.667 62 48c9.33301 2.66699 18.666 4 27.999 4c16.667 0 33 -4.66699 49 -14c24.667 -14.667 40.667 -35.334 48 -62.001c2.66699 -9.33301 4 -18.666 4 -27.999c0 -17.333 -4.66699 -34 -14 -50z
M658.001 795.001c-7.33301 0.666992 -14.667 1 -22 1c-82 0 -152 -28.833 -210 -86.5s-87 -127.5 -87 -209.5c0 -63.333 17.333 -119.333 52 -168z" />
    <glyph glyph-name="sterling" unicode="&#xa3;" horiz-adv-x="1028" 
d="M473 594c2 -19.333 3.33691 -39.667 4.00391 -61c-2 -76.667 -17 -152.667 -45 -228c76.667 -7.33301 143.334 -38 200.001 -92c22 -11.333 46 -17 72 -17c41.333 0 76.666 14.333 105.999 43l3 -3c12 5.33301 25.333 8 40 8c27.333 0 50.833 -9.83301 70.5 -29.5
s29.5 -43.167 29.5 -70.5c0 -14.667 -2.66699 -28 -8 -40l6 -6c-8.66699 -8.66699 -18 -17 -28 -25c-6.66699 -6.66699 -13.667 -12.334 -21 -17.001c-57.333 -40 -123.333 -60 -198 -60c-93.333 0 -173.666 31.667 -240.999 95c-20.667 10.667 -43.334 16 -68.001 16
c-34.667 0 -65.334 -10.333 -92.001 -31c-3.33301 -5.33301 -7 -10.333 -11 -15c-4.66699 -11.333 -11.667 -21.666 -21 -30.999c-20 -20 -43.667 -30 -71 -30c-28 -0 -51.667 9.83301 -71 29.5s-29 43.167 -29 70.5c0 23.333 6.66699 43.333 20 60l-3 3
c11.333 13.333 21.666 26.333 30.999 39l-1 2l9 9c78 106.667 118.333 214.667 121 324c-0.666992 20.667 -2 39.667 -4 57h-71c-28 0 -52 10 -72 30s-30 44 -30 72s10 52 30 72c14 14 30 23 48 27c-40.667 62.667 -61 134 -61 214c0 110.667 39 205 117 283
s172.333 117 283 117c110 0 204.333 -39 283 -117c10.667 -10.667 20.667 -21.667 30 -33l-5 -4c16 -18 24 -39.667 24 -65c0 -27.333 -9.83301 -50.833 -29.5 -70.5s-43.167 -29.5 -70.5 -29.5c-28 0 -51.667 10 -71 30c-10.667 10 -18.334 21.667 -23.001 35
c-38.667 36 -84.667 54 -138 54c-55.333 0 -102.5 -19.5 -141.5 -58.5s-58.5 -86.167 -58.5 -141.5c0 -48 26.333 -105.333 79 -172c9.33301 -11.333 17.666 -24.333 24.999 -39h181c28 0 52 -10 72 -30s30 -44 30 -72s-10 -52 -30 -72s-44 -30 -72 -30h-129z" />
    <glyph glyph-name="currency" unicode="&#xa4;" horiz-adv-x="998" 
d="M500 900c-54.667 0 -101.667 -19.5 -141 -58.5s-59 -86.167 -59 -141.5s19.667 -102.5 59 -141.5s86.333 -58.5 141 -58.5c55.333 0 102.5 19.5 141.5 58.5s58.5 86.167 58.5 141.5s-19.5 102.5 -58.5 141.5s-86.167 58.5 -141.5 58.5zM704 1046l25.998 26
c20 18.667 43.333 28 70 28c28 0 51.667 -9.83301 71 -29.5s29 -43.167 29 -70.5c0 -28 -9.66699 -51.667 -29 -71l-25 -25c36 -60.667 54 -128.667 54 -204s-18.333 -143 -55 -203l26 -26c19.333 -20 29 -43.667 29 -71c0 -28 -9.66699 -51.667 -29 -71s-43 -29 -71 -29
c-27.333 0 -50.666 9.66699 -69.999 29l-26 26c-60.667 -36.667 -128.667 -55 -204 -55s-143 18.333 -203 55l-26 -26c-19.333 -19.333 -43 -29 -71 -29c-27.333 0 -50.833 9.66699 -70.5 29s-29.5 43 -29.5 71c0 27.333 10 51 30 71l25 25
c-36.667 60.667 -55 128.667 -55 204s18.333 143.333 55 204l-25 25c-20 19.333 -30 43 -30 71c0 27.333 9.83301 50.833 29.5 70.5s43.167 29.5 70.5 29.5s51 -9.33301 71 -28l26 -26c60.667 36 128.334 54 203.001 54c75.333 0 143.333 -18 204 -54z" />
    <glyph glyph-name="yen" unicode="&#xa5;" horiz-adv-x="1374" 
d="M500 238h-197.999c-28 0 -52 10 -72 30s-30 44 -30 72s10 52 30 72s44 30 72 30h198v204h-198c-28 0 -52 10 -72 30s-30 44 -30 72s10 52 30 72s44 30 72 30h108l-293 427c-11.333 16.667 -17 35.667 -17 57c0 27.333 9.83301 50.833 29.5 70.5s43.167 29.5 70.5 29.5
c28 0 51.667 -9.66699 71 -29c8 -8 14.333 -16.667 19 -26l310 -453l317 464c4 5.33301 8.33301 10.333 13 15c19.333 19.333 42.666 29 69.999 29c28 0 51.667 -9.83301 71 -29.5s29 -43.167 29 -70.5c0 -25.333 -8 -47 -24 -65l-286 -419h102c28 0 52 -10 72 -30
s30 -44 30 -72s-10 -52 -30 -72s-44 -30 -72 -30h-192v-204h192c28 0 52 -10 72 -30s30 -44 30 -72s-10 -52 -30 -72s-44 -30 -72 -30h-192v-138c0 -28 -9.66699 -51.667 -29 -71s-43 -29 -71 -29c-27.333 0 -50.833 9.66699 -70.5 29s-29.5 43 -29.5 71v138z" />
    <glyph glyph-name="brokenbar" unicode="&#xa6;" horiz-adv-x="401" 
d="M202 -400c-28 0 -52 10 -72 30s-30 44 -30 72v600c0 28 10 52 30 72s44 30 72 30s52 -10 72 -30s30 -44 30 -72v-600c0 -28 -10 -52 -30 -72s-44 -30 -72 -30zM202 630c-28 0 -52 10 -72 30s-30 44 -30 72v600c0 28 10 52 30 72s44 30 72 30s52 -10 72 -30s30 -44 30 -72
v-600c0 -28 -10 -52 -30 -72s-44 -30 -72 -30z" />
    <glyph glyph-name="section" unicode="&#xa7;" horiz-adv-x="989" 
d="M273 845c-12.667 8 -31.334 24.333 -56.001 49c-78 78 -117 172.333 -117 283c0 110 39 204.167 117 282.5s172.333 117.5 283 117.5s205 -39.167 283 -117.5s117 -172.5 117 -282.5c0 -27.333 -9.66699 -50.833 -29 -70.5s-43 -29.5 -71 -29.5
c-27.333 0 -50.833 9.83301 -70.5 29.5s-29.5 43.167 -29.5 70.5c0 54.667 -19.5 101.667 -58.5 141s-86.167 59 -141.5 59s-102.5 -19.667 -141.5 -59s-58.5 -86.333 -58.5 -141c0 -55.333 19.5 -102.5 58.5 -141.5s86.167 -58.5 141.5 -58.5
c72.667 0 134.334 -25.667 185.001 -77s76 -113 76 -185c0 -58.667 -11.333 -103 -34 -133c12.667 -8 31.334 -24.333 56.001 -49c78 -78 117 -172.333 117 -283c0 -110 -39 -204.167 -117 -282.5s-172.333 -117.5 -283 -117.5s-205 39.167 -283 117.5
s-117 172.5 -117 282.5c0 27.333 9.66699 50.833 29 70.5s43 29.5 71 29.5c27.333 0 50.833 -9.83301 70.5 -29.5s29.5 -43.167 29.5 -70.5c0 -54.667 19.5 -101.667 58.5 -141s86.167 -59 141.5 -59s102.5 19.667 141.5 59s58.5 86.333 58.5 141
c0 55.333 -19.5 102.5 -58.5 141.5s-86.167 58.5 -141.5 58.5c-72.667 0 -134.334 25.667 -185.001 77s-76 113 -76 185c0 58.667 11.333 103 34 133zM500 775c-20.667 0 -38.334 -7.16699 -53.001 -21.5s-22 -32.166 -22 -53.499c0 -20.667 7.33301 -38.334 22 -53.001
s32.334 -22 53.001 -22s38.334 7.33301 53.001 22s22 32.334 22 53.001c0 21.333 -7.33301 39.166 -22 53.499s-32.334 21.5 -53.001 21.5z" />
    <glyph glyph-name="dieresis" unicode="&#xa8;" horiz-adv-x="703" 
d="M270.5 1271c19.667 -19.333 29.5 -43 29.5 -71c0 -27.333 -9.83301 -50.833 -29.5 -70.5s-43.167 -29.5 -70.5 -29.5s-50.833 9.83301 -70.5 29.5s-29.5 43.167 -29.5 70.5c0 28 9.83301 51.667 29.5 71s43.167 29 70.5 29s50.833 -9.66699 70.5 -29zM570.5 1271
c19.667 -19.333 29.5 -43 29.5 -71c0 -27.333 -9.83301 -50.833 -29.5 -70.5s-43.167 -29.5 -70.5 -29.5s-50.833 9.83301 -70.5 29.5s-29.5 43.167 -29.5 70.5c0 28 9.83301 51.667 29.5 71s43.167 29 70.5 29s50.833 -9.66699 70.5 -29z" />
    <glyph glyph-name="copyright" unicode="&#xa9;" horiz-adv-x="1821" 
d="M1227 1035c0 -0.666992 0.333984 -1 1.00098 -1c17.333 -17.333 26 -38.666 26 -63.999c0 -24.667 -8.83301 -45.834 -26.5 -63.501s-38.834 -26.5 -63.501 -26.5c-25.333 0 -46.666 9 -63.999 27h-1c-51.333 51.333 -114 77 -188 77
c-73.333 0 -136.166 -25.833 -188.499 -77.5s-78.5 -114.5 -78.5 -188.5s26.167 -137 78.5 -189s115.166 -78 188.499 -78s136 25.667 188 77l2 2c17.333 17.333 38.666 26 63.999 26s47 -8.83301 65 -26.5s27 -39.167 27 -64.5s-9 -47 -27 -65l-2 -2
c-86.667 -86.667 -192.334 -130 -317.001 -130c-124 0 -229.833 43.833 -317.5 131.5s-131.5 193.5 -131.5 317.5s43.833 229.833 131.5 317.5s193.5 131.5 317.5 131.5c124.667 0 230.334 -43.333 317.001 -130zM917.001 1330c-170 0 -314.667 -60 -434 -180
s-179 -264.333 -179 -433s59.667 -313 179 -433s264 -180 434 -180c168.667 0 313 60 433 180s180 264.333 180 433s-60 313 -180 433s-264.333 180 -433 180zM1734 717c0 -225.333 -79.833 -417.833 -239.5 -577.5s-352.167 -239.5 -577.5 -239.5
s-417.833 79.833 -577.5 239.5s-239.5 352.167 -239.5 577.5s79.833 417.833 239.5 577.5s352.167 239.5 577.5 239.5s417.833 -79.833 577.5 -239.5s239.5 -352.167 239.5 -577.5z" />
    <glyph glyph-name="ordfeminine" unicode="&#xaa;" horiz-adv-x="863" 
d="M533 1225c-28.667 25.333 -63.334 37.999 -104.001 37.999c-40 0 -74.167 -12.5 -102.5 -37.5s-42.5 -55.167 -42.5 -90.5s14.167 -65.5 42.5 -90.5s62.5 -37.5 102.5 -37.5c40.667 0 75.334 12.333 104.001 37c24 21.333 37.667 46.333 41 75v17
c0 2.66699 0.333008 5.33398 1 8.00098c-2 31.333 -16 58.333 -42 81zM202 703.999h446c28 0 52 -10 72 -30s30 -44 30 -72s-10 -52 -30 -72s-44 -30 -72 -30h-446c-28 0 -52 10 -72 30s-30 44 -30 72s10 52 30 72s44 30 72 30zM759 909.999
c-3.33301 -19.333 -13 -35.666 -29 -48.999c-19.333 -17.333 -43 -26 -71 -26c-27.333 0 -50.666 8.66699 -69.999 26c-3.33301 2 -6 4.33301 -8 7c-45.333 -22 -96 -33 -152 -33c-90.667 0 -168.167 29.167 -232.5 87.5s-96.5 128.833 -96.5 211.5
c0 83.333 32.167 154.166 96.5 212.499s141.833 87.5 232.5 87.5c91.333 0 169 -29.333 233 -88c63.333 -57.333 95.666 -127 96.999 -209v-227z" />
    <glyph glyph-name="guillemotleft" unicode="&#xab;" horiz-adv-x="949" 
d="M477 937c15.333 18 23 39 23 63c0 28 -9.66699 51.667 -29 71s-43 29 -71 29c-27.333 0 -51 -9.66699 -71 -29c-4.66699 -4.66699 -8.66699 -9.66699 -12 -15h-1l-200 -301c-10.667 -16 -16 -34.333 -16 -55c0 -20 5.33301 -38.333 16 -55l-2 -1l200 -300l2 1
c4 -5.33301 8.33301 -10.333 13 -15c20 -20 43.667 -30 71 -30c28 0 51.667 9.83301 71 29.5s29 43.167 29 70.5c0 21.333 -5.66699 40.333 -17 57l-162 244zM829 937c15.333 18 23 39 23 63c0 28 -9.66699 51.667 -29 71s-43 29 -71 29c-27.333 0 -51 -9.66699 -71 -29
c-4.66699 -4.66699 -8.66699 -9.66699 -12 -15h-1l-200 -301c-10.667 -16 -16 -34.333 -16 -55c0 -20 5.33301 -38.333 16 -55l-2 -1l200 -300l2 1c4 -5.33301 8.33301 -10.333 13 -15c20 -20 43.667 -30 71 -30c28 0 51.667 9.83301 71 29.5s29 43.167 29 70.5
c0 21.333 -5.66699 40.333 -17 57l-162 244z" />
    <glyph glyph-name="logicalnot" unicode="&#xac;" horiz-adv-x="998" 
d="M700 794h-498c-28 0 -52 10 -72 30s-30 44 -30 72s10 52 30 72s44 30 72 30l600 6c28 0 52 -10 72 -30s30 -44 30 -72v-400c0 -28 -10 -52 -30 -72s-44 -30 -72 -30s-52 10 -72 30s-30 44 -30 72v292z" />
    <glyph glyph-name="registered" unicode="&#xae;" horiz-adv-x="1835" 
d="M1734 717c0 -225.333 -79.833 -417.833 -239.5 -577.5s-352.167 -239.5 -577.5 -239.5s-417.833 79.833 -577.5 239.5s-239.5 352.167 -239.5 577.5s79.833 417.833 239.5 577.5s352.167 239.5 577.5 239.5s417.833 -79.833 577.5 -239.5s239.5 -352.167 239.5 -577.5z
M917 1330c-170 0 -314.667 -60 -434 -180s-179 -264.333 -179 -433s59.667 -313 179 -433s264 -180 434 -180c168.667 0 313 60 433 180s180 264.333 180 433s-60 313 -180 433s-264.333 180 -433 180zM925 800c21.333 0 39.166 7.33105 53.499 21.998
s21.5 32.334 21.5 53.001s-7.16699 38.334 -21.5 53.001s-32.166 22 -53.499 22h-125v-150h125zM1236 401.998c9.33301 -15.333 14 -32.667 14 -52c0 -27.333 -9.66699 -50.833 -29 -70.5s-43 -29.5 -71 -29.5c-27.333 0 -50.666 10 -69.999 30
c-12 11.333 -20.333 24 -25 38l-138 282h-117v-250c0 -27.333 -9.66699 -50.833 -29 -70.5s-43 -29.5 -71 -29.5c-27.333 0 -50.833 9.83301 -70.5 29.5s-29.5 43.167 -29.5 70.5v700c0 28 9.83301 51.667 29.5 71s43.167 29 70.5 29h225c76 0 140.833 -26.833 194.5 -80.5
s80.5 -118.5 80.5 -194.5s-26.667 -140.667 -80 -194c-4.66699 -4.66699 -9.33398 -9 -14.001 -13z" />
    <glyph glyph-name="macron" unicode="&#xaf;" horiz-adv-x="801" 
d="M130 1396c20 20 44 30 72 30h400c28 0 52 -10 72 -30s30 -44 30 -72s-10 -52 -30 -72s-44 -30 -72 -30h-400c-28 0 -52 10 -72 30s-30 44 -30 72s10 52 30 72z" />
    <glyph glyph-name="degree" unicode="&#xb0;" horiz-adv-x="801" 
d="M612 1346.5c58.667 -58.333 88 -129.166 88 -212.499c0 -82.667 -29.333 -153.334 -88 -212.001s-129.334 -88 -212.001 -88s-153.334 29.333 -212.001 88s-88 129.334 -88 212.001c0 83.333 29.333 154.166 88 212.499s129.334 87.5 212.001 87.5
s153.334 -29.167 212.001 -87.5zM400 1259c-34.667 0 -64.167 -12.167 -88.5 -36.5s-36.5 -53.833 -36.5 -88.5c0 -34 12.167 -63.333 36.5 -88s53.833 -37 88.5 -37s64.167 12.333 88.5 37s36.5 54 36.5 88c0 34.667 -12.167 64.167 -36.5 88.5s-53.833 36.5 -88.5 36.5z
" />
    <glyph glyph-name="plusminus" unicode="&#xb1;" horiz-adv-x="998" 
d="M397 594h-98c-28.667 0 -52.834 10 -72.501 30s-29.5 44 -29.5 72s9.83301 52 29.5 72s43.834 30 72.501 30h98v98c0 28 9.83301 52 29.5 72s43.834 30 72.501 30c28 0 52 -10 72 -30s30 -44 30 -72v-98h98c28 0 52 -10 72 -30s30 -44 30 -72s-10 -52 -30 -72
s-44 -30 -72 -30h-98v-98c0 -28 -10 -52 -30 -72s-44 -30 -72 -30c-28.667 0 -52.834 10 -72.501 30s-29.5 44 -29.5 72v98zM293 -10c-28.667 0 -52.834 10 -72.501 30s-29.5 44 -29.5 72s9.83301 52 29.5 72s43.834 30 72.501 30h400c28 0 52 -10 72 -30s30 -44 30 -72
s-10 -52 -30 -72s-44 -30 -72 -30h-400z" />
    <glyph glyph-name="uni00B2" unicode="&#xb2;" horiz-adv-x="766" 
d="M380 800l170.003 -0.000976562c27.333 0 50.833 -9.83301 70.5 -29.5s29.5 -43.167 29.5 -70.5s-9.83301 -50.833 -29.5 -70.5s-43.167 -29.5 -70.5 -29.5h-350c-28 0 -51.667 9.83301 -71 29.5s-29 43.167 -29 70.5c0 76 25.333 139.333 76 190
s100.167 88.5 148.5 113.5s81.333 46.333 99 64s26.5 36.834 26.5 57.501s-7.33301 38.334 -22 53.001s-32.334 22 -53.001 22s-38.334 -7.33301 -53.001 -22s-22 -32.334 -22 -53.001c0 -28 -9.66699 -51.667 -29 -71s-43 -29 -71 -29c-27.333 0 -50.833 9.66699 -70.5 29
s-29.5 43 -29.5 71c0 76 26.833 140.833 80.5 194.5s118.5 80.5 194.5 80.5s140.833 -26.833 194.5 -80.5s80.5 -118.5 80.5 -194.5s-25.333 -139.333 -76 -190s-115.334 -95.667 -194.001 -135z" />
    <glyph glyph-name="uni00B3" unicode="&#xb3;" horiz-adv-x="759" 
d="M127 696c-18 17.333 -26.9961 40 -26.9961 68c0 27.333 9.66699 50.833 29 70.5s43 29.5 71 29.5c27.333 0 51 -9.66699 71 -29c2.66699 -3.33301 4.66699 -5.66602 6 -6.99902c-0.666992 0.666992 -1.33398 1 -2.00098 1c19.333 -19.333 43 -29 71 -29
c27.333 0 50.833 9.83301 70.5 29.5s29.5 43.167 29.5 70.5c0 28 -9.83301 51.667 -29.5 71s-43.167 29 -70.5 29c-28 0 -51.667 9.83301 -71 29.5s-29 43.167 -29 70.5c0 28 8.33301 50.333 25 67c-28 0 -51.667 9.83301 -71 29.5s-29 43.167 -29 70.5
s9.66699 50.666 29 69.999l4 4l1 1c38.667 38.667 85.667 58 141 58s102.5 -19.5 141.5 -58.5s58.5 -86.167 58.5 -141.5c0 -41.333 -1 -63.666 -3 -66.999c-2 1.33301 -3.33301 2 -4 2s-1 -0.333008 -1 -1c0 -1.33301 6.66699 -8.66602 20 -21.999
c58.667 -58.667 88 -129.334 88 -212.001s-29.333 -153.334 -88 -212.001s-129.334 -88 -212.001 -88s-151.334 27.333 -206.001 82l-8 8c-2.66699 2.66699 -4.33398 4.66699 -5.00098 6z" />
    <glyph glyph-name="acute" unicode="&#xb4;" horiz-adv-x="689" 
d="M254 1044c-16 -9.33301 -32.6689 -14 -50.002 -14c-9.33301 0 -18.666 1.33301 -27.999 4c-27.333 7.33301 -48 23 -62 47c-9.33301 16 -14 32.667 -14 50c0 9.33301 1.33301 18.666 4 27.999c7.33301 26.667 23.333 47 48 61l268 155c16.667 9.33301 33.667 14 51 14
c8.66699 0 17.667 -1 27 -3c26.667 -7.33301 47.334 -23.333 62.001 -48c9.33301 -16 14 -32.333 14 -49c0 -9.33301 -1.33301 -18.666 -4 -27.999c-7.33301 -27.333 -23.333 -48 -48 -62z" />
    <glyph glyph-name="mu" unicode="&#xb5;" 
d="M900 100c-80.667 -60 -177.667 -93.333 -291 -100h-16c-112 6.66699 -208.333 39.334 -289 98.001v-290c0 -28 -10 -52 -30 -72s-44 -30 -72 -30s-52 10 -72 30s-30 44 -30 72v1094c0 32 10 56.333 30 73s44 25 72 25s52 -8.33301 72 -25s30 -40.334 30 -71.001v-437
c6.66699 -68 35 -126.667 85 -176c58 -58 128 -87 210 -87h4c82 0 152 29 210 87c53.333 52.667 82 115.667 86 189c-0.666992 6 -1 12 -1 18v406c0 30.667 10 54.334 30 71.001c5.33301 4.66699 11 8.66699 17 12c16.667 11.333 35.667 17 57 17c28 0 52 -10 72 -30
s30 -44 30 -72v-800c0 -28 -10 -52 -30 -72s-44 -30 -72 -30s-52 10 -72 30c-19.333 19.333 -29.333 42.666 -30 69.999z" />
    <glyph glyph-name="paragraph" unicode="&#xb6;" horiz-adv-x="1209" 
d="M1130 102c0 -28 -10 -51.999 -30 -71.999s-44 -30 -72 -30s-52 10 -72 30s-30 44 -30 72v1132h-96v-1132c0 -28 -10 -52 -30 -72s-44 -30 -72 -30s-52 10 -72 30s-30 44 -30 72v498h-108c-115.333 0 -213.833 40.833 -295.5 122.5s-122.5 180.167 -122.5 295.5
s40.833 213.666 122.5 294.999s180.167 122 295.5 122l210 -1c7.33301 0 14.333 -0.666992 21 -2h258c6.66699 1.33301 13.667 2 21 2c28 0 52 -10 72 -30s30 -44 30 -72v-1230zM518 1234c-60 0 -111.167 -21.168 -153.5 -63.501s-63.5 -93.166 -63.5 -152.499
c0 -60 21.167 -111.167 63.5 -153.5s93.5 -63.5 153.5 -63.5h108v433h-108z" />
    <glyph glyph-name="periodcentered" unicode="&#xb7;" horiz-adv-x="508" 
d="M247.894 777.896c16.999 -16.999 25.499 -37.3984 25.499 -61.1982s-8.5 -44.1992 -25.499 -61.1982s-37.3984 -25.499 -61.1982 -25.499s-44.1992 8.5 -61.1982 25.499s-25.499 37.3984 -25.499 61.1982s8.5 44.1992 25.499 61.1982s37.3984 25.499 61.1982 25.499
s44.1992 -8.5 61.1982 -25.499z" />
    <glyph glyph-name="periodcentered" unicode="&#x2219;" horiz-adv-x="508" 
d="M247.894 777.896c16.999 -16.999 25.499 -37.3984 25.499 -61.1982s-8.5 -44.1992 -25.499 -61.1982s-37.3984 -25.499 -61.1982 -25.499s-44.1992 8.5 -61.1982 25.499s-25.499 37.3984 -25.499 61.1982s8.5 44.1992 25.499 61.1982s37.3984 25.499 61.1982 25.499
s44.1992 -8.5 61.1982 -25.499z" />
    <glyph glyph-name="cedilla" unicode="&#xb8;" horiz-adv-x="443" 
d="M254 -41c19.333 -9.33301 37.3311 -21.999 53.998 -37.999c36 -37.333 54 -81.666 54 -132.999c0 -52 -18.167 -96.167 -54.5 -132.5s-80.5 -54.5 -132.5 -54.5c-21.333 0 -39.166 7.16699 -53.499 21.5s-21.5 32.166 -21.5 53.499c0 20 7.16699 37.5 21.5 52.5
s32.166 22.5 53.499 22.5c10.667 0 19.5 3.5 26.5 10.5s10.5 15.833 10.5 26.5s-3.33301 19.667 -10 27c-5.33301 5.33301 -11.666 8.66602 -18.999 9.99902h-6c-10.667 0 -20.667 2 -30 6c-9.33301 3.33301 -17.666 9 -24.999 17c-14.667 14 -22 31.667 -22 53
c0 4 0.333008 8.33301 1 13v70c0 21.333 7.33301 39.5 22 54.5s32.667 22.5 54 22.5s39.5 -7.5 54.5 -22.5s22.5 -33.167 22.5 -54.5v-25z" />
    <glyph glyph-name="uni00B9" unicode="&#xb9;" horiz-adv-x="513" 
d="M232 1375c20 16.667 43 25 69 25c28 0 51.833 -9.83301 71.5 -29.5s29.5 -43.5 29.5 -71.5v-595c0 -28 -9.83301 -51.833 -29.5 -71.5s-43.5 -29.5 -71.5 -29.5s-51.833 9.83301 -71.5 29.5s-29.5 43.5 -29.5 71.5v399c-27.333 0 -50.833 9.83301 -70.5 29.5
s-29.5 43.5 -29.5 71.5s10 52 30 72z" />
    <glyph glyph-name="ordmasculine" unicode="&#xba;" horiz-adv-x="863" 
d="M130 674c20 20 44 30 72 30h447c27.333 0 51 -10 71 -30s30 -44 30 -72s-10 -52 -30 -72s-43.667 -30 -71 -30h-447c-28 0 -52 10 -72 30s-30 44 -30 72s10 52 30 72zM429 1262c-40 0 -74.333 -12.5 -103 -37.5s-43 -55.167 -43 -90.5s14.333 -65.5 43 -90.5
s63 -37.5 103 -37.5c40.667 0 75.167 12.5 103.5 37.5s42.5 55.167 42.5 90.5s-14.167 65.5 -42.5 90.5s-62.833 37.5 -103.5 37.5zM759 1133c0 -82.667 -32.167 -153.167 -96.5 -211.5s-142.166 -87.5 -233.499 -87.5c-90.667 0 -168.167 29.167 -232.5 87.5
s-96.5 128.833 -96.5 211.5c0 83.333 32.167 154.166 96.5 212.499s141.833 87.5 232.5 87.5c91.333 0 169.166 -29.167 233.499 -87.5s96.5 -129.166 96.5 -212.499z" />
    <glyph glyph-name="guillemotright" unicode="&#xbb;" horiz-adv-x="949" 
d="M123 937c-15.333 18 -23 39 -23 63c0 28 9.66699 51.667 29 71s43 29 71 29c27.333 0 51 -9.66699 71 -29c4.66699 -4.66699 8.66699 -9.66699 12 -15h1l200 -301c10.667 -16 16 -34.333 16 -55c0 -20 -5.33301 -38.333 -16 -55l2 -1l-200 -300l-2 1
c-4 -5.33301 -8.33301 -10.333 -13 -15c-20 -20 -43.667 -30 -71 -30c-28 0 -51.667 9.83301 -71 29.5s-29 43.167 -29 70.5c0 21.333 5.66699 40.333 17 57l162 244zM475 937c-15.333 18 -23 39 -23 63c0 28 9.66699 51.667 29 71s43 29 71 29c27.333 0 51 -9.66699 71 -29
c4.66699 -4.66699 8.66699 -9.66699 12 -15h1l200 -301c10.667 -16 16 -34.333 16 -55c0 -20 -5.33301 -38.333 -16 -55l2 -1l-200 -300l-2 1c-4 -5.33301 -8.33301 -10.333 -13 -15c-20 -20 -43.667 -30 -71 -30c-28 0 -51.667 9.83301 -71 29.5s-29 43.167 -29 70.5
c0 21.333 5.66699 40.333 17 57l162 244z" />
    <glyph glyph-name="onequarter" unicode="&#xbc;" horiz-adv-x="1603" 
d="M232 1475c20 16.667 43 25 69 25c28 0 51.833 -9.83301 71.5 -29.5s29.5 -43.5 29.5 -71.5v-595c0 -28 -9.83301 -51.833 -29.5 -71.5s-43.5 -29.5 -71.5 -29.5s-51.833 9.83301 -71.5 29.5s-29.5 43.5 -29.5 71.5v399c-27.333 0 -50.833 9.83301 -70.5 29.5
s-29.5 43.5 -29.5 71.5s10 52 30 72zM1428 1270c0 -28.667 -10 -53 -30 -73l-1124 -1124c-20 -20 -44 -30 -72 -30c-28.667 0 -52.667 10 -72 30c-20 19.333 -30 43.333 -30 72c0 28 10 52 30 72l1124 1124c20 20 44.333 30 73 30c28 0 51.667 -10 71 -30
c20 -19.333 30 -43 30 -71zM1230 671c19.333 19.333 42.667 29 70 29c28 0 51.667 -9.83301 71 -29.5s29 -43.167 29 -70.5v-300c28 0 51.667 -9.83301 71 -29.5s29 -43.167 29 -70.5c0 -28 -9.66699 -51.667 -29 -71s-43 -29 -71 -29v-100c0 -28 -9.66699 -51.667 -29 -71
s-43 -29 -71 -29c-27.333 0 -50.833 9.66699 -70.5 29s-29.5 43 -29.5 71v100h-200c-27.333 0 -50.833 9.66699 -70.5 29s-29.5 43 -29.5 71c0 22.667 6.66699 42.667 20 60l300 401z" />
    <glyph glyph-name="onehalf" unicode="&#xbd;" horiz-adv-x="1673" 
d="M232 1475c20 16.667 43 25 69 25c28 0 51.833 -9.83301 71.5 -29.5s29.5 -43.5 29.5 -71.5v-595c0 -28 -9.83301 -51.833 -29.5 -71.5s-43.5 -29.5 -71.5 -29.5s-51.833 9.83301 -71.5 29.5s-29.5 43.5 -29.5 71.5v399c-27.333 0 -50.833 9.83301 -70.5 29.5
s-29.5 43.5 -29.5 71.5s10 52 30 72zM1428 1270c0 -28.667 -10 -53 -30 -73l-1124 -1124c-20 -20 -44 -30 -72 -30c-28.667 0 -52.667 10 -72 30c-20 19.333 -30 43.333 -30 72c0 28 10 52 30 72l1124 1124c20 20 44.333 30 73 30c28 0 51.667 -10 71 -30
c20 -19.333 30 -43 30 -71zM1280 100l170.003 -0.000976562c27.333 0 50.833 -9.83301 70.5 -29.5s29.5 -43.167 29.5 -70.5s-9.83301 -50.833 -29.5 -70.5s-43.167 -29.5 -70.5 -29.5h-350c-28 0 -51.667 9.83301 -71 29.5s-29 43.167 -29 70.5c0 76 25.333 139.333 76 190
s100.167 88.5 148.5 113.5s81.333 46.333 99 64s26.5 36.834 26.5 57.501s-7.33301 38.334 -22 53.001s-32.334 22 -53.001 22s-38.334 -7.33301 -53.001 -22s-22 -32.334 -22 -53.001c0 -28 -9.66699 -51.667 -29 -71s-43 -29 -71 -29c-27.333 0 -50.833 9.66699 -70.5 29
s-29.5 43 -29.5 71c0 76 26.833 140.833 80.5 194.5s118.5 80.5 194.5 80.5s140.833 -26.833 194.5 -80.5s80.5 -118.5 80.5 -194.5s-25.333 -139.333 -76 -190s-115.334 -95.667 -194.001 -135z" />
    <glyph glyph-name="threequarters" unicode="&#xbe;" horiz-adv-x="1701" 
d="M127 796c-18 17.333 -26.9961 40 -26.9961 68c0 27.333 9.66699 50.833 29 70.5s43 29.5 71 29.5c27.333 0 51 -9.66699 71 -29c2.66699 -3.33301 4.66699 -5.66602 6 -6.99902c-0.666992 0.666992 -1.33398 1 -2.00098 1c19.333 -19.333 43 -29 71 -29
c27.333 0 50.833 9.83301 70.5 29.5s29.5 43.167 29.5 70.5c0 28 -9.83301 51.667 -29.5 71s-43.167 29 -70.5 29c-28 0 -51.667 9.83301 -71 29.5s-29 43.167 -29 70.5c0 28 8.33301 50.333 25 67c-28 0 -51.667 9.83301 -71 29.5s-29 43.167 -29 70.5
s9.66699 50.666 29 69.999l4 4l1 1c38.667 38.667 85.667 58 141 58s102.5 -19.5 141.5 -58.5s58.5 -86.167 58.5 -141.5c0 -41.333 -1 -63.666 -3 -66.999c-2 1.33301 -3.33301 2 -4 2s-1 -0.333008 -1 -1c0 -1.33301 6.66699 -8.66602 20 -21.999
c58.667 -58.667 88 -129.334 88 -212.001s-29.333 -153.334 -88 -212.001s-129.334 -88 -212.001 -88s-151.334 27.333 -206.001 82l-8 8c-2.66699 2.66699 -4.33398 4.66699 -5.00098 6zM1528 1270c0 -28.667 -10 -53 -30 -73l-1124 -1124c-20 -20 -44 -30 -72 -30
c-28.667 0 -52.667 10 -72 30c-20 19.333 -30 43.333 -30 72c0 28 10 52 30 72l1124 1124c20 20 44.333 30 73 30c28 0 51.667 -10 71 -30c20 -19.333 30 -43 30 -71zM1330 671c19.333 19.333 42.667 29 70 29c28 0 51.667 -9.83301 71 -29.5s29 -43.167 29 -70.5v-300
c28 0 51.667 -9.83301 71 -29.5s29 -43.167 29 -70.5c0 -28 -9.66699 -51.667 -29 -71s-43 -29 -71 -29v-100c0 -28 -9.66699 -51.667 -29 -71s-43 -29 -71 -29c-27.333 0 -50.833 9.66699 -70.5 29s-29.5 43 -29.5 71v100h-200c-27.333 0 -50.833 9.66699 -70.5 29
s-29.5 43 -29.5 71c0 22.667 6.66699 42.667 20 60l300 401z" />
    <glyph glyph-name="questiondown" unicode="&#xbf;" horiz-adv-x="1026" 
d="M416 922c0 28 10 52 30 72s44 30 72 30s52 -10 72 -30s30 -44 30 -72s-10 -52 -30 -72s-44 -30 -72 -30s-52 10 -72 30s-30 44 -30 72zM935 7c0 -115.333 -40.6689 -213.832 -122.002 -295.499s-179.666 -122.5 -294.999 -122.5s-213.833 40.833 -295.5 122.5
s-122.5 180.167 -122.5 295.5s40.667 213.666 122 294.999c56.667 56 121.334 92.667 194.001 110v110c0 28 10 52 30 72s44 30 72 30c28.667 0 52.834 -10 72.501 -30s29.5 -44 29.5 -72v-200c0 -28 -9.83301 -52 -29.5 -72s-43.834 -30 -72.501 -30
c-8.66699 0 -16.667 1 -24 3c-50 -5.33301 -93.333 -26.333 -130 -63c-42.667 -42 -64 -93 -64 -153s21.333 -111.333 64 -154s94 -64 154 -64s111.167 21.333 153.5 64s63.5 94 63.5 154v1c0 27.333 9.83301 50.833 29.5 70.5s43.167 29.5 70.5 29.5
s50.833 -9.83301 70.5 -29.5s29.5 -43.167 29.5 -70.5v-1z" />
    <glyph glyph-name="Agrave" unicode="&#xc0;" horiz-adv-x="1603" 
d="M457 400l-165.998 -341.999c-4.66699 -10 -11.334 -19.667 -20.001 -29c-20 -19.333 -43.667 -29 -71 -29c-28 0 -51.667 9.83301 -71 29.5s-29 43.167 -29 70.5c0 19.333 5 36.666 15 51.999l593 1222c4.66699 10.667 11.667 20.667 21 30c19.333 20 43 30 71 30
c27.333 0 51 -10 71 -30c8 -8 14.333 -16.667 19 -26l593 -1222c11.333 -16 17 -34.667 17 -56c0 -27.333 -9.83301 -50.833 -29.5 -70.5s-43.167 -29.5 -70.5 -29.5c-28 0 -51.667 9.66699 -71 29c-8.66699 9.33301 -15.334 19 -20.001 29h-1l-166 342h-685zM1045 600.001
l-245 505l-246 -505h491zM636.002 1609c-24.667 14 -40.6689 34.667 -48.002 62c-2.66699 9.33301 -4 18.666 -4 27.999c0 16.667 4.66699 33 14 49c14.667 24.667 35.334 40.667 62.001 48c9.33301 2 18.333 3 27 3c17.333 0 34.333 -4.66699 51 -14l268 -155
c24.667 -14 40.667 -34.333 48 -61c2.66699 -9.33301 4 -18.666 4 -27.999c0 -17.333 -4.66699 -34 -14 -50c-14 -24 -34.667 -39.667 -62 -47c-9.33301 -2.66699 -18.666 -4 -27.999 -4c-17.333 0 -34 4.66699 -50 14z" />
    <glyph glyph-name="Aacute" unicode="&#xc1;" horiz-adv-x="1603" 
d="M457 400l-165.998 -341.999c-4.66699 -10 -11.334 -19.667 -20.001 -29c-20 -19.333 -43.667 -29 -71 -29c-28 0 -51.667 9.83301 -71 29.5s-29 43.167 -29 70.5c0 19.333 5 36.666 15 51.999l593 1222c4.66699 10.667 11.667 20.667 21 30c19.333 20 43 30 71 30
c27.333 0 51 -10 71 -30c8 -8 14.333 -16.667 19 -26l593 -1222c11.333 -16 17 -34.667 17 -56c0 -27.333 -9.83301 -50.833 -29.5 -70.5s-43.167 -29.5 -70.5 -29.5c-28 0 -51.667 9.66699 -71 29c-8.66699 9.33301 -15.334 19 -20.001 29h-1l-166 342h-685zM1045 600.001
l-245 505l-246 -505h491zM706.002 1454c-16 -9.33301 -32.6689 -14 -50.002 -14c-9.33301 0 -18.666 1.33301 -27.999 4c-27.333 7.33301 -48 23 -62 47c-9.33301 16 -14 32.667 -14 50c0 9.33301 1.33301 18.666 4 27.999c7.33301 26.667 23.333 47 48 61l268 155
c16.667 9.33301 33.667 14 51 14c8.66699 0 17.667 -1 27 -3c26.667 -7.33301 47.334 -23.333 62.001 -48c9.33301 -16 14 -32.333 14 -49c0 -9.33301 -1.33301 -18.666 -4 -27.999c-7.33301 -27.333 -23.333 -48 -48 -62z" />
    <glyph glyph-name="Acircumflex" unicode="&#xc2;" horiz-adv-x="1603" 
d="M457 400l-165.998 -341.999c-4.66699 -10 -11.334 -19.667 -20.001 -29c-20 -19.333 -43.667 -29 -71 -29c-28 0 -51.667 9.83301 -71 29.5s-29 43.167 -29 70.5c0 19.333 5 36.666 15 51.999l593 1222c4.66699 10.667 11.667 20.667 21 30c19.333 20 43 30 71 30
c27.333 0 51 -10 71 -30c8 -8 14.333 -16.667 19 -26l593 -1222c11.333 -16 17 -34.667 17 -56c0 -27.333 -9.83301 -50.833 -29.5 -70.5s-43.167 -29.5 -70.5 -29.5c-28 0 -51.667 9.66699 -71 29c-8.66699 9.33301 -15.334 19 -20.001 29h-1l-166 342h-685zM1045 600.001
l-245 505l-246 -505h491zM801.002 1566l-77.001 -77.001c-20 -20 -44 -30 -72 -30c-28.667 0 -52.667 10 -72 30c-20.667 20 -31 43.667 -31 71l1 1c0 28 10 52 30 72l148 148c20 20 44 30.333 72 31c12.667 0 24.334 -2 35.001 -6
c14.667 -5.33301 27.667 -13.666 39 -24.999l148 -148c20 -20 30 -44 30 -72c0 -28.667 -10 -52.667 -30 -72c-20 -20.667 -43.667 -31 -71 -31l-1 1c-28 0 -52 10 -72 30z" />
    <glyph glyph-name="Atilde" unicode="&#xc3;" horiz-adv-x="1603" 
d="M457 400l-165.998 -341.999c-4.66699 -10 -11.334 -19.667 -20.001 -29c-20 -19.333 -43.667 -29 -71 -29c-28 0 -51.667 9.83301 -71 29.5s-29 43.167 -29 70.5c0 19.333 5 36.666 15 51.999l593 1222c4.66699 10.667 11.667 20.667 21 30c19.333 20 43 30 71 30
c27.333 0 51 -10 71 -30c8 -8 14.333 -16.667 19 -26l593 -1222c11.333 -16 17 -34.667 17 -56c0 -27.333 -9.83301 -50.833 -29.5 -70.5s-43.167 -29.5 -70.5 -29.5c-28 0 -51.667 9.66699 -71 29c-8.66699 9.33301 -15.334 19 -20.001 29h-1l-166 342h-685zM1045 600.001
l-245 505l-246 -505h491zM975.002 1610c0 20.667 7.33301 38.334 22 53.001s32.334 22 53.001 22s38.334 -7.33301 53.001 -22s22 -32.334 22 -53.001c0 -55.333 -19.5 -102.5 -58.5 -141.5s-86.167 -58.5 -141.5 -58.5s-102.5 19.5 -141.5 58.5s-58.5 86.167 -58.5 141.5
c0 13.333 -4.83301 25 -14.5 35s-21.5 15 -35.5 15s-25.833 -5 -35.5 -15s-14.5 -21.667 -14.5 -35c0 -20.667 -7.33301 -38.334 -22 -53.001s-32.334 -22 -53.001 -22s-38.334 7.33301 -53.001 22s-22 32.334 -22 53.001c0 55.333 19.5 102.5 58.5 141.5
s86.167 58.5 141.5 58.5s102.5 -19.5 141.5 -58.5s58.5 -86.167 58.5 -141.5c0 -13.333 4.83301 -25 14.5 -35s21.5 -15 35.5 -15s25.833 5 35.5 15s14.5 21.667 14.5 35z" />
    <glyph glyph-name="Adieresis" unicode="&#xc4;" horiz-adv-x="1603" 
d="M457 400l-165.998 -341.999c-4.66699 -10 -11.334 -19.667 -20.001 -29c-20 -19.333 -43.667 -29 -71 -29c-28 0 -51.667 9.83301 -71 29.5s-29 43.167 -29 70.5c0 19.333 5 36.666 15 51.999l593 1222c4.66699 10.667 11.667 20.667 21 30c19.333 20 43 30 71 30
c27.333 0 51 -10 71 -30c8 -8 14.333 -16.667 19 -26l593 -1222c11.333 -16 17 -34.667 17 -56c0 -27.333 -9.83301 -50.833 -29.5 -70.5s-43.167 -29.5 -70.5 -29.5c-28 0 -51.667 9.66699 -71 29c-8.66699 9.33301 -15.334 19 -20.001 29h-1l-166 342h-685zM1045 600.001
l-245 505l-246 -505h491zM720.502 1681c19.667 -19.333 29.5 -43 29.5 -71c0 -27.333 -9.83301 -50.833 -29.5 -70.5s-43.167 -29.5 -70.5 -29.5s-50.833 9.83301 -70.5 29.5s-29.5 43.167 -29.5 70.5c0 28 9.83301 51.667 29.5 71s43.167 29 70.5 29
s50.833 -9.66699 70.5 -29zM1020.5 1681c19.667 -19.333 29.5 -43 29.5 -71c0 -27.333 -9.83301 -50.833 -29.5 -70.5s-43.167 -29.5 -70.5 -29.5s-50.833 9.83301 -70.5 29.5s-29.5 43.167 -29.5 70.5c0 28 9.83301 51.667 29.5 71s43.167 29 70.5 29
s50.833 -9.66699 70.5 -29z" />
    <glyph glyph-name="Aring" unicode="&#xc5;" horiz-adv-x="1603" 
d="M457 400l-165.998 -341.999c-4.66699 -10 -11.334 -19.667 -20.001 -29c-20 -19.333 -43.667 -29 -71 -29c-28 0 -51.667 9.83301 -71 29.5s-29 43.167 -29 70.5c0 19.333 5 36.666 15 51.999l593 1222c4.66699 10.667 11.667 20.667 21 30c19.333 20 43 30 71 30
c27.333 0 51 -10 71 -30c8 -8 14.333 -16.667 19 -26l593 -1222c11.333 -16 17 -34.667 17 -56c0 -27.333 -9.83301 -50.833 -29.5 -70.5s-43.167 -29.5 -70.5 -29.5c-28 0 -51.667 9.66699 -71 29c-8.66699 9.33301 -15.334 19 -20.001 29h-1l-166 342h-685zM1045 600.001
l-245 505l-246 -505h491zM940.002 1773c38.667 -38.667 58 -85.334 58 -140.001s-19.333 -101.334 -58 -140.001s-85.334 -58 -140.001 -58s-101.334 19.333 -140.001 58s-58 85.334 -58 140.001s19.333 101.334 58 140.001s85.334 58 140.001 58
s101.334 -19.333 140.001 -58zM799.002 1715c-22.667 0 -42 -8 -58 -24s-24 -35.333 -24 -58s8 -42.167 24 -58.5s35.333 -24.5 58 -24.5c23.333 0 43 8.16699 59 24.5s24 35.833 24 58.5s-8 42 -24 58s-35.667 24 -59 24z" />
    <glyph glyph-name="AE" unicode="&#xc6;" horiz-adv-x="2003" 
d="M917 1388c4 6 8.33301 11.333 13 16c20 20 44 30 72 30h790c28 0 52 -10 72 -30s30 -44 30 -72s-10 -52 -30 -72s-44 -30 -72 -30h-688v-226h298c28 0 52 -10 72 -30s30 -44 30 -72s-10 -52 -30 -72s-44 -30 -72 -30h-298v-596h688c28 0 52 -10 72 -30s30 -44 30 -72
s-10 -52 -30 -72s-44 -30 -72 -30h-790c-28 0 -52 10 -72 30s-30 44 -30 72v298h-387l-224 -346c-4.66699 -8.66699 -10.667 -17 -18 -25c-20 -19.333 -43.667 -29 -71 -29c-28 0 -51.667 9.66699 -71 29s-29 43 -29 71c0 20.667 5.33301 39 16 55l800 1234zM900 600v396
l-257 -396h257z" />
    <glyph glyph-name="Ccedilla" unicode="&#xc7;" horiz-adv-x="1399" 
d="M704 8c-150 22 -281.335 89.333 -394.002 202c-140 140 -210 309 -210 507s70 367 210 507s309 210 507 210c174 0 325.667 -54 455 -162l-1 -1l2 -2c20 -20 30 -44 30 -72s-10 -52 -30 -72s-44 -30 -72 -30s-52 10 -72 30l-2 2l-1 -1
c-88.667 69.333 -191.667 104 -309 104c-142 0 -263 -50.167 -363 -150.5s-150 -221.166 -150 -362.499s50 -262.166 150 -362.499s221 -150.5 363 -150.5c117.333 0 220.333 34.667 309 104l1 -1l2 2c20 20 44 30 72 30s52 -10 72 -30s30 -44 30 -72s-10 -52 -30 -72l-2 -2
l1 -1c-120.667 -100.667 -260.667 -154.334 -420 -161.001c1.33301 -5.33301 2 -11 2 -17v-25c19.333 -9.33301 37.333 -22 54 -38c36 -37.333 54 -81.666 54 -132.999c0 -52 -18.167 -96.167 -54.5 -132.5s-80.5 -54.5 -132.5 -54.5
c-21.333 0 -39.166 7.16699 -53.499 21.5s-21.5 32.166 -21.5 53.499c0 20 7.16699 37.5 21.5 52.5s32.166 22.5 53.499 22.5c10.667 0 19.5 3.5 26.5 10.5s10.5 15.833 10.5 26.5s-3.33301 19.667 -10 27c-5.33301 5.33301 -11.666 8.66602 -18.999 9.99902h-6
c-10.667 0 -20.667 2 -30 6c-9.33301 3.33301 -17.666 9 -24.999 17c-14.667 14 -22 31.667 -22 53c0 4 0.333008 8.33301 1 13v70c0 8.66699 1 16.667 3 24z" />
    <glyph glyph-name="Egrave" unicode="&#xc8;" horiz-adv-x="1174" 
d="M100 1332c0 28 10 52 30 72s44 30 72 30h790c28 0 52 -10 72 -30s30 -44 30 -72s-10 -52 -30 -72s-44 -30 -72 -30h-688v-226h298c28 0 52 -10 72 -30s30 -44 30 -72s-10 -52 -30 -72s-44 -30 -72 -30h-298v-596h688c28 0 52 -10 72 -30s30 -44 30 -72s-10 -52 -30 -72
s-44 -30 -72 -30h-790c-28 0 -52 10 -72 30s-30 44 -30 72v1230zM333 1609c-24.667 14 -40.6689 34.667 -48.002 62c-2.66699 9.33301 -4 18.666 -4 27.999c0 16.667 4.66699 33 14 49c14.667 24.667 35.334 40.667 62.001 48c9.33301 2 18.333 3 27 3
c17.333 0 34.333 -4.66699 51 -14l268 -155c24.667 -14 40.667 -34.333 48 -61c2.66699 -9.33301 4 -18.666 4 -27.999c0 -17.333 -4.66699 -34 -14 -50c-14 -24 -34.667 -39.667 -62 -47c-9.33301 -2.66699 -18.666 -4 -27.999 -4c-17.333 0 -34 4.66699 -50 14z" />
    <glyph glyph-name="Eacute" unicode="&#xc9;" horiz-adv-x="1174" 
d="M100 1332c0 28 10 52 30 72s44 30 72 30h790c28 0 52 -10 72 -30s30 -44 30 -72s-10 -52 -30 -72s-44 -30 -72 -30h-688v-226h298c28 0 52 -10 72 -30s30 -44 30 -72s-10 -52 -30 -72s-44 -30 -72 -30h-298v-596h688c28 0 52 -10 72 -30s30 -44 30 -72s-10 -52 -30 -72
s-44 -30 -72 -30h-790c-28 0 -52 10 -72 30s-30 44 -30 72v1230zM593 1454c-16 -9.33301 -32.6689 -14 -50.002 -14c-9.33301 0 -18.666 1.33301 -27.999 4c-27.333 7.33301 -48 23 -62 47c-9.33301 16 -14 32.667 -14 50c0 9.33301 1.33301 18.666 4 27.999
c7.33301 26.667 23.333 47 48 61l268 155c16.667 9.33301 33.667 14 51 14c8.66699 0 17.667 -1 27 -3c26.667 -7.33301 47.334 -23.333 62.001 -48c9.33301 -16 14 -32.333 14 -49c0 -9.33301 -1.33301 -18.666 -4 -27.999c-7.33301 -27.333 -23.333 -48 -48 -62z" />
    <glyph glyph-name="Ecircumflex" unicode="&#xca;" horiz-adv-x="1174" 
d="M100 1332c0 28 10 52 30 72s44 30 72 30h790c28 0 52 -10 72 -30s30 -44 30 -72s-10 -52 -30 -72s-44 -30 -72 -30h-688v-226h298c28 0 52 -10 72 -30s30 -44 30 -72s-10 -52 -30 -72s-44 -30 -72 -30h-298v-596h688c28 0 52 -10 72 -30s30 -44 30 -72s-10 -52 -30 -72
s-44 -30 -72 -30h-790c-28 0 -52 10 -72 30s-30 44 -30 72v1230zM598 1566l-77.001 -77.001c-20 -20 -44 -30 -72 -30c-28.667 0 -52.667 10 -72 30c-20.667 20 -31 43.667 -31 71l1 1c0 28 10 52 30 72l148 148c20 20 44 30.333 72 31c12.667 0 24.334 -2 35.001 -6
c14.667 -5.33301 27.667 -13.666 39 -24.999l148 -148c20 -20 30 -44 30 -72c0 -28.667 -10 -52.667 -30 -72c-20 -20.667 -43.667 -31 -71 -31l-1 1c-28 0 -52 10 -72 30z" />
    <glyph glyph-name="Edieresis" unicode="&#xcb;" horiz-adv-x="1174" 
d="M100 1332c0 28 10 52 30 72s44 30 72 30h790c28 0 52 -10 72 -30s30 -44 30 -72s-10 -52 -30 -72s-44 -30 -72 -30h-688v-226h298c28 0 52 -10 72 -30s30 -44 30 -72s-10 -52 -30 -72s-44 -30 -72 -30h-298v-596h688c28 0 52 -10 72 -30s30 -44 30 -72s-10 -52 -30 -72
s-44 -30 -72 -30h-790c-28 0 -52 10 -72 30s-30 44 -30 72v1230zM517.5 1681c19.667 -19.333 29.5 -43 29.5 -71c0 -27.333 -9.83301 -50.833 -29.5 -70.5s-43.167 -29.5 -70.5 -29.5s-50.833 9.83301 -70.5 29.5s-29.5 43.167 -29.5 70.5c0 28 9.83301 51.667 29.5 71
s43.167 29 70.5 29s50.833 -9.66699 70.5 -29zM817.5 1681c19.667 -19.333 29.5 -43 29.5 -71c0 -27.333 -9.83301 -50.833 -29.5 -70.5s-43.167 -29.5 -70.5 -29.5s-50.833 9.83301 -70.5 29.5s-29.5 43.167 -29.5 70.5c0 28 9.83301 51.667 29.5 71s43.167 29 70.5 29
s50.833 -9.66699 70.5 -29z" />
    <glyph glyph-name="Igrave" unicode="&#xcc;" horiz-adv-x="401" 
d="M274 1404c20 -20 30 -44 30 -72v-1230c0 -28 -10 -52 -30 -72s-44 -30 -72 -30s-52 10 -72 30s-30 44 -30 72v1230c0 28 10 52 30 72s44 30 72 30s52 -10 72 -30zM-62 1609c-24.667 14 -40.6689 34.667 -48.002 62c-2.66699 9.33301 -4 18.666 -4 27.999
c0 16.667 4.66699 33 14 49c14.667 24.667 35.334 40.667 62.001 48c9.33301 2 18.333 3 27 3c17.333 0 34.333 -4.66699 51 -14l268 -155c24.667 -14 40.667 -34.333 48 -61c2.66699 -9.33301 4 -18.666 4 -27.999c0 -17.333 -4.66699 -34 -14 -50
c-14 -24 -34.667 -39.667 -62 -47c-9.33301 -2.66699 -18.666 -4 -27.999 -4c-17.333 0 -34 4.66699 -50 14z" />
    <glyph glyph-name="Iacute" unicode="&#xcd;" horiz-adv-x="401" 
d="M274 1404c20 -20 30 -44 30 -72v-1230c0 -28 -10 -52 -30 -72s-44 -30 -72 -30s-52 10 -72 30s-30 44 -30 72v1230c0 28 10 52 30 72s44 30 72 30s52 -10 72 -30zM198 1454c-16 -9.33301 -32.6689 -14 -50.002 -14c-9.33301 0 -18.666 1.33301 -27.999 4
c-27.333 7.33301 -48 23 -62 47c-9.33301 16 -14 32.667 -14 50c0 9.33301 1.33301 18.666 4 27.999c7.33301 26.667 23.333 47 48 61l268 155c16.667 9.33301 33.667 14 51 14c8.66699 0 17.667 -1 27 -3c26.667 -7.33301 47.334 -23.333 62.001 -48
c9.33301 -16 14 -32.333 14 -49c0 -9.33301 -1.33301 -18.666 -4 -27.999c-7.33301 -27.333 -23.333 -48 -48 -62z" />
    <glyph glyph-name="Icircumflex" unicode="&#xce;" horiz-adv-x="401" 
d="M275 1404c20 -20 30 -44 30 -72v-1230c0 -28 -10 -52 -30 -72s-44 -30 -72 -30s-52 10 -72 30s-30 44 -30 72v1230c0 28 10 52 30 72s44 30 72 30s52 -10 72 -30zM203 1566l-77.001 -77.001c-20 -20 -44 -30 -72 -30c-28.667 0 -52.667 10 -72 30
c-20.667 20 -31 43.667 -31 71l1 1c0 28 10 52 30 72l148 148c20 20 44 30.333 72 31c12.667 0 24.334 -2 35.001 -6c14.667 -5.33301 27.667 -13.666 39 -24.999l148 -148c20 -20 30 -44 30 -72c0 -28.667 -10 -52.667 -30 -72c-20 -20.667 -43.667 -31 -71 -31l-1 1
c-28 0 -52 10 -72 30z" />
    <glyph glyph-name="Idieresis" unicode="&#xcf;" horiz-adv-x="401" 
d="M274 1404c20 -20 30 -44 30 -72v-1230c0 -28 -10 -52 -30 -72s-44 -30 -72 -30s-52 10 -72 30s-30 44 -30 72v1230c0 28 10 52 30 72s44 30 72 30s52 -10 72 -30zM122.5 1681c19.667 -19.333 29.5 -43 29.5 -71c0 -27.333 -9.83301 -50.833 -29.5 -70.5
s-43.167 -29.5 -70.5 -29.5s-50.833 9.83301 -70.5 29.5s-29.5 43.167 -29.5 70.5c0 28 9.83301 51.667 29.5 71s43.167 29 70.5 29s50.833 -9.66699 70.5 -29zM422.5 1681c19.667 -19.333 29.5 -43 29.5 -71c0 -27.333 -9.83301 -50.833 -29.5 -70.5
s-43.167 -29.5 -70.5 -29.5s-50.833 9.83301 -70.5 29.5s-29.5 43.167 -29.5 70.5c0 28 9.83301 51.667 29.5 71s43.167 29 70.5 29s50.833 -9.66699 70.5 -29z" />
    <glyph glyph-name="Eth" unicode="&#xd0;" horiz-adv-x="1399" 
d="M300 804v528c0 28 10 52 30 72s44 30 72 30h395c198 0 367 -70 507 -210s210 -309 210 -507s-70 -367 -210 -507s-309 -210 -507 -210h-395c-28 0 -52 10 -72 30s-30 44 -30 72v498h-98c-28 0 -52 10 -72 30s-30 44 -30 72s10 52 30 72s44 30 72 30h98zM504 804
l288 0.00195312c28 0 52 -10 72 -30s30 -44 30 -72s-10 -52 -30 -72s-44 -30 -72 -30h-288v-396h293c141.333 0 262.166 50.167 362.499 150.5s150.5 221.166 150.5 362.499s-50.167 262.166 -150.5 362.499s-221.166 150.5 -362.499 150.5h-293v-426z" />
    <glyph glyph-name="Ntilde" unicode="&#xd1;" horiz-adv-x="1399" 
d="M304 1046l0.000976562 -944c0 -28 -10 -52 -30 -72s-44 -30 -72 -30s-52 10 -72 30s-30 44 -30 72v1230c0 28 10 52 30 72s44 30 72 30s52 -10 72 -30c8 -8 14.333 -16.667 19 -26l807 -996v950c0 28 10 52 30 72s44 30 72 30s52 -10 72 -30s30 -44 30 -72v-1230
c0 -28 -10 -52 -30 -72s-44 -30 -72 -30s-52 10 -72 30c-2.66699 2.66699 -5.33398 5 -8.00098 7zM877.001 1610c0 20.667 7.33301 38.334 22 53.001s32.334 22 53.001 22s38.334 -7.33301 53.001 -22s22 -32.334 22 -53.001c0 -55.333 -19.5 -102.5 -58.5 -141.5
s-86.167 -58.5 -141.5 -58.5s-102.5 19.5 -141.5 58.5s-58.5 86.167 -58.5 141.5c0 13.333 -4.83301 25 -14.5 35s-21.5 15 -35.5 15s-25.833 -5 -35.5 -15s-14.5 -21.667 -14.5 -35c0 -20.667 -7.33301 -38.334 -22 -53.001s-32.334 -22 -53.001 -22
s-38.334 7.33301 -53.001 22s-22 32.334 -22 53.001c0 55.333 19.5 102.5 58.5 141.5s86.167 58.5 141.5 58.5s102.5 -19.5 141.5 -58.5s58.5 -86.167 58.5 -141.5c0 -13.333 4.83301 -25 14.5 -35s21.5 -15 35.5 -15s25.833 5 35.5 15s14.5 21.667 14.5 35z" />
    <glyph glyph-name="Ograve" unicode="&#xd2;" horiz-adv-x="1652" 
d="M1324 1224c140 -140 210 -309 210 -507s-70 -367 -210 -507s-309 -210 -507 -210s-367 70 -507 210s-210 309 -210 507s70 367 210 507s309 210 507 210s367 -70 507 -210zM817 1230c-142 0 -263 -50.167 -363 -150.5s-150 -221.166 -150 -362.499
s50 -262.166 150 -362.499s221 -150.5 363 -150.5c141.333 0 262.166 50.167 362.499 150.5s150.5 221.166 150.5 362.499s-50.167 262.166 -150.5 362.499s-221.166 150.5 -362.499 150.5zM553 1609c-24.667 14 -40.6689 34.667 -48.002 62
c-2.66699 9.33301 -4 18.666 -4 27.999c0 16.667 4.66699 33 14 49c14.667 24.667 35.334 40.667 62.001 48c9.33301 2 18.333 3 27 3c17.333 0 34.333 -4.66699 51 -14l268 -155c24.667 -14 40.667 -34.333 48 -61c2.66699 -9.33301 4 -18.666 4 -27.999
c0 -17.333 -4.66699 -34 -14 -50c-14 -24 -34.667 -39.667 -62 -47c-9.33301 -2.66699 -18.666 -4 -27.999 -4c-17.333 0 -34 4.66699 -50 14z" />
    <glyph glyph-name="Oacute" unicode="&#xd3;" horiz-adv-x="1652" 
d="M1324 1224c140 -140 210 -309 210 -507s-70 -367 -210 -507s-309 -210 -507 -210s-367 70 -507 210s-210 309 -210 507s70 367 210 507s309 210 507 210s367 -70 507 -210zM817 1230c-142 0 -263 -50.167 -363 -150.5s-150 -221.166 -150 -362.499
s50 -262.166 150 -362.499s221 -150.5 363 -150.5c141.333 0 262.166 50.167 362.499 150.5s150.5 221.166 150.5 362.499s-50.167 262.166 -150.5 362.499s-221.166 150.5 -362.499 150.5zM813 1454c-16 -9.33301 -32.6689 -14 -50.002 -14
c-9.33301 0 -18.666 1.33301 -27.999 4c-27.333 7.33301 -48 23 -62 47c-9.33301 16 -14 32.667 -14 50c0 9.33301 1.33301 18.666 4 27.999c7.33301 26.667 23.333 47 48 61l268 155c16.667 9.33301 33.667 14 51 14c8.66699 0 17.667 -1 27 -3
c26.667 -7.33301 47.334 -23.333 62.001 -48c9.33301 -16 14 -32.333 14 -49c0 -9.33301 -1.33301 -18.666 -4 -27.999c-7.33301 -27.333 -23.333 -48 -48 -62z" />
    <glyph glyph-name="Ocircumflex" unicode="&#xd4;" horiz-adv-x="1652" 
d="M1324 1224c140 -140 210 -309 210 -507s-70 -367 -210 -507s-309 -210 -507 -210s-367 70 -507 210s-210 309 -210 507s70 367 210 507s309 210 507 210s367 -70 507 -210zM817 1230c-142 0 -263 -50.167 -363 -150.5s-150 -221.166 -150 -362.499
s50 -262.166 150 -362.499s221 -150.5 363 -150.5c141.333 0 262.166 50.167 362.499 150.5s150.5 221.166 150.5 362.499s-50.167 262.166 -150.5 362.499s-221.166 150.5 -362.499 150.5zM818 1566l-77.001 -77.001c-20 -20 -44 -30 -72 -30c-28.667 0 -52.667 10 -72 30
c-20.667 20 -31 43.667 -31 71l1 1c0 28 10 52 30 72l148 148c20 20 44 30.333 72 31c12.667 0 24.334 -2 35.001 -6c14.667 -5.33301 27.667 -13.666 39 -24.999l148 -148c20 -20 30 -44 30 -72c0 -28.667 -10 -52.667 -30 -72c-20 -20.667 -43.667 -31 -71 -31l-1 1
c-28 0 -52 10 -72 30z" />
    <glyph glyph-name="Otilde" unicode="&#xd5;" horiz-adv-x="1652" 
d="M1324 1224c140 -140 210 -309 210 -507s-70 -367 -210 -507s-309 -210 -507 -210s-367 70 -507 210s-210 309 -210 507s70 367 210 507s309 210 507 210s367 -70 507 -210zM817 1230c-142 0 -263 -50.167 -363 -150.5s-150 -221.166 -150 -362.499
s50 -262.166 150 -362.499s221 -150.5 363 -150.5c141.333 0 262.166 50.167 362.499 150.5s150.5 221.166 150.5 362.499s-50.167 262.166 -150.5 362.499s-221.166 150.5 -362.499 150.5zM999 1632c0 20.667 7.33301 38.334 22 53.001s32.334 22 53.001 22
s38.334 -7.33301 53.001 -22s22 -32.334 22 -53.001c0 -55.333 -19.5 -102.5 -58.5 -141.5s-86.167 -58.5 -141.5 -58.5s-102.5 19.5 -141.5 58.5s-58.5 86.167 -58.5 141.5c0 13.333 -4.83301 25 -14.5 35s-21.5 15 -35.5 15s-25.833 -5 -35.5 -15s-14.5 -21.667 -14.5 -35
c0 -20.667 -7.33301 -38.334 -22 -53.001s-32.334 -22 -53.001 -22s-38.334 7.33301 -53.001 22s-22 32.334 -22 53.001c0 55.333 19.5 102.5 58.5 141.5s86.167 58.5 141.5 58.5s102.5 -19.5 141.5 -58.5s58.5 -86.167 58.5 -141.5c0 -13.333 4.83301 -25 14.5 -35
s21.5 -15 35.5 -15s25.833 5 35.5 15s14.5 21.667 14.5 35z" />
    <glyph glyph-name="Odieresis" unicode="&#xd6;" horiz-adv-x="1652" 
d="M1324 1224c140 -140 210 -309 210 -507s-70 -367 -210 -507s-309 -210 -507 -210s-367 70 -507 210s-210 309 -210 507s70 367 210 507s309 210 507 210s367 -70 507 -210zM817 1230c-142 0 -263 -50.167 -363 -150.5s-150 -221.166 -150 -362.499
s50 -262.166 150 -362.499s221 -150.5 363 -150.5c141.333 0 262.166 50.167 362.499 150.5s150.5 221.166 150.5 362.499s-50.167 262.166 -150.5 362.499s-221.166 150.5 -362.499 150.5zM737.5 1681c19.667 -19.333 29.5 -43 29.5 -71
c0 -27.333 -9.83301 -50.833 -29.5 -70.5s-43.167 -29.5 -70.5 -29.5s-50.833 9.83301 -70.5 29.5s-29.5 43.167 -29.5 70.5c0 28 9.83301 51.667 29.5 71s43.167 29 70.5 29s50.833 -9.66699 70.5 -29zM1037.5 1681c19.667 -19.333 29.5 -43 29.5 -71
c0 -27.333 -9.83301 -50.833 -29.5 -70.5s-43.167 -29.5 -70.5 -29.5s-50.833 9.83301 -70.5 29.5s-29.5 43.167 -29.5 70.5c0 28 9.83301 51.667 29.5 71s43.167 29 70.5 29s50.833 -9.66699 70.5 -29z" />
    <glyph glyph-name="multiply" unicode="&#xd7;" horiz-adv-x="682" 
d="M336 553l-69 -70c-20 -20 -44 -30 -72 -30l-1 1c-28 0 -52 9.66699 -72 29c-19.333 20 -29 44 -29 72l-1 1c0 28 10 52 30 72l70 69l-70 69c-19.333 20 -29 44 -29 72l-1 1c0 28 10 52 30 72c20 19.333 44.333 29 73 29c28 0 52 -9.66699 72 -29l69 -70l69 70
c20 19.333 44.333 29 73 29c28 0 51.667 -9.66699 71 -29c20 -20 30 -44 30 -72c0 -28.667 -10 -53 -30 -73l-69 -69l69 -69c20 -20 30 -44 30 -72c0 -28.667 -10 -53 -30 -73s-43.667 -30 -71 -30l-1 1c-28 0 -52 9.66699 -72 29z" />
    <glyph glyph-name="Oslash" unicode="&#xd8;" horiz-adv-x="1652" 
d="M986 1203c-52.667 18 -109 26.999 -169 26.999c-142 0 -263 -50.167 -363 -150.5s-150 -221.166 -150 -362.499s50 -262 150 -362c8.66699 -9.33301 17.667 -18 27 -26zM658 227.999c50 -16 103.001 -23.999 159.001 -23.999c141.333 0 262.166 50.167 362.499 150.5
s150.5 221.166 150.5 362.499s-50 262.333 -150 363c-6.66699 6 -13 12 -19 18zM1265 1278c20 -16.667 39.667 -34.666 59 -53.999c140 -140 210 -309 210 -507s-70 -367 -210 -507s-309 -210 -507 -210c-94 0 -181.667 15.667 -263 47l-46 -80
c-14 -24 -34.667 -39.667 -62 -47c-9.33301 -2.66699 -18.666 -4 -27.999 -4c-17.333 0 -34 4.66699 -50 14c-24 14 -39.667 34.667 -47 62c-2.66699 9.33301 -4 18.666 -4 27.999c0 16.667 4.66699 33 14 49l47 81c-23.333 18 -46 38 -68 60c-140 140 -210 309 -210 507
s70 367 210 507s309 210 507 210c98 0 188.667 -17 272 -51l37 63c14 24.667 34.667 40.667 62 48c9.33301 2.66699 18.666 4 27.999 4c16.667 0 33 -4.66699 49 -14c24.667 -14.667 40.667 -35.334 48 -62.001c2.66699 -9.33301 4 -18.666 4 -27.999
c0 -17.333 -4.66699 -34 -14 -50z" />
    <glyph glyph-name="Ugrave" unicode="&#xd9;" 
d="M593 0c-140.667 8 -256.332 57.333 -346.999 148c-96 96 -144.667 212 -146 348v836c0 32 10 57 30 75s44 27 72 27s52 -9 72 -27s30 -42.333 30 -73v-836c0 -6 -0.333008 -12 -1 -18c4 -73.333 32.667 -136.333 86 -189c58 -58 128 -87 210 -87h4c82 0 152 29 210 87
c53.333 52.667 82 115.667 86 189c-0.666992 6 -1 12 -1 18v836c0 30.667 10 55 30 73s44 27 72 27s52 -9 72 -27s30 -43 30 -75v-836c-1.33301 -136 -50 -252 -146 -348c-90.667 -90.667 -206.334 -140 -347.001 -148h-16zM337.002 1609
c-24.667 14 -40.6689 34.667 -48.002 62c-2.66699 9.33301 -4 18.666 -4 27.999c0 16.667 4.66699 33 14 49c14.667 24.667 35.334 40.667 62.001 48c9.33301 2 18.333 3 27 3c17.333 0 34.333 -4.66699 51 -14l268 -155c24.667 -14 40.667 -34.333 48 -61
c2.66699 -9.33301 4 -18.666 4 -27.999c0 -17.333 -4.66699 -34 -14 -50c-14 -24 -34.667 -39.667 -62 -47c-9.33301 -2.66699 -18.666 -4 -27.999 -4c-17.333 0 -34 4.66699 -50 14z" />
    <glyph glyph-name="Uacute" unicode="&#xda;" 
d="M593 0c-140.667 8 -256.332 57.333 -346.999 148c-96 96 -144.667 212 -146 348v836c0 32 10 57 30 75s44 27 72 27s52 -9 72 -27s30 -42.333 30 -73v-836c0 -6 -0.333008 -12 -1 -18c4 -73.333 32.667 -136.333 86 -189c58 -58 128 -87 210 -87h4c82 0 152 29 210 87
c53.333 52.667 82 115.667 86 189c-0.666992 6 -1 12 -1 18v836c0 30.667 10 55 30 73s44 27 72 27s52 -9 72 -27s30 -43 30 -75v-836c-1.33301 -136 -50 -252 -146 -348c-90.667 -90.667 -206.334 -140 -347.001 -148h-16zM597.002 1454
c-16 -9.33301 -32.6689 -14 -50.002 -14c-9.33301 0 -18.666 1.33301 -27.999 4c-27.333 7.33301 -48 23 -62 47c-9.33301 16 -14 32.667 -14 50c0 9.33301 1.33301 18.666 4 27.999c7.33301 26.667 23.333 47 48 61l268 155c16.667 9.33301 33.667 14 51 14
c8.66699 0 17.667 -1 27 -3c26.667 -7.33301 47.334 -23.333 62.001 -48c9.33301 -16 14 -32.333 14 -49c0 -9.33301 -1.33301 -18.666 -4 -27.999c-7.33301 -27.333 -23.333 -48 -48 -62z" />
    <glyph glyph-name="Ucircumflex" unicode="&#xdb;" 
d="M593 0c-140.667 8 -256.332 57.333 -346.999 148c-96 96 -144.667 212 -146 348v836c0 32 10 57 30 75s44 27 72 27s52 -9 72 -27s30 -42.333 30 -73v-836c0 -6 -0.333008 -12 -1 -18c4 -73.333 32.667 -136.333 86 -189c58 -58 128 -87 210 -87h4c82 0 152 29 210 87
c53.333 52.667 82 115.667 86 189c-0.666992 6 -1 12 -1 18v836c0 30.667 10 55 30 73s44 27 72 27s52 -9 72 -27s30 -43 30 -75v-836c-1.33301 -136 -50 -252 -146 -348c-90.667 -90.667 -206.334 -140 -347.001 -148h-16zM602.002 1566l-77.001 -77.001
c-20 -20 -44 -30 -72 -30c-28.667 0 -52.667 10 -72 30c-20.667 20 -31 43.667 -31 71l1 1c0 28 10 52 30 72l148 148c20 20 44 30.333 72 31c12.667 0 24.334 -2 35.001 -6c14.667 -5.33301 27.667 -13.666 39 -24.999l148 -148c20 -20 30 -44 30 -72
c0 -28.667 -10 -52.667 -30 -72c-20 -20.667 -43.667 -31 -71 -31l-1 1c-28 0 -52 10 -72 30z" />
    <glyph glyph-name="Udieresis" unicode="&#xdc;" 
d="M593 0c-140.667 8 -256.332 57.333 -346.999 148c-96 96 -144.667 212 -146 348v836c0 32 10 57 30 75s44 27 72 27s52 -9 72 -27s30 -42.333 30 -73v-836c0 -6 -0.333008 -12 -1 -18c4 -73.333 32.667 -136.333 86 -189c58 -58 128 -87 210 -87h4c82 0 152 29 210 87
c53.333 52.667 82 115.667 86 189c-0.666992 6 -1 12 -1 18v836c0 30.667 10 55 30 73s44 27 72 27s52 -9 72 -27s30 -43 30 -75v-836c-1.33301 -136 -50 -252 -146 -348c-90.667 -90.667 -206.334 -140 -347.001 -148h-16zM521.502 1681c19.667 -19.333 29.5 -43 29.5 -71
c0 -27.333 -9.83301 -50.833 -29.5 -70.5s-43.167 -29.5 -70.5 -29.5s-50.833 9.83301 -70.5 29.5s-29.5 43.167 -29.5 70.5c0 28 9.83301 51.667 29.5 71s43.167 29 70.5 29s50.833 -9.66699 70.5 -29zM821.502 1681c19.667 -19.333 29.5 -43 29.5 -71
c0 -27.333 -9.83301 -50.833 -29.5 -70.5s-43.167 -29.5 -70.5 -29.5s-50.833 9.83301 -70.5 29.5s-29.5 43.167 -29.5 70.5c0 28 9.83301 51.667 29.5 71s43.167 29 70.5 29s50.833 -9.66699 70.5 -29z" />
    <glyph glyph-name="Yacute" unicode="&#xdd;" 
d="M100 1334c0 27.333 9.83398 50.833 29.501 70.5s43.167 29.5 70.5 29.5c28 0 51.667 -9.66699 71 -29c8 -8 14.333 -16.667 19 -26l310 -453l317 464c4 5.33301 8.33301 10.333 13 15c19.333 19.333 42.666 29 69.999 29c28 0 51.667 -9.83301 71 -29.5
s29 -43.167 29 -70.5c0 -25.333 -8 -47 -24 -65l-376 -550v-619c0 -28 -9.66699 -51.667 -29 -71s-43 -29 -71 -29c-27.333 0 -50.833 9.66699 -70.5 29s-29.5 43 -29.5 71v618l-383 559c-11.333 16.667 -17 35.667 -17 57zM596.001 1454
c-16 -9.33301 -32.6689 -14 -50.002 -14c-9.33301 0 -18.666 1.33301 -27.999 4c-27.333 7.33301 -48 23 -62 47c-9.33301 16 -14 32.667 -14 50c0 9.33301 1.33301 18.666 4 27.999c7.33301 26.667 23.333 47 48 61l268 155c16.667 9.33301 33.667 14 51 14
c8.66699 0 17.667 -1 27 -3c26.667 -7.33301 47.334 -23.333 62.001 -48c9.33301 -16 14 -32.333 14 -49c0 -9.33301 -1.33301 -18.666 -4 -27.999c-7.33301 -27.333 -23.333 -48 -48 -62z" />
    <glyph glyph-name="Thorn" unicode="&#xde;" horiz-adv-x="1111" 
d="M304 1234l308 0.999023c115.333 0 213.833 -40.667 295.5 -122s122.5 -179.666 122.5 -294.999s-40.833 -213.833 -122.5 -295.5s-180.167 -122.5 -295.5 -122.5h-308v-498c0 -28 -10 -52 -30 -72s-44 -30 -72 -30s-52 10 -72 30s-30 44 -30 72v1600c0 28 10 52 30 72
s44 30 72 30s52 -10 72 -30s30 -44 30 -72v-268zM304 600.999l308 0.000976562c60 0 111.167 21.167 153.5 63.5s63.5 93.5 63.5 153.5c0 59.333 -21.167 110.166 -63.5 152.499s-93.5 63.5 -153.5 63.5h-308v-433z" />
    <glyph glyph-name="germandbls" unicode="&#xdf;" horiz-adv-x="1075" 
d="M600 207c41.333 0 76.6641 14.6689 105.997 44.002s44 64.666 44 105.999s-14.667 76.666 -44 105.999s-64.666 44 -105.999 44c-69.333 0 -128.333 24.5 -177 73.5s-73 107.833 -73 176.5c0 67.333 22.667 124.666 68 171.999l117 134l1 1
c19.333 19.333 29 42.666 29 69.999c0 28 -9.83301 51.667 -29.5 71s-43.167 29 -70.5 29h-15c-41.333 0 -76.666 -14.667 -105.999 -44s-44 -64.666 -44 -105.999l4 -982c0 -28 -10 -52 -30 -72s-44 -30 -72 -30s-52 10 -72 30s-30 44 -30 72v982
c0 96.667 34.167 179.167 102.5 247.5s150.833 102.5 247.5 102.5h15c82.667 0 153.334 -29.167 212.001 -87.5s88 -129.166 88 -212.499c0 -82.667 -35.833 -163 -107.5 -241s-107.5 -123.333 -107.5 -136c0 -14 4.83301 -25.833 14.5 -35.5s21.5 -14.5 35.5 -14.5
c96.667 0 179.167 -34.167 247.5 -102.5s102.5 -150.833 102.5 -247.5s-34.167 -179.167 -102.5 -247.5s-150.833 -102.5 -247.5 -102.5c-28 0 -51.667 9.66699 -71 29s-29 43 -29 71c0 27.333 9.66699 50.833 29 70.5s43 29.5 71 29.5z" />
    <glyph glyph-name="agrave" unicode="&#xe0;" 
d="M809 709c-58 58 -127.999 87 -209.999 87s-151.833 -28.833 -209.5 -86.5s-86.5 -127.5 -86.5 -209.5s28.833 -152 86.5 -210s127.5 -87 209.5 -87s152 29 210 87c49.333 49.333 77.666 107.333 84.999 174v38c0 6 0.333008 12 1 18c-4 73.333 -32.667 136.333 -86 189z
M1098 98c0 -38.667 -10.001 -64.666 -30.001 -77.999s-44 -20 -72 -20s-52 6.66699 -72 20s-30 38.666 -30 75.999c-85.333 -64 -183.666 -96 -294.999 -96c-138 0 -255.667 48.667 -353 146s-146 215 -146 353s48.667 255.667 146 353s215 146 353 146
s255.667 -48.667 353 -146c96 -96 144.667 -212 146 -348v-406zM335 1199c-24.667 14 -40.6689 34.667 -48.002 62c-2.66699 9.33301 -4 18.666 -4 27.999c0 16.667 4.66699 33 14 49c14.667 24.667 35.334 40.667 62.001 48c9.33301 2 18.333 3 27 3
c17.333 0 34.333 -4.66699 51 -14l268 -155c24.667 -14 40.667 -34.333 48 -61c2.66699 -9.33301 4 -18.666 4 -27.999c0 -17.333 -4.66699 -34 -14 -50c-14 -24 -34.667 -39.667 -62 -47c-9.33301 -2.66699 -18.666 -4 -27.999 -4c-17.333 0 -34 4.66699 -50 14z" />
    <glyph glyph-name="aacute" unicode="&#xe1;" 
d="M809 709c-58 58 -127.999 87 -209.999 87s-151.833 -28.833 -209.5 -86.5s-86.5 -127.5 -86.5 -209.5s28.833 -152 86.5 -210s127.5 -87 209.5 -87s152 29 210 87c49.333 49.333 77.666 107.333 84.999 174v38c0 6 0.333008 12 1 18c-4 73.333 -32.667 136.333 -86 189z
M1098 98c0 -38.667 -10.001 -64.666 -30.001 -77.999s-44 -20 -72 -20s-52 6.66699 -72 20s-30 38.666 -30 75.999c-85.333 -64 -183.666 -96 -294.999 -96c-138 0 -255.667 48.667 -353 146s-146 215 -146 353s48.667 255.667 146 353s215 146 353 146
s255.667 -48.667 353 -146c96 -96 144.667 -212 146 -348v-406zM595 1044c-16 -9.33301 -32.6689 -14 -50.002 -14c-9.33301 0 -18.666 1.33301 -27.999 4c-27.333 7.33301 -48 23 -62 47c-9.33301 16 -14 32.667 -14 50c0 9.33301 1.33301 18.666 4 27.999
c7.33301 26.667 23.333 47 48 61l268 155c16.667 9.33301 33.667 14 51 14c8.66699 0 17.667 -1 27 -3c26.667 -7.33301 47.334 -23.333 62.001 -48c9.33301 -16 14 -32.333 14 -49c0 -9.33301 -1.33301 -18.666 -4 -27.999c-7.33301 -27.333 -23.333 -48 -48 -62z" />
    <glyph glyph-name="acircumflex" unicode="&#xe2;" 
d="M809 709c-58 58 -127.999 87 -209.999 87s-151.833 -28.833 -209.5 -86.5s-86.5 -127.5 -86.5 -209.5s28.833 -152 86.5 -210s127.5 -87 209.5 -87s152 29 210 87c49.333 49.333 77.666 107.333 84.999 174v38c0 6 0.333008 12 1 18c-4 73.333 -32.667 136.333 -86 189z
M1098 98c0 -38.667 -10.001 -64.666 -30.001 -77.999s-44 -20 -72 -20s-52 6.66699 -72 20s-30 38.666 -30 75.999c-85.333 -64 -183.666 -96 -294.999 -96c-138 0 -255.667 48.667 -353 146s-146 215 -146 353s48.667 255.667 146 353s215 146 353 146
s255.667 -48.667 353 -146c96 -96 144.667 -212 146 -348v-406zM600 1156l-77.001 -77.001c-20 -20 -44 -30 -72 -30c-28.667 0 -52.667 10 -72 30c-20.667 20 -31 43.667 -31 71l1 1c0 28 10 52 30 72l148 148c20 20 44 30.333 72 31c12.667 0 24.334 -2 35.001 -6
c14.667 -5.33301 27.667 -13.666 39 -24.999l148 -148c20 -20 30 -44 30 -72c0 -28.667 -10 -52.667 -30 -72c-20 -20.667 -43.667 -31 -71 -31l-1 1c-28 0 -52 10 -72 30z" />
    <glyph glyph-name="atilde" unicode="&#xe3;" 
d="M809 709c-58 58 -127.999 87 -209.999 87s-151.833 -28.833 -209.5 -86.5s-86.5 -127.5 -86.5 -209.5s28.833 -152 86.5 -210s127.5 -87 209.5 -87s152 29 210 87c49.333 49.333 77.666 107.333 84.999 174v38c0 6 0.333008 12 1 18c-4 73.333 -32.667 136.333 -86 189z
M1098 98c0 -38.667 -10.001 -64.666 -30.001 -77.999s-44 -20 -72 -20s-52 6.66699 -72 20s-30 38.666 -30 75.999c-85.333 -64 -183.666 -96 -294.999 -96c-138 0 -255.667 48.667 -353 146s-146 215 -146 353s48.667 255.667 146 353s215 146 353 146
s255.667 -48.667 353 -146c96 -96 144.667 -212 146 -348v-406zM774 1200c0 20.667 7.33301 38.334 22 53.001s32.334 22 53.001 22s38.334 -7.33301 53.001 -22s22 -32.334 22 -53.001c0 -55.333 -19.5 -102.5 -58.5 -141.5s-86.167 -58.5 -141.5 -58.5
s-102.5 19.5 -141.5 58.5s-58.5 86.167 -58.5 141.5c0 13.333 -4.83301 25 -14.5 35s-21.5 15 -35.5 15s-25.833 -5 -35.5 -15s-14.5 -21.667 -14.5 -35c0 -20.667 -7.33301 -38.334 -22 -53.001s-32.334 -22 -53.001 -22s-38.334 7.33301 -53.001 22s-22 32.334 -22 53.001
c0 55.333 19.5 102.5 58.5 141.5s86.167 58.5 141.5 58.5s102.5 -19.5 141.5 -58.5s58.5 -86.167 58.5 -141.5c0 -13.333 4.83301 -25 14.5 -35s21.5 -15 35.5 -15s25.833 5 35.5 15s14.5 21.667 14.5 35z" />
    <glyph glyph-name="adieresis" unicode="&#xe4;" 
d="M809 709c-58 58 -127.999 87 -209.999 87s-151.833 -28.833 -209.5 -86.5s-86.5 -127.5 -86.5 -209.5s28.833 -152 86.5 -210s127.5 -87 209.5 -87s152 29 210 87c49.333 49.333 77.666 107.333 84.999 174v38c0 6 0.333008 12 1 18c-4 73.333 -32.667 136.333 -86 189z
M1098 98c0 -38.667 -10.001 -64.666 -30.001 -77.999s-44 -20 -72 -20s-52 6.66699 -72 20s-30 38.666 -30 75.999c-85.333 -64 -183.666 -96 -294.999 -96c-138 0 -255.667 48.667 -353 146s-146 215 -146 353s48.667 255.667 146 353s215 146 353 146
s255.667 -48.667 353 -146c96 -96 144.667 -212 146 -348v-406zM519.5 1271c19.667 -19.333 29.5 -43 29.5 -71c0 -27.333 -9.83301 -50.833 -29.5 -70.5s-43.167 -29.5 -70.5 -29.5s-50.833 9.83301 -70.5 29.5s-29.5 43.167 -29.5 70.5c0 28 9.83301 51.667 29.5 71
s43.167 29 70.5 29s50.833 -9.66699 70.5 -29zM819.5 1271c19.667 -19.333 29.5 -43 29.5 -71c0 -27.333 -9.83301 -50.833 -29.5 -70.5s-43.167 -29.5 -70.5 -29.5s-50.833 9.83301 -70.5 29.5s-29.5 43.167 -29.5 70.5c0 28 9.83301 51.667 29.5 71s43.167 29 70.5 29
s50.833 -9.66699 70.5 -29z" />
    <glyph glyph-name="aring" unicode="&#xe5;" 
d="M809 709c-58 58 -127.999 87 -209.999 87s-151.833 -28.833 -209.5 -86.5s-86.5 -127.5 -86.5 -209.5s28.833 -152 86.5 -210s127.5 -87 209.5 -87s152 29 210 87c49.333 49.333 77.666 107.333 84.999 174v38c0 6 0.333008 12 1 18c-4 73.333 -32.667 136.333 -86 189z
M1098 98c0 -38.667 -10.001 -64.666 -30.001 -77.999s-44 -20 -72 -20s-52 6.66699 -72 20s-30 38.666 -30 75.999c-85.333 -64 -183.666 -96 -294.999 -96c-138 0 -255.667 48.667 -353 146s-146 215 -146 353s48.667 255.667 146 353s215 146 353 146
s255.667 -48.667 353 -146c96 -96 144.667 -212 146 -348v-406zM739 1363c38.667 -38.667 58 -85.334 58 -140.001s-19.333 -101.334 -58 -140.001s-85.334 -58 -140.001 -58s-101.334 19.333 -140.001 58s-58 85.334 -58 140.001s19.333 101.334 58 140.001
s85.334 58 140.001 58s101.334 -19.333 140.001 -58zM598 1305c-22.667 0 -42 -8 -58 -24s-24 -35.333 -24 -58s8 -42.167 24 -58.5s35.333 -24.5 58 -24.5c23.333 0 43 8.16699 59 24.5s24 35.833 24 58.5s-8 42 -24 58s-35.667 24 -59 24z" />
    <glyph glyph-name="ae" unicode="&#xe6;" horiz-adv-x="1898" 
d="M809 709c-58 58 -127.999 87 -209.999 87s-151.833 -28.833 -209.5 -86.5s-86.5 -127.5 -86.5 -209.5s28.833 -152 86.5 -210s127.5 -87 209.5 -87s152 29 210 87c49.333 49.333 77.666 107.333 84.999 174v38c0 6 0.333008 12 1 18c-4 73.333 -32.667 136.333 -86 189z
M1098 100l-0.000976562 -2c0 -38.667 -10 -64.667 -30 -78s-44 -20 -72 -20s-52 6.66699 -72 20s-30 38.666 -30 75.999c-85.333 -64 -183.666 -96 -294.999 -96c-138 0 -255.667 48.667 -353 146s-146 215 -146 353s48.667 255.667 146 353s215 146 353 146
s255.667 -48.667 353 -146c17.333 -17.333 33 -35 47 -53c14 18 29.667 35.667 47 53c97.333 97.333 215 146 353 146s255.333 -48.333 352 -145l-1 -1c0 -0.666992 0.333008 -1 1 -1c19.333 -19.333 29 -43 29 -71c0 -27.333 -9.66699 -50.666 -29 -69.999l-286 -284
c-20 -19.333 -44 -29 -72 -29c-28.667 0 -53 9.66699 -73 29c-19.333 20 -29 44.333 -29 73c0 28 9.66699 52 29 72l200 200c-36.667 16.667 -77 25 -121 25c-82 0 -152 -28.833 -210 -86.5s-87 -127.5 -87 -209.5s29 -152 87 -210s128 -87 210 -87
c81.333 0 151 28.667 209 86l2 2c19.333 19.333 43 29 71 29s52 -9.83301 72 -29.5s30 -43.5 30 -71.5s-10 -52 -30 -72l-2 -2c-96.667 -96.667 -214 -145 -352 -145c-114 -0 -214.333 33.333 -301 100z" />
    <glyph glyph-name="ccedilla" unicode="&#xe7;" horiz-adv-x="1097" 
d="M505 8c-98.667 18 -185.002 64.001 -259.002 138.001c-97.333 97.333 -146 215 -146 353s48.667 255.667 146 353s215 146 353 146s255.333 -48.333 352 -145l-1 -1c0 -0.666992 0.333008 -1 1 -1c19.333 -19.333 29 -43 29 -71c0 -27.333 -9.83301 -50.833 -29.5 -70.5
s-43.167 -29.5 -70.5 -29.5c-28 0 -51.667 10 -71 30h-1c-57.333 57.333 -127 86 -209 86s-152 -28.833 -210 -86.5s-87 -127.5 -87 -209.5s29 -152 87 -210s128 -87 210 -87c81.333 0 151 28.667 209 86l2 2c19.333 19.333 43 29 71 29s52 -9.83301 72 -29.5
s30 -43.5 30 -71.5s-10 -52 -30 -72l-2 -2c-84 -84 -183.667 -131.667 -299 -143c1.33301 -5.33301 2 -11.333 2 -18v-25c19.333 -9.33301 37.333 -22 54 -38c36 -37.333 54 -81.666 54 -132.999c0 -52 -18.167 -96.167 -54.5 -132.5s-80.5 -54.5 -132.5 -54.5
c-21.333 0 -39.166 7.16699 -53.499 21.5s-21.5 32.166 -21.5 53.499c0 20 7.16699 37.5 21.5 52.5s32.166 22.5 53.499 22.5c10.667 0 19.5 3.5 26.5 10.5s10.5 15.833 10.5 26.5s-3.33301 19.667 -10 27c-5.33301 5.33301 -11.666 8.66602 -18.999 9.99902h-6
c-10.667 0 -20.667 2 -30 6c-9.33301 3.33301 -17.666 9 -24.999 17c-14.667 14 -22 31.667 -22 53c0 4 0.333008 8.33301 1 13v70c0 8.66699 1.33301 16.667 4 24z" />
    <glyph glyph-name="egrave" unicode="&#xe8;" horiz-adv-x="1097" 
d="M720 771c-36.667 16.667 -77 24.999 -121 24.999c-82 0 -152 -28.833 -210 -86.5s-87 -127.5 -87 -209.5s29 -152 87 -210s128 -87 210 -87c81.333 0 151 28.667 209 86l2 2c19.333 19.333 43 29 71 29s52 -9.83301 72 -29.5s30 -43.5 30 -71.5s-10 -52 -30 -72l-2 -2
c-96.667 -96.667 -214 -145 -352 -145s-255.667 48.667 -353 146s-146 215 -146 353s48.667 255.667 146 353s215 146 353 146s255.333 -48.333 352 -145l-1 -1c0 -0.666992 0.333008 -1 1 -1c19.333 -19.333 29 -43 29 -71c0 -27.333 -9.66699 -50.666 -29 -69.999
l-286 -284c-20 -19.333 -44 -29 -72 -29c-28.667 0 -53 9.66699 -73 29c-19.333 20 -29 44.333 -29 73c0 28 9.66699 52 29 72zM278 1199c-24.667 14 -40.6689 34.667 -48.002 62c-2.66699 9.33301 -4 18.666 -4 27.999c0 16.667 4.66699 33 14 49
c14.667 24.667 35.334 40.667 62.001 48c9.33301 2 18.333 3 27 3c17.333 0 34.333 -4.66699 51 -14l268 -155c24.667 -14 40.667 -34.333 48 -61c2.66699 -9.33301 4 -18.666 4 -27.999c0 -17.333 -4.66699 -34 -14 -50c-14 -24 -34.667 -39.667 -62 -47
c-9.33301 -2.66699 -18.666 -4 -27.999 -4c-17.333 0 -34 4.66699 -50 14z" />
    <glyph glyph-name="eacute" unicode="&#xe9;" horiz-adv-x="1097" 
d="M720 771c-36.667 16.667 -77 24.999 -121 24.999c-82 0 -152 -28.833 -210 -86.5s-87 -127.5 -87 -209.5s29 -152 87 -210s128 -87 210 -87c81.333 0 151 28.667 209 86l2 2c19.333 19.333 43 29 71 29s52 -9.83301 72 -29.5s30 -43.5 30 -71.5s-10 -52 -30 -72l-2 -2
c-96.667 -96.667 -214 -145 -352 -145s-255.667 48.667 -353 146s-146 215 -146 353s48.667 255.667 146 353s215 146 353 146s255.333 -48.333 352 -145l-1 -1c0 -0.666992 0.333008 -1 1 -1c19.333 -19.333 29 -43 29 -71c0 -27.333 -9.66699 -50.666 -29 -69.999
l-286 -284c-20 -19.333 -44 -29 -72 -29c-28.667 0 -53 9.66699 -73 29c-19.333 20 -29 44.333 -29 73c0 28 9.66699 52 29 72zM538 1044c-16 -9.33301 -32.6689 -14 -50.002 -14c-9.33301 0 -18.666 1.33301 -27.999 4c-27.333 7.33301 -48 23 -62 47
c-9.33301 16 -14 32.667 -14 50c0 9.33301 1.33301 18.666 4 27.999c7.33301 26.667 23.333 47 48 61l268 155c16.667 9.33301 33.667 14 51 14c8.66699 0 17.667 -1 27 -3c26.667 -7.33301 47.334 -23.333 62.001 -48c9.33301 -16 14 -32.333 14 -49
c0 -9.33301 -1.33301 -18.666 -4 -27.999c-7.33301 -27.333 -23.333 -48 -48 -62z" />
    <glyph glyph-name="ecircumflex" unicode="&#xea;" horiz-adv-x="1097" 
d="M720 771c-36.667 16.667 -77 24.999 -121 24.999c-82 0 -152 -28.833 -210 -86.5s-87 -127.5 -87 -209.5s29 -152 87 -210s128 -87 210 -87c81.333 0 151 28.667 209 86l2 2c19.333 19.333 43 29 71 29s52 -9.83301 72 -29.5s30 -43.5 30 -71.5s-10 -52 -30 -72l-2 -2
c-96.667 -96.667 -214 -145 -352 -145s-255.667 48.667 -353 146s-146 215 -146 353s48.667 255.667 146 353s215 146 353 146s255.333 -48.333 352 -145l-1 -1c0 -0.666992 0.333008 -1 1 -1c19.333 -19.333 29 -43 29 -71c0 -27.333 -9.66699 -50.666 -29 -69.999
l-286 -284c-20 -19.333 -44 -29 -72 -29c-28.667 0 -53 9.66699 -73 29c-19.333 20 -29 44.333 -29 73c0 28 9.66699 52 29 72zM542 1156l-77.001 -77.001c-20 -20 -44 -30 -72 -30c-28.667 0 -52.667 10 -72 30c-20.667 20 -31 43.667 -31 71l1 1c0 28 10 52 30 72l148 148
c20 20 44 30.333 72 31c12.667 0 24.334 -2 35.001 -6c14.667 -5.33301 27.667 -13.666 39 -24.999l148 -148c20 -20 30 -44 30 -72c0 -28.667 -10 -52.667 -30 -72c-20 -20.667 -43.667 -31 -71 -31l-1 1c-28 0 -52 10 -72 30z" />
    <glyph glyph-name="edieresis" unicode="&#xeb;" horiz-adv-x="1097" 
d="M720 771c-36.667 16.667 -77 24.999 -121 24.999c-82 0 -152 -28.833 -210 -86.5s-87 -127.5 -87 -209.5s29 -152 87 -210s128 -87 210 -87c81.333 0 151 28.667 209 86l2 2c19.333 19.333 43 29 71 29s52 -9.83301 72 -29.5s30 -43.5 30 -71.5s-10 -52 -30 -72l-2 -2
c-96.667 -96.667 -214 -145 -352 -145s-255.667 48.667 -353 146s-146 215 -146 353s48.667 255.667 146 353s215 146 353 146s255.333 -48.333 352 -145l-1 -1c0 -0.666992 0.333008 -1 1 -1c19.333 -19.333 29 -43 29 -71c0 -27.333 -9.66699 -50.666 -29 -69.999
l-286 -284c-20 -19.333 -44 -29 -72 -29c-28.667 0 -53 9.66699 -73 29c-19.333 20 -29 44.333 -29 73c0 28 9.66699 52 29 72zM462.5 1271c19.667 -19.333 29.5 -43 29.5 -71c0 -27.333 -9.83301 -50.833 -29.5 -70.5s-43.167 -29.5 -70.5 -29.5
s-50.833 9.83301 -70.5 29.5s-29.5 43.167 -29.5 70.5c0 28 9.83301 51.667 29.5 71s43.167 29 70.5 29s50.833 -9.66699 70.5 -29zM762.5 1271c19.667 -19.333 29.5 -43 29.5 -71c0 -27.333 -9.83301 -50.833 -29.5 -70.5s-43.167 -29.5 -70.5 -29.5
s-50.833 9.83301 -70.5 29.5s-29.5 43.167 -29.5 70.5c0 28 9.83301 51.667 29.5 71s43.167 29 70.5 29s50.833 -9.66699 70.5 -29z" />
    <glyph glyph-name="igrave" unicode="&#xec;" horiz-adv-x="401" 
d="M202 0c-28 0 -52 10 -72 30s-30 44 -30 72v800c0 28 10 52 30 72s44 30 72 30s52 -10 72 -30s30 -44 30 -72v-800c0 -28 -10 -52 -30 -72s-44 -30 -72 -30zM-62 1199c-24.667 14 -40.6689 34.667 -48.002 62c-2.66699 9.33301 -4 18.666 -4 27.999
c0 16.667 4.66699 33 14 49c14.667 24.667 35.334 40.667 62.001 48c9.33301 2 18.333 3 27 3c17.333 0 34.333 -4.66699 51 -14l268 -155c24.667 -14 40.667 -34.333 48 -61c2.66699 -9.33301 4 -18.666 4 -27.999c0 -17.333 -4.66699 -34 -14 -50
c-14 -24 -34.667 -39.667 -62 -47c-9.33301 -2.66699 -18.666 -4 -27.999 -4c-17.333 0 -34 4.66699 -50 14z" />
    <glyph glyph-name="iacute" unicode="&#xed;" horiz-adv-x="401" 
d="M202 0c-28 0 -52 10 -72 30s-30 44 -30 72v800c0 28 10 52 30 72s44 30 72 30s52 -10 72 -30s30 -44 30 -72v-800c0 -28 -10 -52 -30 -72s-44 -30 -72 -30zM198 1044c-16 -9.33301 -32.6689 -14 -50.002 -14c-9.33301 0 -18.666 1.33301 -27.999 4
c-27.333 7.33301 -48 23 -62 47c-9.33301 16 -14 32.667 -14 50c0 9.33301 1.33301 18.666 4 27.999c7.33301 26.667 23.333 47 48 61l268 155c16.667 9.33301 33.667 14 51 14c8.66699 0 17.667 -1 27 -3c26.667 -7.33301 47.334 -23.333 62.001 -48
c9.33301 -16 14 -32.333 14 -49c0 -9.33301 -1.33301 -18.666 -4 -27.999c-7.33301 -27.333 -23.333 -48 -48 -62z" />
    <glyph glyph-name="icircumflex" unicode="&#xee;" horiz-adv-x="401" 
d="M203 0c-28 0 -52 10 -72 30s-30 44 -30 72v800c0 28 10 52 30 72s44 30 72 30s52 -10 72 -30s30 -44 30 -72v-800c0 -28 -10 -52 -30 -72s-44 -30 -72 -30zM203 1156l-77.001 -77.001c-20 -20 -44 -30 -72 -30c-28.667 0 -52.667 10 -72 30c-20.667 20 -31 43.667 -31 71
l1 1c0 28 10 52 30 72l148 148c20 20 44 30.333 72 31c12.667 0 24.334 -2 35.001 -6c14.667 -5.33301 27.667 -13.666 39 -24.999l148 -148c20 -20 30 -44 30 -72c0 -28.667 -10 -52.667 -30 -72c-20 -20.667 -43.667 -31 -71 -31l-1 1c-28 0 -52 10 -72 30z" />
    <glyph glyph-name="idieresis" unicode="&#xef;" horiz-adv-x="401" 
d="M202 0c-28 0 -52 10 -72 30s-30 44 -30 72v800c0 28 10 52 30 72s44 30 72 30s52 -10 72 -30s30 -44 30 -72v-800c0 -28 -10 -52 -30 -72s-44 -30 -72 -30zM122.5 1271c19.667 -19.333 29.5 -43 29.5 -71c0 -27.333 -9.83301 -50.833 -29.5 -70.5
s-43.167 -29.5 -70.5 -29.5s-50.833 9.83301 -70.5 29.5s-29.5 43.167 -29.5 70.5c0 28 9.83301 51.667 29.5 71s43.167 29 70.5 29s50.833 -9.66699 70.5 -29zM422.5 1271c19.667 -19.333 29.5 -43 29.5 -71c0 -27.333 -9.83301 -50.833 -29.5 -70.5
s-43.167 -29.5 -70.5 -29.5s-50.833 9.83301 -70.5 29.5s-29.5 43.167 -29.5 70.5c0 28 9.83301 51.667 29.5 71s43.167 29 70.5 29s50.833 -9.66699 70.5 -29z" />
    <glyph glyph-name="eth" unicode="&#xf0;" 
d="M550 700c-69.333 0 -128.333 -24.333 -177 -73s-73 -107.667 -73 -177c0 -68.667 24.333 -127.5 73 -176.5s107.667 -73.5 177 -73.5c68.667 0 127.5 24.5 176.5 73.5s73.5 107.833 73.5 176.5c0 69.333 -24.5 128.333 -73.5 177s-107.833 73 -176.5 73zM939 679
c40.667 -68 61 -144.334 61 -229.001c0 -124 -44 -230 -132 -318s-194 -132 -318 -132c-124.667 0 -230.834 44 -318.501 132s-131.5 194 -131.5 318s44 230 132 318c85.333 86 188.333 130 309 132l-102 145l-80 -56c-18 -12.667 -37.333 -19 -58 -19
c-6 0 -12 0.666992 -18 2c-28 4.66699 -50 18.667 -66 42c-12.667 17.333 -19 36.333 -19 57c0 6.66699 0.666992 13 2 19c4.66699 28 18.667 50 42 66l80 56l-82 117c-12 18 -18 37 -18 57c0 6.66699 0.666992 13.334 2 20.001c4.66699 27.333 18.334 49 41.001 65
c18 12.667 37.333 19 58 19c6 0 12.333 -0.666992 19 -2c27.333 -4.66699 49 -18.667 65 -42l82 -117l80 56c18 12.667 37.333 19 58 19c6 0 12.333 -0.666992 19 -2c27.333 -4.66699 49 -18.667 65 -42c12.667 -17.333 19 -36.333 19 -57c0 -6.66699 -0.666992 -13 -2 -19
c-4.66699 -28 -18.667 -50 -42 -66l-80 -56l318 -453c6.66699 -10 11.667 -20 15 -30z" />
    <glyph glyph-name="ntilde" unicode="&#xf1;" 
d="M609 1000c140.667 -8 256.332 -57.333 346.999 -148c96 -96 144.667 -212 146 -348v-386c0 -38.667 -10 -68 -30 -88s-44 -30 -72 -30s-52 10 -72 30s-30 48.667 -30 86v386c0 6 0.333008 12 1 18c-4 73.333 -32.667 136.333 -86 189c-58 58 -128 87 -210 87h-4
c-82 0 -152 -29 -210 -87c-53.333 -52.667 -82 -115.667 -86 -189c0.666992 -6 1 -12 1 -18v-386c0 -37.333 -10 -66 -30 -86s-44 -30 -72 -30s-52 10 -72 30s-30 49.333 -30 88v386c1.33301 136 50 252 146 348c90.667 90.667 206.334 140 347.001 148h16zM775.998 1200
c0 20.667 7.33301 38.334 22 53.001s32.334 22 53.001 22s38.334 -7.33301 53.001 -22s22 -32.334 22 -53.001c0 -55.333 -19.5 -102.5 -58.5 -141.5s-86.167 -58.5 -141.5 -58.5s-102.5 19.5 -141.5 58.5s-58.5 86.167 -58.5 141.5c0 13.333 -4.83301 25 -14.5 35
s-21.5 15 -35.5 15s-25.833 -5 -35.5 -15s-14.5 -21.667 -14.5 -35c0 -20.667 -7.33301 -38.334 -22 -53.001s-32.334 -22 -53.001 -22s-38.334 7.33301 -53.001 22s-22 32.334 -22 53.001c0 55.333 19.5 102.5 58.5 141.5s86.167 58.5 141.5 58.5s102.5 -19.5 141.5 -58.5
s58.5 -86.167 58.5 -141.5c0 -13.333 4.83301 -25 14.5 -35s21.5 -15 35.5 -15s25.833 5 35.5 15s14.5 21.667 14.5 35z" />
    <glyph glyph-name="ograve" unicode="&#xf2;" 
d="M952 852c97.333 -97.333 146 -215 146 -353s-48.667 -255.667 -146 -353s-215 -146 -353 -146s-255.667 48.667 -353 146s-146 215 -146 353s48.667 255.667 146 353s215 146 353 146s255.667 -48.667 353 -146zM599 796c-82 0 -152 -28.833 -210 -86.5
s-87 -127.5 -87 -209.5s29 -152 87 -210s128 -87 210 -87s151.833 29 209.5 87s86.5 128 86.5 210s-28.833 151.833 -86.5 209.5s-127.5 86.5 -209.5 86.5zM335 1199c-24.667 14 -40.6689 34.667 -48.002 62c-2.66699 9.33301 -4 18.666 -4 27.999
c0 16.667 4.66699 33 14 49c14.667 24.667 35.334 40.667 62.001 48c9.33301 2 18.333 3 27 3c17.333 0 34.333 -4.66699 51 -14l268 -155c24.667 -14 40.667 -34.333 48 -61c2.66699 -9.33301 4 -18.666 4 -27.999c0 -17.333 -4.66699 -34 -14 -50
c-14 -24 -34.667 -39.667 -62 -47c-9.33301 -2.66699 -18.666 -4 -27.999 -4c-17.333 0 -34 4.66699 -50 14z" />
    <glyph glyph-name="oacute" unicode="&#xf3;" 
d="M952 852c97.333 -97.333 146 -215 146 -353s-48.667 -255.667 -146 -353s-215 -146 -353 -146s-255.667 48.667 -353 146s-146 215 -146 353s48.667 255.667 146 353s215 146 353 146s255.667 -48.667 353 -146zM599 796c-82 0 -152 -28.833 -210 -86.5
s-87 -127.5 -87 -209.5s29 -152 87 -210s128 -87 210 -87s151.833 29 209.5 87s86.5 128 86.5 210s-28.833 151.833 -86.5 209.5s-127.5 86.5 -209.5 86.5zM595 1044c-16 -9.33301 -32.6689 -14 -50.002 -14c-9.33301 0 -18.666 1.33301 -27.999 4
c-27.333 7.33301 -48 23 -62 47c-9.33301 16 -14 32.667 -14 50c0 9.33301 1.33301 18.666 4 27.999c7.33301 26.667 23.333 47 48 61l268 155c16.667 9.33301 33.667 14 51 14c8.66699 0 17.667 -1 27 -3c26.667 -7.33301 47.334 -23.333 62.001 -48
c9.33301 -16 14 -32.333 14 -49c0 -9.33301 -1.33301 -18.666 -4 -27.999c-7.33301 -27.333 -23.333 -48 -48 -62z" />
    <glyph glyph-name="ocircumflex" unicode="&#xf4;" 
d="M952 852c97.333 -97.333 146 -215 146 -353s-48.667 -255.667 -146 -353s-215 -146 -353 -146s-255.667 48.667 -353 146s-146 215 -146 353s48.667 255.667 146 353s215 146 353 146s255.667 -48.667 353 -146zM599 796c-82 0 -152 -28.833 -210 -86.5
s-87 -127.5 -87 -209.5s29 -152 87 -210s128 -87 210 -87s151.833 29 209.5 87s86.5 128 86.5 210s-28.833 151.833 -86.5 209.5s-127.5 86.5 -209.5 86.5zM600 1156l-77.001 -77.001c-20 -20 -44 -30 -72 -30c-28.667 0 -52.667 10 -72 30c-20.667 20 -31 43.667 -31 71
l1 1c0 28 10 52 30 72l148 148c20 20 44 30.333 72 31c12.667 0 24.334 -2 35.001 -6c14.667 -5.33301 27.667 -13.666 39 -24.999l148 -148c20 -20 30 -44 30 -72c0 -28.667 -10 -52.667 -30 -72c-20 -20.667 -43.667 -31 -71 -31l-1 1c-28 0 -52 10 -72 30z" />
    <glyph glyph-name="otilde" unicode="&#xf5;" 
d="M952 852c97.333 -97.333 146 -215 146 -353s-48.667 -255.667 -146 -353s-215 -146 -353 -146s-255.667 48.667 -353 146s-146 215 -146 353s48.667 255.667 146 353s215 146 353 146s255.667 -48.667 353 -146zM599 796c-82 0 -152 -28.833 -210 -86.5
s-87 -127.5 -87 -209.5s29 -152 87 -210s128 -87 210 -87s151.833 29 209.5 87s86.5 128 86.5 210s-28.833 151.833 -86.5 209.5s-127.5 86.5 -209.5 86.5zM774 1200c0 20.667 7.33301 38.334 22 53.001s32.334 22 53.001 22s38.334 -7.33301 53.001 -22
s22 -32.334 22 -53.001c0 -55.333 -19.5 -102.5 -58.5 -141.5s-86.167 -58.5 -141.5 -58.5s-102.5 19.5 -141.5 58.5s-58.5 86.167 -58.5 141.5c0 13.333 -4.83301 25 -14.5 35s-21.5 15 -35.5 15s-25.833 -5 -35.5 -15s-14.5 -21.667 -14.5 -35
c0 -20.667 -7.33301 -38.334 -22 -53.001s-32.334 -22 -53.001 -22s-38.334 7.33301 -53.001 22s-22 32.334 -22 53.001c0 55.333 19.5 102.5 58.5 141.5s86.167 58.5 141.5 58.5s102.5 -19.5 141.5 -58.5s58.5 -86.167 58.5 -141.5c0 -13.333 4.83301 -25 14.5 -35
s21.5 -15 35.5 -15s25.833 5 35.5 15s14.5 21.667 14.5 35z" />
    <glyph glyph-name="odieresis" unicode="&#xf6;" 
d="M952 852c97.333 -97.333 146 -215 146 -353s-48.667 -255.667 -146 -353s-215 -146 -353 -146s-255.667 48.667 -353 146s-146 215 -146 353s48.667 255.667 146 353s215 146 353 146s255.667 -48.667 353 -146zM599 796c-82 0 -152 -28.833 -210 -86.5
s-87 -127.5 -87 -209.5s29 -152 87 -210s128 -87 210 -87s151.833 29 209.5 87s86.5 128 86.5 210s-28.833 151.833 -86.5 209.5s-127.5 86.5 -209.5 86.5zM519.5 1271c19.667 -19.333 29.5 -43 29.5 -71c0 -27.333 -9.83301 -50.833 -29.5 -70.5s-43.167 -29.5 -70.5 -29.5
s-50.833 9.83301 -70.5 29.5s-29.5 43.167 -29.5 70.5c0 28 9.83301 51.667 29.5 71s43.167 29 70.5 29s50.833 -9.66699 70.5 -29zM819.5 1271c19.667 -19.333 29.5 -43 29.5 -71c0 -27.333 -9.83301 -50.833 -29.5 -70.5s-43.167 -29.5 -70.5 -29.5
s-50.833 9.83301 -70.5 29.5s-29.5 43.167 -29.5 70.5c0 28 9.83301 51.667 29.5 71s43.167 29 70.5 29s50.833 -9.66699 70.5 -29z" />
    <glyph glyph-name="divide" unicode="&#xf7;" horiz-adv-x="801" 
d="M199 594c-28.667 0 -52.834 10 -72.501 30s-29.5 44 -29.5 72s9.83301 52 29.5 72s43.834 30 72.501 30h400c28 0 52 -10 72 -30s30 -44 30 -72s-10 -52 -30 -72s-44 -30 -72 -30h-400zM504 400c0 -28 -10 -52 -30 -72s-44 -30 -72 -30s-52 10 -72 30s-30 44 -30 72
s10 52 30 72s44 30 72 30s52 -10 72 -30s30 -44 30 -72zM504 1000c0 -28 -10 -52 -30 -72s-44 -30 -72 -30s-52 10 -72 30s-30 44 -30 72s10 52 30 72s44 30 72 30s52 -10 72 -30s30 -44 30 -72z" />
    <glyph glyph-name="oslash" unicode="&#xf8;" 
d="M658 791c-18.667 3.33301 -38.333 5 -59 5c-82 0 -152 -28.833 -210 -86.5s-87 -127.5 -87 -209.5c0 -76 24.667 -141.667 74 -197zM556.001 206c14 -2 28.333 -3 43 -3c82 0 151.833 29 209.5 87s86.5 128 86.5 210c0 70 -21 131 -63 183zM937.001 866
c5.33301 -4.66699 10.335 -9.33203 15.002 -13.999c97.333 -97.333 146 -215 146 -353s-48.667 -255.667 -146 -353s-215 -146 -353 -146c-52.667 0 -102.334 7 -149.001 21l-157 -271c-14 -24 -34.667 -39.667 -62 -47c-9.33301 -2.66699 -18.666 -4 -27.999 -4
c-17.333 0 -34 4.66699 -50 14c-24 14 -39.667 34.667 -47 62c-2.66699 9.33301 -4 18.666 -4 27.999c0 16.667 4.66699 33 14 49l156 270c-8.66699 7.33301 -17.334 15.333 -26.001 24c-97.333 97.333 -146 215 -146 353s48.667 255.667 146 353s215 146 353 146
c58 0 112.667 -8.66699 164 -26l148 257c14 24.667 34.667 40.667 62 48c9.33301 2.66699 18.666 4 27.999 4c16.667 0 33 -4.66699 49 -14c24.667 -14.667 40.667 -35.334 48 -62.001c2.66699 -9.33301 4 -18.666 4 -27.999c0 -17.333 -4.66699 -34 -14 -50z" />
    <glyph glyph-name="ugrave" unicode="&#xf9;" 
d="M593 0c-140.667 8 -256.332 57.333 -346.999 148c-96 96 -144.667 212 -146 348v386c0 38.667 10 68 30 88s44 30 72 30s52 -10 72 -30s30 -48.667 30 -86v-386c0 -6 -0.333008 -12 -1 -18c4 -73.333 32.667 -136.333 86 -189c58 -58 128 -87 210 -87h4
c82 0 152 29 210 87c53.333 52.667 82 115.667 86 189c-0.666992 6 -1 12 -1 18v386c0 37.333 10 66 30 86s44 30 72 30s52 -10 72 -30s30 -49.333 30 -88v-386c-1.33301 -136 -50 -252 -146 -348c-90.667 -90.667 -206.334 -140 -347.001 -148h-16zM337.002 1199
c-24.667 14 -40.6689 34.667 -48.002 62c-2.66699 9.33301 -4 18.666 -4 27.999c0 16.667 4.66699 33 14 49c14.667 24.667 35.334 40.667 62.001 48c9.33301 2 18.333 3 27 3c17.333 0 34.333 -4.66699 51 -14l268 -155c24.667 -14 40.667 -34.333 48 -61
c2.66699 -9.33301 4 -18.666 4 -27.999c0 -17.333 -4.66699 -34 -14 -50c-14 -24 -34.667 -39.667 -62 -47c-9.33301 -2.66699 -18.666 -4 -27.999 -4c-17.333 0 -34 4.66699 -50 14z" />
    <glyph glyph-name="uacute" unicode="&#xfa;" 
d="M593 0c-140.667 8 -256.332 57.333 -346.999 148c-96 96 -144.667 212 -146 348v386c0 38.667 10 68 30 88s44 30 72 30s52 -10 72 -30s30 -48.667 30 -86v-386c0 -6 -0.333008 -12 -1 -18c4 -73.333 32.667 -136.333 86 -189c58 -58 128 -87 210 -87h4
c82 0 152 29 210 87c53.333 52.667 82 115.667 86 189c-0.666992 6 -1 12 -1 18v386c0 37.333 10 66 30 86s44 30 72 30s52 -10 72 -30s30 -49.333 30 -88v-386c-1.33301 -136 -50 -252 -146 -348c-90.667 -90.667 -206.334 -140 -347.001 -148h-16zM597.002 1044
c-16 -9.33301 -32.6689 -14 -50.002 -14c-9.33301 0 -18.666 1.33301 -27.999 4c-27.333 7.33301 -48 23 -62 47c-9.33301 16 -14 32.667 -14 50c0 9.33301 1.33301 18.666 4 27.999c7.33301 26.667 23.333 47 48 61l268 155c16.667 9.33301 33.667 14 51 14
c8.66699 0 17.667 -1 27 -3c26.667 -7.33301 47.334 -23.333 62.001 -48c9.33301 -16 14 -32.333 14 -49c0 -9.33301 -1.33301 -18.666 -4 -27.999c-7.33301 -27.333 -23.333 -48 -48 -62z" />
    <glyph glyph-name="ucircumflex" unicode="&#xfb;" 
d="M593 0c-140.667 8 -256.332 57.333 -346.999 148c-96 96 -144.667 212 -146 348v386c0 38.667 10 68 30 88s44 30 72 30s52 -10 72 -30s30 -48.667 30 -86v-386c0 -6 -0.333008 -12 -1 -18c4 -73.333 32.667 -136.333 86 -189c58 -58 128 -87 210 -87h4
c82 0 152 29 210 87c53.333 52.667 82 115.667 86 189c-0.666992 6 -1 12 -1 18v386c0 37.333 10 66 30 86s44 30 72 30s52 -10 72 -30s30 -49.333 30 -88v-386c-1.33301 -136 -50 -252 -146 -348c-90.667 -90.667 -206.334 -140 -347.001 -148h-16zM602.002 1156
l-77.001 -77.001c-20 -20 -44 -30 -72 -30c-28.667 0 -52.667 10 -72 30c-20.667 20 -31 43.667 -31 71l1 1c0 28 10 52 30 72l148 148c20 20 44 30.333 72 31c12.667 0 24.334 -2 35.001 -6c14.667 -5.33301 27.667 -13.666 39 -24.999l148 -148c20 -20 30 -44 30 -72
c0 -28.667 -10 -52.667 -30 -72c-20 -20.667 -43.667 -31 -71 -31l-1 1c-28 0 -52 10 -72 30z" />
    <glyph glyph-name="udieresis" unicode="&#xfc;" 
d="M593 0c-140.667 8 -256.332 57.333 -346.999 148c-96 96 -144.667 212 -146 348v386c0 38.667 10 68 30 88s44 30 72 30s52 -10 72 -30s30 -48.667 30 -86v-386c0 -6 -0.333008 -12 -1 -18c4 -73.333 32.667 -136.333 86 -189c58 -58 128 -87 210 -87h4
c82 0 152 29 210 87c53.333 52.667 82 115.667 86 189c-0.666992 6 -1 12 -1 18v386c0 37.333 10 66 30 86s44 30 72 30s52 -10 72 -30s30 -49.333 30 -88v-386c-1.33301 -136 -50 -252 -146 -348c-90.667 -90.667 -206.334 -140 -347.001 -148h-16zM521.502 1271
c19.667 -19.333 29.5 -43 29.5 -71c0 -27.333 -9.83301 -50.833 -29.5 -70.5s-43.167 -29.5 -70.5 -29.5s-50.833 9.83301 -70.5 29.5s-29.5 43.167 -29.5 70.5c0 28 9.83301 51.667 29.5 71s43.167 29 70.5 29s50.833 -9.66699 70.5 -29zM821.502 1271
c19.667 -19.333 29.5 -43 29.5 -71c0 -27.333 -9.83301 -50.833 -29.5 -70.5s-43.167 -29.5 -70.5 -29.5s-50.833 9.83301 -70.5 29.5s-29.5 43.167 -29.5 70.5c0 28 9.83301 51.667 29.5 71s43.167 29 70.5 29s50.833 -9.66699 70.5 -29z" />
    <glyph glyph-name="yacute" unicode="&#xfd;" 
d="M112 852c-8 14.667 -12.001 30.668 -12.001 48.001c0 28 9.66699 51.667 29 71s43 29 71 29c27.333 0 51 -9.66699 71 -29c10.667 -10.667 18.334 -23 23.001 -37l306 -611l305 611c4.66699 13.333 12.667 25.666 24 36.999c19.333 19.333 43 29 71 29
c27.333 0 50.833 -9.66699 70.5 -29s29.5 -43 29.5 -71c0 -16 -3.33301 -30.667 -10 -44l-592 -1189c-6.66699 -13.333 -15.667 -25.666 -27 -36.999c-20 -20 -43.667 -30 -71 -30c-28 0 -51.667 9.83301 -71 29.5s-29 43.167 -29 70.5c0 21.333 4.33301 40.666 13 57.999
l175 342zM595.999 1044c-16 -9.33301 -32.6689 -14 -50.002 -14c-9.33301 0 -18.666 1.33301 -27.999 4c-27.333 7.33301 -48 23 -62 47c-9.33301 16 -14 32.667 -14 50c0 9.33301 1.33301 18.666 4 27.999c7.33301 26.667 23.333 47 48 61l268 155
c16.667 9.33301 33.667 14 51 14c8.66699 0 17.667 -1 27 -3c26.667 -7.33301 47.334 -23.333 62.001 -48c9.33301 -16 14 -32.333 14 -49c0 -9.33301 -1.33301 -18.666 -4 -27.999c-7.33301 -27.333 -23.333 -48 -48 -62z" />
    <glyph glyph-name="thorn" unicode="&#xfe;" 
d="M304 533l0.000976562 -69c7.33301 -66.667 35.666 -124.667 84.999 -174c58 -58 128 -87 210 -87s151.833 29 209.5 87s86.5 128 86.5 210s-28.833 151.833 -86.5 209.5s-127.5 86.5 -209.5 86.5s-152 -28.667 -210 -86c-50 -50 -78.333 -109 -85 -177zM304.001 902
c85.333 64 183.666 96 294.999 96c138 0 255.667 -48.667 353 -146s146 -215 146 -353s-48.667 -255.667 -146 -353s-215 -146 -353 -146c-111.333 0 -209.666 32 -294.999 96v-394c0 -28 -10 -52 -30 -72s-44 -30 -72 -30s-52 10 -72 30s-30 44 -30 72v1490
c0 28 10 52 30 72s44 30 72 30s52 -10 72 -30s30 -44 30 -72v-290z" />
    <glyph glyph-name="ydieresis" unicode="&#xff;" 
d="M112 852c-8 14.667 -12.001 30.668 -12.001 48.001c0 28 9.66699 51.667 29 71s43 29 71 29c27.333 0 51 -9.66699 71 -29c10.667 -10.667 18.334 -23 23.001 -37l306 -611l305 611c4.66699 13.333 12.667 25.666 24 36.999c19.333 19.333 43 29 71 29
c27.333 0 50.833 -9.66699 70.5 -29s29.5 -43 29.5 -71c0 -16 -3.33301 -30.667 -10 -44l-592 -1189c-6.66699 -13.333 -15.667 -25.666 -27 -36.999c-20 -20 -43.667 -30 -71 -30c-28 0 -51.667 9.83301 -71 29.5s-29 43.167 -29 70.5c0 21.333 4.33301 40.666 13 57.999
l175 342zM520.499 1271c19.667 -19.333 29.5 -43 29.5 -71c0 -27.333 -9.83301 -50.833 -29.5 -70.5s-43.167 -29.5 -70.5 -29.5s-50.833 9.83301 -70.5 29.5s-29.5 43.167 -29.5 70.5c0 28 9.83301 51.667 29.5 71s43.167 29 70.5 29s50.833 -9.66699 70.5 -29z
M820.499 1271c19.667 -19.333 29.5 -43 29.5 -71c0 -27.333 -9.83301 -50.833 -29.5 -70.5s-43.167 -29.5 -70.5 -29.5s-50.833 9.83301 -70.5 29.5s-29.5 43.167 -29.5 70.5c0 28 9.83301 51.667 29.5 71s43.167 29 70.5 29s50.833 -9.66699 70.5 -29z" />
    <glyph glyph-name="dotlessi" unicode="&#x131;" horiz-adv-x="401" 
d="M202 0c-28 0 -52 10 -72 30s-30 44 -30 72v800c0 28 10 52 30 72s44 30 72 30s52 -10 72 -30s30 -44 30 -72v-800c0 -28 -10 -52 -30 -72s-44 -30 -72 -30z" />
    <glyph glyph-name="OE" unicode="&#x152;" horiz-adv-x="2418" 
d="M817 1230c-142 0 -263 -50.167 -363 -150.5s-150 -221.166 -150 -362.499s50 -262.166 150 -362.499s221 -150.5 363 -150.5c141.333 0 262.166 50.167 362.499 150.5s150.5 221.166 150.5 362.499s-50.167 262.166 -150.5 362.499s-221.166 150.5 -362.499 150.5z
M1330 216l-6 -6c-140 -140 -309 -210 -507 -210s-367 70 -507 210s-210 309 -210 507s70 367 210 507s309 210 507 210s367 -70 507 -210l6 -6v114c0 28 10 52 30 72s44 30 72 30h790c28 0 52 -10 72 -30s30 -44 30 -72s-10 -52 -30 -72s-44 -30 -72 -30h-688v-226h298
c28 0 52 -10 72 -30s30 -44 30 -72s-10 -52 -30 -72s-44 -30 -72 -30h-298v-596h688c28 0 52 -10 72 -30s30 -44 30 -72s-10 -52 -30 -72s-44 -30 -72 -30h-790c-28 0 -52 10 -72 30s-30 44 -30 72v114z" />
    <glyph glyph-name="oe" unicode="&#x153;" horiz-adv-x="1918" 
d="M599 796c-82 0 -152 -28.833 -210 -86.5s-87 -127.5 -87 -209.5s29 -152 87 -210s128 -87 210 -87s151.833 29 209.5 87s86.5 128 86.5 210s-28.833 151.833 -86.5 209.5s-127.5 86.5 -209.5 86.5zM1009 214c-16.667 -24 -35.667 -46.668 -57 -68.001
c-97.333 -97.333 -215 -146 -353 -146s-255.667 48.667 -353 146s-146 215 -146 353s48.667 255.667 146 353s215 146 353 146s255.667 -48.667 353 -146c21.333 -21.333 40.333 -44 57 -68c17.333 24 36.666 46.667 57.999 68c97.333 97.333 215 146 353 146
s255.333 -48.333 352 -145l-1 -1c0 -0.666992 0.333008 -1 1 -1c19.333 -19.333 29 -43 29 -71c0 -27.333 -9.66699 -50.666 -29 -69.999l-286 -284c-20 -19.333 -44 -29 -72 -29c-28.667 0 -53 9.66699 -73 29c-19.333 20 -29 44.333 -29 73c0 28 9.66699 52 29 72l200 200
c-36.667 16.667 -77 25 -121 25c-82 0 -152 -28.833 -210 -86.5s-87 -127.5 -87 -209.5s29 -152 87 -210s128 -87 210 -87c81.333 0 151 28.667 209 86l2 2c19.333 19.333 43 29 71 29s52 -9.83301 72 -29.5s30 -43.5 30 -71.5s-10 -52 -30 -72l-2 -2
c-96.667 -96.667 -214 -145 -352 -145s-255.667 48.667 -353 146c-21.333 21.333 -40.666 44 -57.999 68z" />
    <glyph glyph-name="circumflex" unicode="&#x2c6;" horiz-adv-x="696" 
d="M351 1156l-77.001 -77.001c-20 -20 -44 -30 -72 -30c-28.667 0 -52.667 10 -72 30c-20.667 20 -31 43.667 -31 71l1 1c0 28 10 52 30 72l148 148c20 20 44 30.333 72 31c12.667 0 24.334 -2 35.001 -6c14.667 -5.33301 27.667 -13.666 39 -24.999l148 -148
c20 -20 30 -44 30 -72c0 -28.667 -10 -52.667 -30 -72c-20 -20.667 -43.667 -31 -71 -31l-1 1c-28 0 -52 10 -72 30z" />
    <glyph glyph-name="caron" unicode="&#x2c7;" horiz-adv-x="703" 
d="M428 1371c20 20 44.001 29.999 72.001 29.999l1 1c27.333 0 51 -10.333 71 -31c20 -19.333 30 -43.333 30 -72c0 -28 -10 -52 -30 -72l-148 -148c-11.333 -11.333 -24.333 -19.666 -39 -24.999c-10.667 -4 -22.334 -6 -35.001 -6c-28 0.666992 -52 11 -72 31l-148 148
c-20 20 -30 44 -30 72l-1 1c0 27.333 10.333 51 31 71c19.333 20 43.333 30 72 30c28 0 52 -10 72 -30l77 -77z" />
    <glyph glyph-name="uni02C9" unicode="&#x2c9;" horiz-adv-x="801" 
d="M130 1396c20 20 44 30 72 30h400c28 0 52 -10 72 -30s30 -44 30 -72s-10 -52 -30 -72s-44 -30 -72 -30h-400c-28 0 -52 10 -72 30s-30 44 -30 72s10 52 30 72z" />
    <glyph glyph-name="breve" unicode="&#x2d8;" horiz-adv-x="696" 
d="M200 1400c27.333 0 50.833 -9.66699 70.5 -29s29.5 -43 29.5 -71c0 -14 4.83301 -25.833 14.5 -35.5s21.5 -14.5 35.5 -14.5s25.833 4.83301 35.5 14.5s14.5 21.5 14.5 35.5c0 28 9.66699 51.667 29 71s43 29 71 29c27.333 0 50.833 -9.66699 70.5 -29s29.5 -43 29.5 -71
c0 -69.333 -24.5 -128.333 -73.5 -177s-107.833 -73 -176.5 -73c-69.333 0 -128.333 24.333 -177 73s-73 107.667 -73 177c0 28 9.66699 51.667 29 71s43 29 71 29z" />
    <glyph glyph-name="dotaccent" unicode="&#x2d9;" horiz-adv-x="436" 
d="M313.5 1313.5c24.333 -24.333 36.5 -53.833 36.5 -88.5s-12.167 -64.167 -36.5 -88.5s-53.833 -36.5 -88.5 -36.5s-64.167 12.167 -88.5 36.5s-36.5 53.833 -36.5 88.5s12.167 64.167 36.5 88.5s53.833 36.5 88.5 36.5s64.167 -12.167 88.5 -36.5z" />
    <glyph glyph-name="ring" unicode="&#x2da;" horiz-adv-x="597" 
d="M438 1363c38.667 -38.667 58 -85.334 58 -140.001s-19.333 -101.334 -58 -140.001s-85.334 -58 -140.001 -58s-101.334 19.333 -140.001 58s-58 85.334 -58 140.001s19.333 101.334 58 140.001s85.334 58 140.001 58s101.334 -19.333 140.001 -58zM297 1305
c-22.667 0 -42 -8 -58 -24s-24 -35.333 -24 -58s8 -42.167 24 -58.5s35.333 -24.5 58 -24.5c23.333 0 43 8.16699 59 24.5s24 35.833 24 58.5s-8 42 -24 58s-35.667 24 -59 24z" />
    <glyph glyph-name="ogonek" unicode="&#x2db;" horiz-adv-x="520" 
d="M230.5 38.5c15 15 33.166 22.5 54.499 22.5s39.333 -7.5 54 -22.5s22 -33.167 22 -54.5c0 -32 -15.5 -66.833 -46.5 -104.5s-49.5 -59.667 -55.5 -66s-9 -14.833 -9 -25.5s3.5 -19.5 10.5 -26.5s15.833 -10.5 26.5 -10.5h63c21.333 0 39.166 -7.5 53.499 -22.5
s21.5 -32.5 21.5 -52.5c0 -21.333 -7.16699 -39.166 -21.5 -53.499s-32.166 -21.5 -53.499 -21.5h-63c-52 0 -96.167 18.167 -132.5 54.5s-54.5 80.5 -54.5 132.5c0 51.333 18 95.666 54 132.999c16.667 16 29.834 35.833 39.501 59.5s22 43 37 58z" />
    <glyph glyph-name="tilde" unicode="&#x2dc;" horiz-adv-x="886" 
d="M600 1200c0 20.667 7.33301 38.334 22 53.001s32.334 22 53.001 22s38.334 -7.33301 53.001 -22s22 -32.334 22 -53.001c0 -55.333 -19.5 -102.5 -58.5 -141.5s-86.167 -58.5 -141.5 -58.5s-102.5 19.5 -141.5 58.5s-58.5 86.167 -58.5 141.5
c0 13.333 -4.83301 25 -14.5 35s-21.5 15 -35.5 15s-25.833 -5 -35.5 -15s-14.5 -21.667 -14.5 -35c0 -20.667 -7.33301 -38.334 -22 -53.001s-32.334 -22 -53.001 -22s-38.334 7.33301 -53.001 22s-22 32.334 -22 53.001c0 55.333 19.5 102.5 58.5 141.5
s86.167 58.5 141.5 58.5s102.5 -19.5 141.5 -58.5s58.5 -86.167 58.5 -141.5c0 -13.333 4.83301 -25 14.5 -35s21.5 -15 35.5 -15s25.833 5 35.5 15s14.5 21.667 14.5 35z" />
    <glyph glyph-name="hungarumlaut" unicode="&#x2dd;" horiz-adv-x="1024" 
d="M154 1044c-16 -9.33301 -32.6689 -14 -50.002 -14c-9.33301 0 -18.666 1.33301 -27.999 4c-27.333 7.33301 -48 23 -62 47c-9.33301 16 -14 32.667 -14 50c0 9.33301 1.33301 18.666 4 27.999c7.33301 26.667 23.333 47 48 61l268 155c16.667 9.33301 33.667 14 51 14
c8.66699 0 17.667 -1 27 -3c26.667 -7.33301 47.334 -23.333 62.001 -48c9.33301 -16 14 -32.333 14 -49c0 -9.33301 -1.33301 -18.666 -4 -27.999c-7.33301 -27.333 -23.333 -48 -48 -62zM627.998 1044c-16 -9.33301 -32.6689 -14 -50.002 -14
c-9.33301 0 -18.666 1.33301 -27.999 4c-27.333 7.33301 -48 23 -62 47c-9.33301 16 -14 32.667 -14 50c0 9.33301 1.33301 18.666 4 27.999c7.33301 26.667 23.333 47 48 61l268 155c16.667 9.33301 33.667 14 51 14c8.66699 0 17.667 -1 27 -3
c26.667 -7.33301 47.334 -23.333 62.001 -48c9.33301 -16 14 -32.333 14 -49c0 -9.33301 -1.33301 -18.666 -4 -27.999c-7.33301 -27.333 -23.333 -48 -48 -62z" />
    <glyph glyph-name="endash" unicode="&#x2013;" horiz-adv-x="1237" 
d="M202 604h840c28 0 52 -10 72 -30s30 -44 30 -72s-10 -52 -30 -72s-44 -30 -72 -30h-840c-28 0 -52 10 -72 30s-30 44 -30 72s10 52 30 72s44 30 72 30z" />
    <glyph glyph-name="emdash" unicode="&#x2014;" horiz-adv-x="2003" 
d="M126 566c20 20 44 30 72 30h1590c28 0 52 -10 72 -30s30 -44 30 -72s-10 -52 -30 -72s-44 -30 -72 -30h-1590c-28 0 -52 10 -72 30s-30 44 -30 72s10 52 30 72z" />
    <glyph glyph-name="quoteleft" unicode="&#x2018;" horiz-adv-x="499" 
d="M115 1247c-10 15.333 -14.999 33 -14.999 53c0 28 9.66699 51.667 29 71s43 29 71 29c27.333 0 51 -9.66699 71 -29c11.333 -11.333 19.333 -24.333 24 -39l92 -181c8.66699 -15.333 13 -32.333 13 -51c0 -27.333 -9.83301 -50.833 -29.5 -70.5
s-43.167 -29.5 -70.5 -29.5c-28 0 -51.667 10 -71 30c-10.667 10 -18.334 21.667 -23.001 35z" />
    <glyph glyph-name="quoteright" unicode="&#x2019;" horiz-adv-x="557" 
d="M385 1247c10 15.333 14.999 33 14.999 53c0 28 -9.66699 51.667 -29 71s-43 29 -71 29c-27.333 0 -51 -9.66699 -71 -29c-11.333 -11.333 -19.333 -24.333 -24 -39l-92 -181c-8.66699 -15.333 -13 -32.333 -13 -51c0 -27.333 9.83301 -50.833 29.5 -70.5
s43.167 -29.5 70.5 -29.5c28 0 51.667 10 71 30c10.667 10 18.334 21.667 23.001 35z" />
    <glyph glyph-name="quotesinglbase" unicode="&#x201a;" horiz-adv-x="557" 
d="M385 47c10 15.333 14.999 33 14.999 53c0 28 -9.66699 51.667 -29 71s-43 29 -71 29c-27.333 0 -51 -9.66699 -71 -29c-11.333 -11.333 -19.333 -24.333 -24 -39l-92 -181c-8.66699 -15.333 -13 -32.333 -13 -51c0 -27.333 9.83301 -50.833 29.5 -70.5
s43.167 -29.5 70.5 -29.5c28 0 51.667 10 71 30c10.667 10 18.334 21.667 23.001 35z" />
    <glyph glyph-name="quotedblleft" unicode="&#x201c;" horiz-adv-x="919" 
d="M115 1247c-10 15.333 -14.999 33 -14.999 53c0 28 9.66699 51.667 29 71s43 29 71 29c27.333 0 51 -9.66699 71 -29c11.333 -11.333 19.333 -24.333 24 -39l92 -181c8.66699 -15.333 13 -32.333 13 -51c0 -27.333 -9.83301 -50.833 -29.5 -70.5
s-43.167 -29.5 -70.5 -29.5c-28 0 -51.667 10 -71 30c-10.667 10 -18.334 21.667 -23.001 35zM535.001 1247c-10 15.333 -14.999 33 -14.999 53c0 28 9.66699 51.667 29 71s43 29 71 29c27.333 0 51 -9.66699 71 -29c11.333 -11.333 19.333 -24.333 24 -39l92 -181
c8.66699 -15.333 13 -32.333 13 -51c0 -27.333 -9.83301 -50.833 -29.5 -70.5s-43.167 -29.5 -70.5 -29.5c-28 0 -51.667 10 -71 30c-10.667 10 -18.334 21.667 -23.001 35z" />
    <glyph glyph-name="quotedblright" unicode="&#x201d;" horiz-adv-x="977" 
d="M385 1247c10 15.333 14.999 33 14.999 53c0 28 -9.66699 51.667 -29 71s-43 29 -71 29c-27.333 0 -51 -9.66699 -71 -29c-11.333 -11.333 -19.333 -24.333 -24 -39l-92 -181c-8.66699 -15.333 -13 -32.333 -13 -51c0 -27.333 9.83301 -50.833 29.5 -70.5
s43.167 -29.5 70.5 -29.5c28 0 51.667 10 71 30c10.667 10 18.334 21.667 23.001 35zM804.999 1247c10 15.333 14.999 33 14.999 53c0 28 -9.66699 51.667 -29 71s-43 29 -71 29c-27.333 0 -51 -9.66699 -71 -29c-11.333 -11.333 -19.333 -24.333 -24 -39l-92 -181
c-8.66699 -15.333 -13 -32.333 -13 -51c0 -27.333 9.83301 -50.833 29.5 -70.5s43.167 -29.5 70.5 -29.5c28 0 51.667 10 71 30c10.667 10 18.334 21.667 23.001 35z" />
    <glyph glyph-name="quotedblbase" unicode="&#x201e;" horiz-adv-x="977" 
d="M385 47c10 15.333 14.999 33 14.999 53c0 28 -9.66699 51.667 -29 71s-43 29 -71 29c-27.333 0 -51 -9.66699 -71 -29c-11.333 -11.333 -19.333 -24.333 -24 -39l-92 -181c-8.66699 -15.333 -13 -32.333 -13 -51c0 -27.333 9.83301 -50.833 29.5 -70.5
s43.167 -29.5 70.5 -29.5c28 0 51.667 10 71 30c10.667 10 18.334 21.667 23.001 35zM804.999 47c10 15.333 14.999 33 14.999 53c0 28 -9.66699 51.667 -29 71s-43 29 -71 29c-27.333 0 -51 -9.66699 -71 -29c-11.333 -11.333 -19.333 -24.333 -24 -39l-92 -181
c-8.66699 -15.333 -13 -32.333 -13 -51c0 -27.333 9.83301 -50.833 29.5 -70.5s43.167 -29.5 70.5 -29.5c28 0 51.667 10 71 30c10.667 10 18.334 21.667 23.001 35z" />
    <glyph glyph-name="dagger" unicode="&#x2020;" horiz-adv-x="1014" 
d="M400 1200v302c0 28 10 52 30 72s44 30 72 30s52 -10 72 -30s30 -44 30 -72v-302h198c28 0 52 -10 72 -30s30 -44 30 -72s-10 -52 -30 -72s-44 -30 -72 -30h-198v-1084c0 -28 -10 -52 -30 -72s-44 -30 -72 -30s-52 10 -72 30s-30 44 -30 72v1084h-198c-28 0 -52 10 -72 30
s-30 44 -30 72s10 52 30 72s44 30 72 30h198z" />
    <glyph glyph-name="daggerdbl" unicode="&#x2021;" horiz-adv-x="1014" 
d="M400 400v596h-198c-28 0 -52 10 -72 30s-30 44 -30 72s10 52 30 72s44 30 72 30h198v302c0 28 10 52 30 72s44 30 72 30s52 -10 72 -30s30 -44 30 -72v-302h198c28 0 52 -10 72 -30s30 -44 30 -72s-10 -52 -30 -72s-44 -30 -72 -30h-198v-596h198c28 0 52 -10 72 -30
s30 -44 30 -72s-10 -52 -30 -72s-44 -30 -72 -30h-198v-284c0 -28 -10 -52 -30 -72s-44 -30 -72 -30s-52 10 -72 30s-30 44 -30 72v284h-198c-28 0 -52 10 -72 30s-30 44 -30 72s10 52 30 72s44 30 72 30h198z" />
    <glyph glyph-name="bullet" unicode="&#x2022;" horiz-adv-x="597" 
d="M441.5 741.5c39 -39 58.5 -86.167 58.5 -141.5c0 -54.667 -19.5 -101.667 -58.5 -141s-86.167 -59 -141.5 -59s-102.5 19.667 -141.5 59s-58.5 86.333 -58.5 141c0 55.333 19.5 102.5 58.5 141.5s86.167 58.5 141.5 58.5s102.5 -19.5 141.5 -58.5z" />
    <glyph glyph-name="ellipsis" unicode="&#x2026;" 
d="M274 174c20 -20 30 -44 30 -72s-10 -52 -30 -72s-44 -30 -72 -30s-52 10 -72 30s-30 44 -30 72s10 52 30 72s44 30 72 30s52 -10 72 -30zM667 174c20 -20 30 -44 30 -72s-10 -52 -30 -72s-44 -30 -72 -30s-52 10 -72 30s-30 44 -30 72s10 52 30 72s44 30 72 30
s52 -10 72 -30zM1070 174c20 -20 30 -44 30 -72s-10 -52 -30 -72s-44 -30 -72 -30s-52 10 -72 30s-30 44 -30 72s10 52 30 72s44 30 72 30s52 -10 72 -30z" />
    <glyph glyph-name="guilsinglleft" unicode="&#x2039;" horiz-adv-x="597" 
d="M477 937c15.333 18 23 39 23 63c0 28 -9.66699 51.667 -29 71s-43 29 -71 29c-27.333 0 -51 -9.66699 -71 -29c-4.66699 -4.66699 -8.66699 -9.66699 -12 -15h-1l-200 -301c-10.667 -16 -16 -34.333 -16 -55c0 -20 5.33301 -38.333 16 -55l-2 -1l200 -300l2 1
c4 -5.33301 8.33301 -10.333 13 -15c20 -20 43.667 -30 71 -30c28 0 51.667 9.83301 71 29.5s29 43.167 29 70.5c0 21.333 -5.66699 40.333 -17 57l-162 244z" />
    <glyph glyph-name="guilsinglright" unicode="&#x203a;" horiz-adv-x="597" 
d="M123 937c-15.333 18 -23 39 -23 63c0 28 9.66699 51.667 29 71s43 29 71 29c27.333 0 51 -9.66699 71 -29c4.66699 -4.66699 8.66699 -9.66699 12 -15h1l200 -301c10.667 -16 16 -34.333 16 -55c0 -20 -5.33301 -38.333 -16 -55l2 -1l-200 -300l-2 1
c-4 -5.33301 -8.33301 -10.333 -13 -15c-20 -20 -43.667 -30 -71 -30c-28 0 -51.667 9.83301 -71 29.5s-29 43.167 -29 70.5c0 21.333 5.66699 40.333 17 57l162 244z" />
    <glyph glyph-name="fraction" unicode="&#x2044;" horiz-adv-x="1511" 
d="M1428 1270c0 -28.667 -10 -53 -30 -73l-1124 -1124c-20 -20 -44 -30 -72 -30c-28.667 0 -52.667 10 -72 30c-20 19.333 -30 43.333 -30 72c0 28 10 52 30 72l1124 1124c20 20 44.333 30 73 30c28 0 51.667 -10 71 -30c20 -19.333 30 -43 30 -71z" />
    <glyph glyph-name="fraction" unicode="&#x2215;" horiz-adv-x="1511" 
d="M1428 1270c0 -28.667 -10 -53 -30 -73l-1124 -1124c-20 -20 -44 -30 -72 -30c-28.667 0 -52.667 10 -72 30c-20 19.333 -30 43.333 -30 72c0 28 10 52 30 72l1124 1124c20 20 44.333 30 73 30c28 0 51.667 -10 71 -30c20 -19.333 30 -43 30 -71z" />
    <glyph glyph-name="franc" unicode="&#x20a3;" horiz-adv-x="1399" 
d="M290 608v724c0 28 10 52 30 72s44 30 72 30h790c28 0 52 -10 72 -30s30 -44 30 -72s-10 -52 -30 -72s-44 -30 -72 -30h-688v-226h298c28 0 52 -10 72 -30s30 -44 30 -72s-10 -52 -30 -72s-44 -30 -72 -30h-298v-192h108c28 0 52 -10 72 -30s30 -44 30 -72
s-10 -52 -30 -72s-44 -30 -72 -30h-108v-302c0 -28 -10 -52 -30 -72s-44 -30 -72 -30s-52 10 -72 30s-30 44 -30 72v302h-88c-28 0 -52 10 -72 30s-30 44 -30 72s10 52 30 72s44 30 72 30h88z" />
    <glyph glyph-name="lira" unicode="&#x20a4;" horiz-adv-x="1014" 
d="M460 400c-6.66699 -32 -15.998 -63.668 -27.998 -95.001c76.667 -7.33301 143.334 -38 200.001 -92c22 -11.333 46 -17 72 -17c41.333 0 76.666 14.333 105.999 43l3 -3c12 5.33301 25.333 8 40 8c27.333 0 50.833 -9.83301 70.5 -29.5s29.5 -43.167 29.5 -70.5
c0 -14.667 -2.66699 -28 -8 -40l6 -6c-8.66699 -8.66699 -18 -17 -28 -25c-6.66699 -6.66699 -13.667 -12.334 -21 -17.001c-57.333 -40 -123.333 -60 -198 -60c-93.333 0 -173.666 31.667 -240.999 95c-20.667 10.667 -43.334 16 -68.001 16
c-34.667 0 -65.334 -10.333 -92.001 -31c-3.33301 -5.33301 -7 -10.333 -11 -15c-4.66699 -11.333 -11.667 -21.666 -21 -30.999c-20 -20 -43.667 -30 -71 -30c-28 0 -51.667 9.83301 -71 29.5s-29 43.167 -29 70.5c0 23.333 6.66699 43.333 20 60l-3 3
c11.333 13.333 21.666 26.333 30.999 39l-1 2l9 9c45.333 62 78 124.333 98 187h-87c-28 0 -52 10 -72 30s-30 44 -30 72s10 52 30 72s44 30 72 30h105c-3.33301 27.333 -8.66602 51 -15.999 71h-124c-28 0 -52 10 -72 30s-30 44 -30 72s10 52 30 72s44 30 72 30h6
c-14 40.667 -21 84 -21 130c0 110.667 39 205 117 283s172.333 117 283 117c110 0 204.333 -39 283 -117c10.667 -10.667 20.667 -21.667 30 -33l-5 -4c16 -18 24 -39.667 24 -65c0 -27.333 -9.83301 -50.833 -29.5 -70.5s-43.167 -29.5 -70.5 -29.5
c-28 0 -51.667 10 -71 30c-10.667 10 -18.334 21.667 -23.001 35c-38.667 36 -84.667 54 -138 54c-55.333 0 -102.5 -19.5 -141.5 -58.5s-58.5 -86.167 -58.5 -141.5c0 -37.333 16 -80.666 48 -129.999h167c28 0 52 -10 72 -30s30 -44 30 -72s-10 -52 -30 -72
s-44 -30 -72 -30h-70c4.66699 -22 8 -45.667 10 -71h95c28 0 52 -10 72 -30s30 -44 30 -72s-10 -52 -30 -72s-44 -30 -72 -30h-107z" />
    <glyph glyph-name="peseta" unicode="&#x20a7;" horiz-adv-x="2038" 
d="M561 1234l-277 0.000976562v-433h277c54 0 100 21.167 138 63.5s57 93.5 57 153.5c0 59.333 -19 110.166 -57 152.499s-84 63.5 -138 63.5zM882 798.001c-15.333 -26.667 -33.666 -51.6689 -54.999 -75.002c-73.333 -82 -162 -123 -266 -123h-277v-498
c0 -28 -9 -52 -27 -72s-39.667 -30 -65 -30s-47 10 -65 30s-27 44 -27 72v1230c0 28 9 52 27 72s39.667 30 65 30l369 1c104 0 192.667 -40.667 266 -122s110 -179.666 110 -294.999v-16h59v190c0 28 10 52 30 72s44 30 72 30s52 -10 72 -30s30 -44 30 -72v-190h111
c28 0 52 -10 72 -30c13.333 -13.333 22.333 -28.666 27 -45.999l1 1c48.667 48.667 107.667 73 177 73c28 0 51.667 -9.66699 71 -29s29 -43 29 -71c0 -27.333 -9.66699 -50.833 -29 -70.5s-43 -29.5 -71 -29.5c-14 0 -25.833 -4.83301 -35.5 -14.5s-14.5 -21.5 -14.5 -35.5
s4.83301 -25.833 14.5 -35.5s21.5 -14.5 35.5 -14.5c96.667 0 179.167 -34.167 247.5 -102.5s102.5 -150.833 102.5 -247.5s-34.167 -179.167 -102.5 -247.5s-150.833 -102.5 -247.5 -102.5s-179.167 34.167 -247.5 102.5s-102.5 150.833 -102.5 247.5
c0 28 9.83301 51.667 29.5 71s43.167 29 70.5 29c28 0 51.667 -9.66699 71 -29s29 -43 29 -71c0 -41.333 14.667 -76.666 44 -105.999s64.666 -44 105.999 -44s76.666 14.667 105.999 44s44 64.666 44 105.999s-14.667 76.666 -44 105.999s-64.666 44 -105.999 44
c-69.333 0 -128.333 24.5 -177 73.5s-73 107.833 -73 176.5c0 18.667 1.66699 36.334 5 53.001c-10 -3.33301 -20.667 -5 -32 -5h-111v-696c0 -28 -10 -52 -30 -72s-44 -30 -72 -30s-52 10 -72 30s-30 44 -30 72v696h-114z" />
    <glyph glyph-name="Euro" unicode="&#x20ac;" 
d="M585 401c10.667 -16 22.667 -31.335 36 -46.002c84.667 -100.667 180.667 -151 288 -151c100 0 187.667 34.667 263 104l1 -1l2 2c16.667 20 37 30 61 30c37.333 0 64.5 -10 81.5 -30s25.5 -44 25.5 -72s-8.66699 -52 -26 -72l-2 -2l1 -1
c-110 -108 -245.667 -162 -407 -162c-168 0 -311.333 70 -430 210c-50 58.667 -89.667 122.334 -119 191.001h-179c-28 0 -52 10 -72 30s-30 44 -30 72s10 52 30 72s44 30 72 30h126c-4.66699 36 -7 73.333 -7 112c0 31.333 1.33301 62 4 92h-123c-28 0 -52 10 -72 30
s-30 44 -30 72s10 52 30 72s44 30 72 30h171c30 76.667 72.333 147 127 211c118.667 140 262 210 430 210c161.333 0 297 -54 407 -162l-1 -1l2 -2c17.333 -20 26 -44 26 -72s-8.5 -52 -25.5 -72s-44.167 -30 -81.5 -30c-24 0 -44.333 10 -61 30l-2 2l-1 -1
c-75.333 69.333 -163 104 -263 104c-107.333 0 -203.333 -50 -288 -150c-18 -21.333 -34.333 -43.666 -49 -66.999h299c28 0 52 -10 72 -30s30 -44 30 -72s-10 -52 -30 -72s-44 -30 -72 -30h-372c-4 -29.333 -6 -60 -6 -92c0 -38.667 3.33301 -76 10 -112h368
c28 0 52 -10 72 -30s30 -44 30 -72s-10 -52 -30 -72s-44 -30 -72 -30h-286z" />
    <glyph glyph-name="afii61352" unicode="&#x2116;" horiz-adv-x="2262" 
d="M304 1046l0.000976562 -944c0 -28 -10 -52 -30 -72s-44 -30 -72 -30s-52 10 -72 30s-30 44 -30 72v1230c0 28 10 52 30 72s44 30 72 30s52 -10 72 -30c8 -8 14.333 -16.667 19 -26l807 -996v950c0 28 10 52 30 72s44 30 72 30s52 -10 72 -30s30 -44 30 -72v-1230
c0 -28 -10 -52 -30 -72s-44 -30 -72 -30s-52 10 -72 30c-2.66699 2.66699 -5.33398 5 -8.00098 7zM1529 674c20 20 44 30 72 30h447c27.333 0 51 -10 71 -30s30 -44 30 -72s-10 -52 -30 -72s-43.667 -30 -71 -30h-447c-28 0 -52 10 -72 30s-30 44 -30 72s10 52 30 72z
M1828 1262c-40 0 -74.333 -12.5 -103 -37.5s-43 -55.167 -43 -90.5s14.333 -65.5 43 -90.5s63 -37.5 103 -37.5c40.667 0 75.167 12.5 103.5 37.5s42.5 55.167 42.5 90.5s-14.167 65.5 -42.5 90.5s-62.833 37.5 -103.5 37.5zM2158 1133
c0 -82.667 -32.167 -153.167 -96.5 -211.5s-142.166 -87.5 -233.499 -87.5c-90.667 0 -168.167 29.167 -232.5 87.5s-96.5 128.833 -96.5 211.5c0 83.333 32.167 154.166 96.5 212.499s141.833 87.5 232.5 87.5c91.333 0 169.166 -29.167 233.499 -87.5
s96.5 -129.166 96.5 -212.499z" />
    <glyph glyph-name="trademark" unicode="&#x2122;" horiz-adv-x="1613" 
d="M502 1232v-392c0 -29.333 -10.667 -53.5 -32 -72.5s-46 -28.5 -74 -28.5s-52.667 9.5 -74 28.5s-32 43.167 -32 72.5v392h-74c-28 0 -52.667 9.5 -74 28.5s-32 43.167 -32 72.5s10.667 53.5 32 72.5s46 28.5 74 28.5h358c28 0 52.667 -9.5 74 -28.5s32 -43.167 32 -72.5
s-10.667 -53.5 -32 -72.5s-46 -28.5 -74 -28.5h-72zM947 1119v-278c0 -29.333 -10.667 -53.5 -32 -72.5s-46 -28.5 -74 -28.5s-52.667 9.5 -74 28.5s-32 43.167 -32 72.5v492c0 29.333 10.667 53.5 32 72.5s46 28.5 74 28.5s51 -8.33301 69 -25
c8.66699 -5.33301 13.667 -9.33301 15 -12l185 -146l184 151l16 14c21.333 12 45 18 71 18c28 0 52.667 -9.5 74 -28.5s32 -43.167 32 -72.5v-492c0 -29.333 -10.667 -53.5 -32 -72.5s-46 -28.5 -74 -28.5s-52.667 9.5 -74 28.5s-32 43.167 -32 72.5v280l-97 -76
c-19.333 -16.667 -42 -25 -68 -25s-80.333 33 -163 99z" />
    <glyph glyph-name="partialdiff" unicode="&#x2202;" horiz-adv-x="1300" 
d="M1003 596h-404c-82 0 -152 -28.833 -210 -86.5s-87 -127.5 -87 -209.5s29 -152 87 -210s128 -87 210 -87s150 21.833 204 65.5s101.667 114.5 143 212.5c30 72.667 49 177.667 57 315zM1006 798c-5.33301 192.667 -44 358.661 -116 497.994
c-16.667 32.667 -38 65.334 -64 98.001l-4 4c-2.66699 2.66699 -5 5.33398 -7 8.00098c-20 19.333 -43.667 29 -71 29c-28 0 -51.667 -9.83301 -71 -29.5s-29 -43.167 -29 -70.5s9.66699 -50.666 29 -69.999l-1 -1c25.333 -24 38 -50 38 -78
c0 -27.333 -9.83301 -50.833 -29.5 -70.5s-43.167 -29.5 -70.5 -29.5c-28 0 -54 12.333 -78 37c-58.667 58.667 -88 129.334 -88 212.001s29.167 153.334 87.5 212.001s129.166 88 212.499 88c82.667 0 153.334 -29.333 212.001 -88c26.667 -26.667 47.334 -56 62.001 -88
c5.33301 -8 9.66602 -15 12.999 -21c117.333 -190.667 176 -420.667 176 -690c0 -239.333 -30.167 -427.166 -90.5 -563.499s-132.5 -234.5 -216.5 -294.5s-184.333 -90 -301 -90c-138 0 -255.667 48.667 -353 146s-146 215 -146 353s48.667 255.667 146 353
s215 146 353 146h407z" />
    <glyph glyph-name="Delta" unicode="&#x2206;" horiz-adv-x="1599" 
d="M200 0c-28 0 -51.667 9.83398 -71 29.501s-29 43.167 -29 70.5c0 19.333 5 36.666 15 51.999l593 1222c4.66699 10.667 11.667 20.667 21 30c19.333 20 43 30 71 30c27.333 0 51 -10 71 -30c8 -8 14.333 -16.667 19 -26l593 -1222c11.333 -16 17 -34.667 17 -56
c0 -27.333 -9.83301 -50.833 -29.5 -70.5s-43.167 -29.5 -70.5 -29.5h-1200zM1239 200.001l-439 905l-440 -905h879z" />
    <glyph glyph-name="product" unicode="&#x220f;" 
d="M900 1230h-596v-1128c0 -28 -10 -52 -30 -72s-44 -30 -72 -30s-52 10 -72 30s-30 44 -30 72v1230c0 28 10 52 30 72s44 30 72 30h800c28 0 52 -10 72 -30s30 -44 30 -72v-1230c0 -28 -10 -52 -30 -72s-44 -30 -72 -30s-52 10 -72 30s-30 44 -30 72v1128z" />
    <glyph glyph-name="summation" unicode="&#x2211;" horiz-adv-x="1206" 
d="M121 1274c-14 18 -21 38.667 -21 62c0 28 10 52 30 72s44 30 72 30h796c28 0 52 -10 72 -30s30 -44 30 -72s-10 -52 -30 -72s-44 -30 -72 -30h-607l291 -427c12 -16.667 18 -35.667 18 -57c0 -20 -4.66699 -37.667 -14 -53l-304 -493h616c28 0 52 -10 72 -30
s30 -44 30 -72s-10 -52 -30 -72s-44 -30 -72 -30h-796c-28 0 -52 10 -72 30s-30 44 -30 72c0 26 8.66699 48.667 26 68l355 577z" />
    <glyph glyph-name="minus" unicode="&#x2212;" horiz-adv-x="801" 
d="M202 594c-28.667 0 -52.834 10 -72.501 30s-29.5 44 -29.5 72s9.83301 52 29.5 72s43.834 30 72.501 30h400c28 0 52 -10 72 -30s30 -44 30 -72s-10 -52 -30 -72s-44 -30 -72 -30h-400z" />
    <glyph glyph-name="radical" unicode="&#x221a;" horiz-adv-x="1750" 
d="M1491 1542h1c4.66699 10 11.334 19.667 20.001 29c19.333 19.333 43 29 71 29c27.333 0 50.833 -9.83301 70.5 -29.5s29.5 -43.167 29.5 -70.5c0 -21.333 -5.66699 -40 -17 -56l-772 -1579c-4.66699 -13.333 -12.334 -25 -23.001 -35c-19.333 -20 -43 -30 -71 -30
c-27.333 0 -50.666 10 -69.999 30c-10.667 10 -18.334 21.333 -23.001 34l-366 732h-139c-28.667 0 -52.834 10 -72.501 30s-29.5 44 -29.5 72s9.83301 52 29.5 72s43.834 30 72.501 30h198c28 0 51.667 -9.66699 71 -29c6.66699 -6.66699 12 -13.667 16 -21h1l312 -625z
" />
    <glyph glyph-name="infinity" unicode="&#x221e;" horiz-adv-x="1603" 
d="M851 750c163.333 -100 263 -149.998 299 -149.998c41.333 0 76.666 14.667 105.999 44s44 64.666 44 105.999s-14.667 76.666 -44 105.999s-64.666 44 -105.999 44c-36 0 -135.667 -50 -299 -150zM445 750.002c-56 33.333 -87.668 50 -95.001 50
c-14 0 -25.833 -5 -35.5 -15s-14.5 -21.667 -14.5 -35c0 -14 4.83301 -25.833 14.5 -35.5s21.5 -14.5 35.5 -14.5c6.66699 0 38.334 16.667 95.001 50zM647.999 625.002c-144 -83.333 -243.333 -125 -298 -125c-69.333 0 -128.333 24.333 -177 73s-73 107.667 -73 177
c0 68.667 24.333 127.5 73 176.5s107.667 73.5 177 73.5c54.667 0 154 -41.667 298 -125l40 25c211.333 133.333 365.333 200 462 200s179.167 -34.167 247.5 -102.5s102.5 -150.833 102.5 -247.5s-34.167 -179.167 -102.5 -247.5s-150.833 -102.5 -247.5 -102.5
s-250.667 66.667 -462 200z" />
    <glyph glyph-name="integral" unicode="&#x222b;" horiz-adv-x="696" 
d="M600 1334c0 -28 -9.83203 -51.666 -29.499 -70.999s-43.167 -29 -70.5 -29c-28 0 -51.667 9.66699 -71 29s-29 43 -29 71c0 13.333 -5 25 -15 35s-21.667 15 -35 15c-14 0 -25.667 -5 -35 -15c-6 -6 -10 -12.333 -12 -19c0.666992 -6 1 -12 1 -18v-1330
c0 -12.667 -2 -24.334 -6 -35.001c-6.66699 -55.333 -30.334 -103.333 -71.001 -144c-49.333 -48.667 -108.333 -73 -177 -73c-69.333 0 -128.333 24.333 -177 73s-73 107.667 -73 177c0 27.333 9.66699 50.833 29 70.5s43 29.5 71 29.5
c27.333 0 50.833 -9.83301 70.5 -29.5s29.5 -43.167 29.5 -70.5c-0 -14 4.83301 -25.833 14.5 -35.5s21.5 -14.5 35.5 -14.5c13.333 0 25 4.83301 35 14.5s15 21.5 15 35.5v1334c0 68.667 24.333 127.5 73 176.5s107.667 73.5 177 73.5c68.667 0 127.5 -24.5 176.5 -73.5
s73.5 -107.833 73.5 -176.5z" />
    <glyph glyph-name="approxequal" unicode="&#x2248;" horiz-adv-x="977" 
d="M700 762c0 25.833 9.16699 47.916 27.5 66.249s40.416 27.5 66.249 27.5s47.916 -9.16699 66.249 -27.5s27.5 -40.416 27.5 -66.249c0 -69.167 -24.375 -128.125 -73.125 -176.875s-107.708 -73.125 -176.875 -73.125s-128.125 24.375 -176.875 73.125
s-73.125 107.708 -73.125 176.875c0 16.667 -6.04199 31.25 -18.125 43.75s-26.875 18.75 -44.375 18.75s-32.292 -6.25 -44.375 -18.75s-18.125 -27.083 -18.125 -43.75c0 -25.833 -9.16699 -47.916 -27.5 -66.249s-40.416 -27.5 -66.249 -27.5
s-47.916 9.16699 -66.249 27.5s-27.5 40.416 -27.5 66.249c0 69.167 24.375 128.125 73.125 176.875s107.708 73.125 176.875 73.125s128.125 -24.375 176.875 -73.125s73.125 -107.708 73.125 -176.875c0 -16.667 6.04199 -31.25 18.125 -43.75
s26.875 -18.75 44.375 -18.75s32.292 6.25 44.375 18.75s18.125 27.083 18.125 43.75zM700 262c0 25.833 9.16699 47.916 27.5 66.249s40.416 27.5 66.249 27.5s47.916 -9.16699 66.249 -27.5s27.5 -40.416 27.5 -66.249c0 -69.167 -24.375 -128.125 -73.125 -176.875
s-107.708 -73.125 -176.875 -73.125s-128.125 24.375 -176.875 73.125s-73.125 107.708 -73.125 176.875c0 16.667 -6.04199 31.25 -18.125 43.75s-26.875 18.75 -44.375 18.75s-32.292 -6.25 -44.375 -18.75s-18.125 -27.083 -18.125 -43.75
c0 -25.833 -9.16699 -47.916 -27.5 -66.249s-40.416 -27.5 -66.249 -27.5s-47.916 9.16699 -66.249 27.5s-27.5 40.416 -27.5 66.249c0 69.167 24.375 128.125 73.125 176.875s107.708 73.125 176.875 73.125s128.125 -24.375 176.875 -73.125
s73.125 -107.708 73.125 -176.875c0 -16.667 6.04199 -31.25 18.125 -43.75s26.875 -18.75 44.375 -18.75s32.292 6.25 44.375 18.75s18.125 27.083 18.125 43.75z" />
    <glyph glyph-name="lessequal" unicode="&#x2264;" horiz-adv-x="801" 
d="M166 705c-13.333 4.66699 -25.667 12.667 -37 24c-19.333 19.333 -29 43 -29 71c0 27.333 9.66699 51 29 71c8 8 16.667 14.333 26 19l400 200c13.333 6.66699 28.333 10 45 10c27.333 0 50.833 -9.83301 70.5 -29.5s29.5 -43.167 29.5 -70.5
c0 -28 -9.66699 -51.667 -29 -71c-12 -11.333 -25 -19.333 -39 -24l-209 -104l221 -111c9.33301 -4.66699 18.333 -11 27 -19c19.333 -20 29 -43.667 29 -71c0 -28 -9.83301 -51.667 -29.5 -71s-43.167 -29 -70.5 -29c-21.333 0 -40 5.33301 -56 16zM201.999 194
c-28.667 0 -52.834 10 -72.501 30s-29.5 44 -29.5 72s9.83301 52 29.5 72s43.834 30 72.501 30h400c28 0 52 -10 72 -30s30 -44 30 -72s-10 -52 -30 -72s-44 -30 -72 -30h-400z" />
    <glyph glyph-name="greaterequal" unicode="&#x2265;" horiz-adv-x="801" 
d="M634 705c13.333 4.66699 25.667 12.667 37 24c19.333 19.333 29 43 29 71c0 27.333 -9.66699 51 -29 71c-8 8 -16.667 14.333 -26 19l-400 200c-13.333 6.66699 -28.333 10 -45 10c-27.333 0 -50.833 -9.83301 -70.5 -29.5s-29.5 -43.167 -29.5 -70.5
c0 -28 9.66699 -51.667 29 -71c12 -11.333 25 -19.333 39 -24l209 -104l-221 -111c-9.33301 -4.66699 -18.333 -11 -27 -19c-19.333 -20 -29 -43.667 -29 -71c0 -28 9.83301 -51.667 29.5 -71s43.167 -29 70.5 -29c21.333 0 40 5.33301 56 16zM202.001 194
c-28.667 0 -52.834 10 -72.501 30s-29.5 44 -29.5 72s9.83301 52 29.5 72s43.834 30 72.501 30h400c28 0 52 -10 72 -30s30 -44 30 -72s-10 -52 -30 -72s-44 -30 -72 -30h-400z" />
    <glyph glyph-name="uniF001" unicode="&#xf001;" horiz-adv-x="1073" 
 />
    <glyph glyph-name="uniF001" unicode="&#xfb01;" horiz-adv-x="1073" 
 />
    <glyph glyph-name="uniF002" unicode="&#xf002;" horiz-adv-x="1081" 
 />
    <glyph glyph-name="uniF002" unicode="&#xfb02;" horiz-adv-x="1081" 
 />
    <glyph glyph-name=".null" horiz-adv-x="0" 
 />
    <glyph glyph-name="nonmarkingreturn" horiz-adv-x="597" 
 />
    <glyph glyph-name="glyph238" horiz-adv-x="1092" 
d="M156 213c78 106.667 118.336 214.666 121.003 323.999c-2 86.667 -17 147.334 -45 182.001l-26 39c-59.333 71.333 -89 155 -89 251c0 110.667 39 205 117 283s172.333 117 283 117c110 0 204.333 -39 283 -117c10.667 -10.667 20.667 -21.667 30 -33l-5 -4
c16 -18 24 -39.667 24 -65c0 -27.333 -9.83301 -50.833 -29.5 -70.5s-43.167 -29.5 -70.5 -29.5c-28 0 -51.667 10 -71 30c-10.667 10 -18.334 21.667 -23.001 35c-38.667 36 -84.667 54 -138 54c-55.333 0 -102.5 -19.5 -141.5 -58.5s-58.5 -86.167 -58.5 -141.5
c0 -48 26.333 -105.333 79 -172c49.333 -62 76.333 -163.333 81 -304c-2 -76.667 -17 -152.667 -45 -228c76.667 -7.33301 143.334 -38 200.001 -92c22 -11.333 46 -17 72 -17c41.333 0 76.666 14.333 105.999 43l3 -3c12 5.33301 25.333 8 40 8
c27.333 0 50.833 -9.83301 70.5 -29.5s29.5 -43.167 29.5 -70.5c0 -14.667 -2.66699 -28 -8 -40l6 -6c-8.66699 -8.66699 -18 -17 -28 -25c-6.66699 -6.66699 -13.667 -12.334 -21 -17.001c-57.333 -40 -123.333 -60 -198 -60c-93.333 0 -173.666 31.667 -240.999 95
c-20.667 10.667 -43.334 16 -68.001 16c-34.667 0 -65.334 -10.333 -92.001 -31c-3.33301 -5.33301 -7 -10.333 -11 -15c-4.66699 -11.333 -11.667 -21.666 -21 -30.999c-20 -20 -43.667 -30 -71 -30c-28 -0 -51.667 9.83301 -71 29.5s-29 43.167 -29 70.5
c0 23.333 6.66699 43.333 20 60l-3 3c11.333 13.333 21.666 26.333 30.999 39l-1 2z" />
    </font>
</defs>
</svg>
